<?xml version="1.0" encoding="utf-8"?>
<!-- Generator: Adobe Illustrator 23.0.6, SVG Export Plug-In . SVG Version: 6.00 Build 0)  -->
<svg version="1.1" id="Calque_1" xmlns="http://www.w3.org/2000/svg" xmlns:xlink="http://www.w3.org/1999/xlink" x="0px" y="0px"
	 viewBox="0 0 596.27 152.36" style="enable-background:new 0 0 596.27 152.36;" xml:space="preserve">
<style type="text/css">
	.st0{fill:#4F1110;}
	.st1{fill:#FDFCFC;}
	.st2{fill:#F5ECEB;}
</style>
<g>
	<path class="st0" d="M106.27,75.09c-0.92,0.31-1.72,0.82-2.41,1.49c-0.2,0.12-0.4,0.25-0.6,0.37c-0.42,0.06-0.84,0.1-1.01,0.58
		c-0.67,0.4-1.35,0.81-2.02,1.21c-0.14,0.11-0.27,0.21-0.41,0.32c0,0-0.08,0.03-0.07,0.03c-9.17,5.66-18.37,11.26-27.49,16.99
		c-9.17,5.77-18.45,11.36-27.39,17.5c-2.44,1.68-4.72,3.55-7.16,5.21c-6.7,4.58-13.98,8.34-19.79,14.16
		c-0.31,0.31-0.79,1.08-1.25,0.06c0.04-0.31,0.01-0.66,0.14-0.93c12.65-25,25.73-49.74,42.93-72.05
		C69.76,47.08,79.51,33.9,89.4,20.84c1.25-1.65,2.24-3.33,1.72-5.48c-0.5-2.09-1.75-3.66-3.85-4.19c-2.55-0.63-4.77,0.12-6.41,2.27
		C75.7,20.18,70.5,26.88,65.41,33.67C52.95,50.31,40.2,66.74,29.52,84.63c-7.75,12.98-14.52,26.5-21.48,39.9
		c-2.52,4.85-5.7,9.47-7.21,14.73c-2.06,7.23-0.51,11.39,7.07,12.37c13.51,1.74,27,0.17,40.2-2.46
		c20.82-4.14,41.16-10.35,61.68-15.79c4.89-1.3,9.77-2.6,14.6-4.09c3.34-1.04,5-4.12,4.09-6.96c-1.03-3.24-3.8-4.71-7.28-3.77
		c-7.04,1.89-14.04,3.95-21.12,5.72c-23.53,5.91-46.52,14.2-70.97,16.09c-5.54,0.43-11.06,0.93-16.7,0.66
		c0.32-1.91,1.73-2.89,2.82-4.08c5.32-4.91,11.01-9.28,17.5-12.56c1.33-0.67,2.58-1.5,3.85-2.28
		c18.45-11.31,36.13-23.88,55.19-34.22c2.67-1.45,5.08-3.39,8.02-4.36c0.55,1.12-0.61,1.28-1.06,1.74
		c-4.37,4.44-10.29,6.48-15.37,9.83c-2.42,1.59-4.93,3.03-7.4,4.54c0.5,0.4,0.86,0.34,1.22,0.27c2.16-0.46,3.76-2.33,6.07-2.41
		c0.1,1.14-0.98,1.1-1.56,1.47c-5.55,3.5-11.14,6.93-16.72,10.39c0.11,0.18,0.21,0.36,0.32,0.54c7.87-4.72,15.85-9.25,23.51-14.33
		c5.85-3.63,11.74-7.2,17.54-10.92c9.22-5.91,18.13-12.34,28.55-16.15c9.95-3.64,19.88-7.37,29.75-11.22
		c19.47-7.6,39.11-14.66,59.48-19.46c18.21-4.29,36.57-7.83,55.32-8.6c31.48-1.29,62.95-1.37,94.3,2.37
		c16.23,1.94,32.55,3.55,48.37,8.03c5.13,1.45,10.59,1.2,15.64,2.91c23.86,8.11,46.97,17.92,68.3,31.49
		c17.26,10.98,33.84,22.98,50.48,34.85c10.48,7.48,21.4,14.37,30.85,23.25c2.36,2.22,5.69,3.4,8.89,5.24
		c-0.23-2.01-0.43-3.48-0.56-4.96c-0.56-6.43-2.47-12.19-6.89-17.21c-12.77-14.5-25.94-28.62-39-42.86
		c-8.12-8.84-16.46-17.43-25.82-24.99c-10.9-8.81-22.68-16.31-34.91-23.07c-6.09-3.37-12.77-4.84-19.79-4.51
		c-2.91,0.14-5.76,0.02-8.6-0.89c-17.35-5.52-34.5-11.77-52.35-15.6C402.58,2.04,396.85,0.7,390.86,0c0.46,0.94,1.61,0.14,1.89,1.05
		l0.03-0.04c-0.28,0.41-0.7,0.34-1.12,0.33c-4.24-0.17-8.49-0.41-12.73-0.46c-3.22-0.04-6.43,0.17-9.65,0.27c0,0.25,0,0.5,0,0.75
		c12.38,1.15,24.72,2.54,36.72,5.97c-5.86,0.35-11.53-1.76-17.41-1.11c17.28,4.38,34.49,8.94,51.09,15.55
		c-3.34,0.34-6.52-1.3-10.37-0.6c2.64,1.15,4.79,2.09,7.25,3.16c-1.25,0.35-2.04,0.08-2.85-0.08c-3.74-0.75-7.47-1.7-11.25-2.13
		c-13.47-1.56-26.86-3.71-40.39-4.79c-14.69-1.17-29.38-2.35-44.12-2.83c-12-0.39-23.99,0-35.97,0.6
		c-10.31,0.51-20.62,1.19-30.9,2.08c-13.18,1.15-26.06,3.95-38.86,7.27c-15.25,3.96-30.49,7.91-45.16,13.69
		c-15.58,6.13-31,12.65-46.55,18.86c-10.5,4.19-20.87,8.59-30.22,15.07c-1.43,0.65-2.75,1.46-3.96,2.47L106.27,75.09z M74.27,100.75
		c-2.25,1.35-4.5,2.7-6.75,4.05c0.1,0.18,0.2,0.36,0.29,0.54c2.16-1.26,4.32-2.52,6.48-3.78c0.42-0.61,1.67-0.28,1.62-1.44
		C75.1,99.7,74.75,100.39,74.27,100.75z"/>
	<path class="st1" d="M392.74,1.05c-0.27-0.91-1.43-0.11-1.89-1.05c6,0.7,11.73,2.04,17.47,3.27c17.86,3.83,35,10.08,52.35,15.6
		c2.85,0.91,5.7,1.02,8.6,0.89c7.02-0.33,13.7,1.14,19.79,4.51c12.24,6.76,24.01,14.26,34.91,23.07
		c9.36,7.56,17.7,16.15,25.82,24.99c13.06,14.23,26.23,28.36,39,42.86c4.42,5.02,6.33,10.77,6.89,17.21
		c0.13,1.48,0.33,2.95,0.56,4.96c-3.2-1.84-6.53-3.02-8.89-5.24c-9.46-8.88-20.37-15.77-30.85-23.25
		c-16.65-11.88-33.22-23.88-50.48-34.85c-21.33-13.56-44.44-23.38-68.3-31.49c-5.05-1.72-10.51-1.46-15.64-2.91
		c-15.82-4.48-32.14-6.09-48.37-8.03c-31.34-3.74-62.82-3.66-94.3-2.37c-18.75,0.77-37.11,4.31-55.32,8.6
		c-20.37,4.8-40.02,11.86-59.48,19.46c-9.87,3.85-19.8,7.58-29.75,11.22c-10.42,3.81-19.33,10.24-28.55,16.15
		c-5.8,3.71-11.69,7.28-17.54,10.92c-1.85-1.47-3,0.7-4.54,0.88c-0.18,0.2-0.35,0.39-0.53,0.59L83.76,97
		c-0.31,0.04-0.83-0.13-0.54,0.53l0.02-0.03c-2.31,0.07-3.91,1.95-6.07,2.41c-0.36,0.08-0.72,0.14-1.22-0.27
		c2.47-1.51,4.99-2.95,7.4-4.54c5.08-3.35,11-5.39,15.37-9.83c0.46-0.46,1.61-0.62,1.06-1.74c0,0-0.04,0.06-0.04,0.06
		c0.36,0.69,0.68,0.07,1.01-0.04c0.68-0.09,1.66,0.18,1.64-0.95c-0.03-1.15-1.38-1.6-1.91-1.58c-2.61,0.11-1.28-0.99-0.72-1.91
		c0,0,0.08-0.03,0.08-0.03c0.14-0.11,0.27-0.21,0.41-0.32c0.67-0.4,1.35-0.81,2.02-1.21c0.47,0.03,0.85-0.09,1.01-0.58
		c0.2-0.12,0.4-0.25,0.6-0.37c1.96,1.37,2.64,0.67,2.41-1.49l0.04-0.02c2.12,0.46,3.1-0.91,3.96-2.47
		c9.35-6.48,19.72-10.88,30.22-15.07c15.55-6.21,30.97-12.73,46.55-18.86c14.67-5.78,29.92-9.73,45.16-13.69
		c12.8-3.32,25.68-6.13,38.86-7.27c10.28-0.89,20.59-1.57,30.9-2.08c11.98-0.59,23.97-0.98,35.97-0.6
		c14.74,0.47,29.43,1.66,44.12,2.83c13.53,1.07,26.92,3.23,40.39,4.79c3.78,0.44,7.51,1.39,11.25,2.13c0.81,0.16,1.6,0.43,2.85,0.08
		c-2.46-1.07-4.61-2.01-7.25-3.16c3.85-0.7,7.03,0.94,10.37,0.6c-16.59-6.6-33.8-11.17-51.09-15.55c5.88-0.66,11.55,1.45,17.41,1.11
		c-11.99-3.43-24.34-4.82-36.72-5.97c0-0.25,0-0.5,0-0.75c3.22-0.1,6.43-0.31,9.65-0.27c4.25,0.05,8.49,0.3,12.73,0.46
		c0.42,0.02,0.83,0.09,1.12-0.33c0.44,0.86,1.03,0.44,2.3,0.15C393.84,1.11,393.29,1.08,392.74,1.05z"/>
	<path class="st1" d="M15.22,136.95c-1.09,1.2-2.5,2.17-2.82,4.08c5.64,0.27,11.16-0.23,16.7-0.66
		c24.45-1.89,47.44-10.18,70.97-16.09c7.07-1.78,14.07-3.83,21.12-5.72c3.48-0.94,6.25,0.53,7.28,3.77
		c0.91,2.84-0.76,5.92-4.09,6.96c-4.82,1.5-9.71,2.8-14.6,4.09c-20.52,5.44-40.86,11.65-61.68,15.79c-13.2,2.63-26.69,4.2-40.2,2.46
		c-7.59-0.98-9.14-5.13-7.07-12.37c1.5-5.26,4.69-9.87,7.21-14.73c6.96-13.41,13.73-26.92,21.48-39.9
		C40.2,66.74,52.95,50.31,65.41,33.67c5.09-6.79,10.29-13.49,15.44-20.23c1.64-2.15,3.86-2.9,6.41-2.27
		c2.1,0.52,3.35,2.09,3.85,4.19c0.52,2.16-0.47,3.83-1.72,5.48C79.51,33.9,69.76,47.08,59.75,60.05
		c-17.2,22.31-30.28,47.05-42.93,72.05c-0.13,0.27-0.1,0.62-0.14,0.93c0,0,0.04,0,0.04,0c-0.75,0.25-0.95,0.84-0.97,1.55
		C14.61,135.15,14.99,136.07,15.22,136.95z"/>
	<path class="st2" d="M15.22,136.95c-0.23-0.88-0.61-1.8,0.53-2.37c0.63-0.32,1.61-0.43,0.97-1.55c0,0-0.04,0-0.04,0
		c0.46,1.03,0.94,0.26,1.25-0.06c5.81-5.82,13.1-9.58,19.79-14.16c2.43-1.67,4.72-3.54,7.16-5.21c8.93-6.15,18.22-11.73,27.39-17.5
		c9.12-5.74,18.32-11.34,27.49-16.99c-0.56,0.92-1.89,2.02,0.72,1.91c0.53-0.02,1.89,0.43,1.91,1.58c0.03,1.13-0.96,0.86-1.64,0.95
		c-0.06-0.39-0.34-0.55-0.67-0.45c-0.15,0.04-0.23,0.32-0.34,0.49c0,0,0.04-0.06,0.04-0.06c-2.93,0.97-5.34,2.91-8.02,4.36
		c-19.05,10.34-36.73,22.91-55.19,34.22c-1.27,0.78-2.53,1.61-3.85,2.28C26.24,127.67,20.54,132.04,15.22,136.95z"/>
	<path class="st2" d="M84.25,96.44c1.53-0.18,2.68-2.35,4.54-0.88c-7.66,5.08-15.64,9.61-23.51,14.33
		c-0.11-0.18-0.21-0.36-0.32-0.54c5.58-3.45,11.17-6.89,16.72-10.39c0.58-0.36,1.67-0.33,1.56-1.47c0,0-0.02,0.03-0.02,0.03
		c0.2,0.01,0.44,0.1,0.59,0.02c0.37-0.18-0.03-0.36-0.06-0.55c0,0-0.04,0.03-0.04,0.03c0.4,0.81,0.88,0.23,1.08-0.07
		C84.98,96.68,84.64,96.41,84.25,96.44z"/>
	<path class="st2" d="M74.29,101.56c-2.16,1.26-4.32,2.52-6.48,3.78c-0.1-0.18-0.2-0.36-0.29-0.54c2.25-1.35,4.5-2.7,6.75-4.05
		C74.28,101.02,74.29,101.29,74.29,101.56z"/>
	<path class="st2" d="M110.27,72.61c-0.86,1.55-1.84,2.93-3.96,2.47C107.52,74.07,108.85,73.26,110.27,72.61z"/>
	<path class="st2" d="M106.27,75.09c0.23,2.16-0.45,2.86-2.41,1.49C104.56,75.91,105.35,75.4,106.27,75.09z"/>
	<path class="st1" d="M74.29,101.56c-0.01-0.27-0.01-0.54-0.02-0.81c0.48-0.36,0.83-1.05,1.64-0.63
		C75.96,101.28,74.71,100.95,74.29,101.56z"/>
	<path class="st2" d="M103.27,76.95c-0.16,0.5-0.54,0.62-1.01,0.58C102.43,77.06,102.85,77.01,103.27,76.95z"/>
	<path class="st2" d="M100.24,78.75c-0.14,0.11-0.27,0.21-0.41,0.32C99.97,78.96,100.11,78.86,100.24,78.75z"/>
	<path class="st0" d="M392.74,1.05c0.55,0.03,1.1,0.05,2.33,0.11c-1.26,0.29-1.86,0.71-2.3-0.15
		C392.78,1.01,392.74,1.05,392.74,1.05z"/>
	<path class="st0" d="M99.74,83.58c0.11-0.17,0.19-0.45,0.34-0.49c0.34-0.09,0.61,0.06,0.67,0.45
		C100.42,83.65,100.11,84.27,99.74,83.58z"/>
	<path class="st0" d="M84.25,96.44c0.4-0.03,0.73,0.23,0.55,0.52c-0.19,0.29-0.67,0.88-1.08,0.07
		C83.89,96.83,84.07,96.64,84.25,96.44z"/>
	<path class="st0" d="M83.76,97c0.02,0.19,0.43,0.37,0.06,0.55c-0.16,0.08-0.39-0.01-0.59-0.02C82.93,96.87,83.44,97.04,83.76,97z"
		/>
	<path class="st0" d="M16.72,133.03c0.65,1.12-0.33,1.23-0.97,1.55C15.77,133.87,15.98,133.28,16.72,133.03z"/>
</g>
</svg>
