<?xml version="1.0" encoding="utf-8"?>
<!-- Generator: Adobe Illustrator 23.0.6, SVG Export Plug-In . SVG Version: 6.00 Build 0)  -->
<svg version="1.1" id="Calque_1" xmlns="http://www.w3.org/2000/svg" xmlns:xlink="http://www.w3.org/1999/xlink" x="0px" y="0px"
	 viewBox="0 0 212.16 184.84" style="enable-background:new 0 0 212.16 184.84;" xml:space="preserve">
<style type="text/css">
	.st0{fill:#FEFBEF;}
	.st1{fill:#050607;}
	.st2{fill:#0B0C0C;}
	.st3{fill:#676663;}
	.st4{fill:#F7F6F6;}
	.st5{fill:#F6F5F5;}
	.st6{fill:#FFFFFF;}
	.st7{fill:#FBFBFB;}
	.st8{fill:#FCFBFB;}
	.st9{fill:#FDFCFC;}
	.st10{fill:#FCFCFC;}
	.st11{fill:#FDFDFD;}
	.st12{fill:#F9F9F9;}
</style>
<g>
	<path class="st0" d="M211.98,68.47c0.04-6.33-0.03-12.66,0.17-18.98c0.07-2.17-0.61-2.51-2.6-2.5
		c-60.82,0.06-121.64,0.05-182.45-0.01c-0.85,0-2.46,1.06-2.58-1.13c-0.11-2.12,1.57-1.58,2.59-1.73c3.7-0.54,7.43-0.92,11.15-1.38
		c15.44-1.9,30.88-3.81,46.32-5.71c12.88-1.59,25.77-3.16,38.65-4.75c14.2-1.75,28.4-3.5,42.61-5.26
		c14.37-1.78,28.73-3.61,43.1-5.32c1.59-0.19,1.87-0.68,1.67-2.14c-0.8-5.85-1.54-11.72-2.19-17.59c-0.19-1.71-0.87-2.14-2.53-1.92
		c-9.9,1.29-19.81,2.49-29.72,3.72c-16.76,2.08-33.52,4.16-50.28,6.22c-14.2,1.75-28.41,3.46-42.61,5.22
		c-15.6,1.92-31.2,3.88-46.81,5.81c-11.31,1.4-22.62,2.84-33.95,4.1c-2.34,0.26-2.73,1.2-2.44,3.28c0.81,5.68,1.46,11.39,2.17,17.09
		c0.02,0.53,0.05,1.06,0.07,1.59c-0.36,6.64-0.1,13.28-0.1,19.91c0,0.19-0.01,0.39-0.01,0.58c0.02,0.29,0.05,0.59,0.07,0.88
		c0.08,0.6,0.64,0.4,0.97,0.59c-0.03,0.91-0.09,1.83-0.09,2.74c0,33.07-0.01,66.14,0,99.21c0,3.33,0.05,6.66,0.08,9.99
		c-0.18,0.44,0,0.8,0.29,1.12c0.82,2.68,3.06,2.73,5.24,2.73c65.41,0.01,130.81,0.01,196.22,0c5.19,0,6.15-0.97,6.15-6.07
		c0-29.66,0-59.32-0.01-88.99c0-6.91-0.04-13.83-0.06-20.74C211.38,68.85,211.68,68.66,211.98,68.47z"/>
	<path class="st1" d="M3.24,180.98c-0.03-3.33-0.08-6.66-0.08-9.99c-0.01-33.07,0-66.14,0-99.21c0-0.91,0.06-1.83,0.09-2.74
		c31.55,0.01,63.11,0.02,94.66,0.02c37.72,0,75.44-0.02,113.16-0.02c0.02,6.91,0.06,13.83,0.06,20.74c0.01,29.66,0,59.32,0.01,88.99
		c0,5.1-0.96,6.07-6.15,6.07c-65.41,0.01-130.81,0.01-196.22,0c-2.18,0-4.42-0.05-5.24-2.73C3.7,181.66,3.67,181.27,3.24,180.98z
		 M146.67,178.26c0.63-1.13,0.46-1.98,0.46-2.79c0.01-7.83,0.08-15.67-0.05-23.5c-0.04-2.05,0.59-2.44,2.51-2.43
		c16.83,0.08,33.66,0.05,50.49,0.02c0.87,0,1.92,0.42,2.98-0.76c-64.07,0-127.75,0-192.08,0c1.48,1.07,2.5,0.76,3.42,0.76
		c16.75,0.03,33.5,0.06,50.24-0.04c2.15-0.01,2.6,0.6,2.56,2.63c-0.12,7.25-0.05,14.5-0.05,21.75c0,1-0.02,2,0,3
		c0.01,0.45-0.14,1.04,0.68,1c0.78-0.04,0.62-0.61,0.65-1.07c0.03-0.5,0-1,0-1.5c0-7.92,0.05-15.83-0.04-23.75
		c-0.02-1.66,0.47-2.05,2.09-2.05c24.41,0.05,48.83,0.06,73.24-0.01c1.96-0.01,2.31,0.6,2.29,2.39c-0.1,7.83-0.05,15.66-0.03,23.5
		C146.04,176.26,145.78,177.19,146.67,178.26z M107.38,91.31c-30.98,0-61.96-0.01-92.94,0.04c-0.9,0-2.58-0.86-2.64,0.65
		c-0.04,1,1.66,0.48,2.55,0.48c61.88,0.03,123.76,0.03,185.64,0.03c0.42,0,0.84,0.03,1.25-0.01c0.52-0.04,1.32,0.3,1.38-0.56
		c0.07-0.97-0.8-0.56-1.29-0.63c-0.41-0.06-0.83-0.01-1.25-0.01C169.17,91.31,138.28,91.31,107.38,91.31z M11.41,120.55
		c0.97,0.75,1.83,0.47,2.63,0.47c62.05,0.02,124.11,0.01,186.16,0.01c0.58,0,1.17,0.01,1.75-0.02c0.33-0.01,0.67-0.05,0.69-0.5
		c0.02-0.43-0.26-0.56-0.62-0.57c-0.5-0.01-1-0.02-1.5-0.02c-62.22,0-124.44,0-186.66,0.01C13.1,119.93,12.23,119.66,11.41,120.55z"
		/>
	<path class="st2" d="M2.26,45.48c-0.71-5.7-1.36-11.4-2.17-17.09c-0.3-2.08,0.1-3.01,2.44-3.28c11.33-1.26,22.64-2.71,33.95-4.1
		c15.6-1.93,31.2-3.88,46.81-5.81c14.2-1.75,28.41-3.47,42.61-5.22c16.76-2.06,33.52-4.15,50.28-6.22
		c9.91-1.23,19.82-2.43,29.72-3.72c1.66-0.22,2.34,0.21,2.53,1.92c0.65,5.87,1.39,11.73,2.19,17.59c0.2,1.46-0.08,1.95-1.67,2.14
		c-14.37,1.71-28.74,3.54-43.1,5.32c-14.2,1.76-28.4,3.51-42.61,5.26c-12.88,1.59-25.77,3.17-38.65,4.75
		c-15.44,1.9-30.88,3.81-46.32,5.71c-3.72,0.46-7.44,0.83-11.15,1.38c-1.02,0.15-2.7-0.39-2.59,1.73c0.11,2.19,1.73,1.12,2.58,1.13
		c60.82,0.06,121.64,0.06,182.45,0.01c2,0,2.67,0.34,2.6,2.5c-0.2,6.32-0.14,12.65-0.17,18.98c-2.67,0.01-5.33,0.03-8,0.03
		c-41.41,0-82.81,0-124.22-0.01c-25.82-0.01-51.65-0.03-77.47-0.05c-0.02-0.29-0.05-0.59-0.07-0.88c0.35-0.19,0.37-0.38,0.01-0.58
		c-0.01-6.64-0.26-13.28,0.1-19.91C2.84,46.52,2.76,45.99,2.26,45.48z M73.16,17.77c3.57,4.94,7.09,9.45,10.2,14.23
		c1.73,2.66,3.4,4.16,6.76,3.12c1.8-0.56,3.79-0.47,5.68-0.71c3.25-0.41,6.5-0.86,10.07-1.33c-4.03-5.58-7.88-10.79-11.57-16.1
		c-0.9-1.3-1.82-1.66-3.3-1.46C85.22,16.3,79.44,16.98,73.16,17.77z M124.2,11.49c4.23,5.86,8.24,11.36,12.19,16.9
		c0.62,0.88,1.35,0.78,2.18,0.68c5.99-0.73,11.98-1.45,18-2.18c-0.09-1.06-0.78-1.61-1.25-2.26c-3.19-4.47-6.5-8.86-9.59-13.39
		c-1.17-1.72-2.25-2.55-4.45-1.91c-1.81,0.52-3.79,0.47-5.68,0.7C131.93,10.5,128.25,10.98,124.2,11.49z M22.15,24.08
		c4.22,5.85,8.26,11.42,12.26,17.01c0.39,0.55,0.8,0.78,1.44,0.7c6.22-0.78,12.44-1.55,19.01-2.37
		c-4.23-5.87-8.26-11.44-12.27-17.02c-0.36-0.51-0.75-0.82-1.44-0.73C34.92,22.47,28.69,23.25,22.15,24.08z M207.94,20.54
		c-4.26-5.89-8.24-11.4-12.22-16.9c-0.35-0.48-0.67-0.91-1.39-0.82c-6.28,0.79-12.57,1.56-19.12,2.37
		c4.2,5.83,8.19,11.33,12.15,16.86c0.49,0.69,0.99,0.96,1.87,0.85C195.32,22.1,201.42,21.35,207.94,20.54z M209.39,48.28
		c-6.34,0-12.33,0.05-18.31-0.04c-1.4-0.02-2.03,0.52-2.64,1.67c-2.04,3.89-4.2,7.72-6.31,11.58c-1.06,1.93-2.1,3.87-3.28,6.05
		c6.56,0,12.72-0.02,18.88,0.02c0.89,0.01,1.32-0.36,1.71-1.08C202.68,60.52,205.96,54.56,209.39,48.28z M106.11,48.3
		c-6.17,0-12.31,0.04-18.45-0.03c-1.21-0.01-1.56,0.73-1.99,1.52c-2.39,4.37-4.79,8.73-7.13,13.12c-0.79,1.48-1.86,2.83-2.28,4.62
		c6.17,0,12.17-0.04,18.16,0.03c1.28,0.02,1.88-0.45,2.46-1.54c2.56-4.84,5.25-9.61,7.85-14.43
		C105.25,50.61,106.14,49.74,106.11,48.3z M157.96,48.28c-4.2,0-7.93-0.05-11.65,0.02c-2.81,0.05-6.15-1.04-8.29,0.43
		c-2,1.37-2.77,4.55-4.08,6.94c-2.14,3.88-4.27,7.76-6.54,11.87c6.53,0,12.67-0.01,18.81,0.02c0.83,0,1.35-0.18,1.77-0.96
		C151.19,60.65,154.45,54.72,157.96,48.28z M24.57,67.55c6.57,0,12.79-0.01,19.01,0.01c0.77,0,1.2-0.3,1.56-0.96
		c3.04-5.6,6.1-11.2,9.19-16.78c0.71-1.28,0.26-1.56-1-1.55c-5.65,0.03-11.31,0.03-16.96,0.02c-0.71,0-1.31,0.08-1.69,0.77
		C31.36,55.14,28.03,61.21,24.57,67.55z M13.41,39.14c2.83,0,4.83-2.03,4.82-4.88c-0.01-2.83-2.03-4.81-4.9-4.8
		c-2.75,0.01-4.85,2.14-4.84,4.91C8.5,37.18,10.53,39.15,13.41,39.14z"/>
	<path class="st3" d="M2.29,68.44c25.82,0.02,51.65,0.05,77.47,0.05c41.41,0.01,82.81,0.01,124.22,0.01c2.67,0,5.33-0.02,8-0.03
		c-0.3,0.19-0.6,0.38-0.9,0.56c-37.72,0.01-75.44,0.02-113.16,0.02c-31.55,0-63.11-0.02-94.66-0.02
		C2.93,68.84,2.37,69.04,2.29,68.44z"/>
	<path class="st3" d="M2.26,45.48c0.5,0.51,0.58,1.04,0.07,1.59C2.3,46.54,2.28,46.01,2.26,45.48z"/>
	<path class="st3" d="M3.24,180.98c0.43,0.29,0.46,0.67,0.29,1.12C3.24,181.78,3.07,181.43,3.24,180.98z"/>
	<path class="st3" d="M2.23,66.99c0.36,0.2,0.33,0.39-0.01,0.58C2.22,67.37,2.23,67.18,2.23,66.99z"/>
	<path class="st4" d="M146.67,178.26c-0.89-1.07-0.63-2-0.64-2.84c-0.02-7.83-0.07-15.67,0.03-23.5c0.02-1.79-0.33-2.4-2.29-2.39
		c-24.41,0.07-48.83,0.06-73.24,0.01c-1.62,0-2.11,0.39-2.09,2.05c0.08,7.91,0.04,15.83,0.04,23.75c0,0.5,0.03,1,0,1.5
		c-0.02,0.45,0.14,1.03-0.65,1.07c-0.82,0.04-0.67-0.55-0.68-1c-0.02-1,0-2,0-3c0-7.25-0.08-14.5,0.05-21.75
		c0.03-2.03-0.41-2.65-2.56-2.63c-16.75,0.1-33.5,0.06-50.24,0.04c-0.92,0-1.94,0.3-3.42-0.76c64.33,0,128.01,0,192.08,0
		c-1.07,1.18-2.11,0.76-2.98,0.76c-16.83,0.03-33.66,0.06-50.49-0.02c-1.92-0.01-2.54,0.38-2.51,2.43
		c0.13,7.83,0.06,15.66,0.05,23.5C147.13,176.28,147.3,177.12,146.67,178.26z"/>
	<path class="st5" d="M107.38,91.31c30.9,0,61.8,0,92.69,0c0.42,0,0.84-0.05,1.25,0.01c0.49,0.07,1.36-0.34,1.29,0.63
		c-0.06,0.86-0.86,0.51-1.38,0.56c-0.41,0.04-0.83,0.01-1.25,0.01c-61.88,0-123.76,0-185.64-0.03c-0.89,0-2.59,0.52-2.55-0.48
		c0.06-1.51,1.74-0.65,2.64-0.65C45.42,91.3,76.4,91.31,107.38,91.31z"/>
	<path class="st6" d="M11.41,120.55c0.82-0.89,1.69-0.62,2.44-0.63c62.22-0.01,124.44-0.01,186.66-0.01c0.5,0,1,0,1.5,0.02
		c0.36,0.01,0.64,0.14,0.62,0.57c-0.02,0.46-0.36,0.49-0.69,0.5c-0.58,0.02-1.17,0.02-1.75,0.02c-62.05,0-124.11,0-186.16-0.01
		C13.24,121.02,12.38,121.3,11.41,120.55z"/>
	<path class="st7" d="M73.16,17.77c6.28-0.78,12.06-1.47,17.83-2.24c1.48-0.2,2.4,0.16,3.3,1.46c3.7,5.31,7.54,10.52,11.57,16.1
		c-3.57,0.47-6.82,0.91-10.07,1.33c-1.9,0.24-3.89,0.16-5.68,0.71c-3.35,1.04-5.03-0.46-6.76-3.12
		C80.25,27.22,76.73,22.7,73.16,17.77z"/>
	<path class="st8" d="M124.2,11.49c4.05-0.52,7.73-1,11.4-1.45c1.9-0.24,3.87-0.18,5.68-0.7c2.2-0.64,3.27,0.19,4.45,1.91
		c3.09,4.53,6.4,8.92,9.59,13.39c0.46,0.65,1.16,1.19,1.25,2.26c-6.02,0.73-12.01,1.45-18,2.18c-0.83,0.1-1.56,0.2-2.18-0.68
		C132.44,22.85,128.44,17.35,124.2,11.49z"/>
	<path class="st7" d="M22.15,24.08c6.55-0.83,12.78-1.61,19-2.41c0.69-0.09,1.07,0.22,1.44,0.73c4.01,5.58,8.04,11.15,12.27,17.02
		c-6.56,0.82-12.79,1.59-19.01,2.37c-0.65,0.08-1.05-0.15-1.44-0.7C30.41,35.5,26.37,29.93,22.15,24.08z"/>
	<path class="st7" d="M207.94,20.54c-6.52,0.82-12.62,1.56-18.71,2.36c-0.88,0.12-1.38-0.16-1.87-0.85
		c-3.96-5.53-7.95-11.04-12.15-16.86c6.55-0.81,12.83-1.58,19.12-2.37c0.72-0.09,1.05,0.34,1.39,0.82
		C199.7,9.14,203.68,14.64,207.94,20.54z"/>
	<path class="st9" d="M209.39,48.28c-3.43,6.27-6.7,12.24-9.95,18.21c-0.39,0.72-0.82,1.08-1.71,1.08
		c-6.16-0.04-12.31-0.02-18.88-0.02c1.18-2.18,2.23-4.12,3.28-6.05c2.11-3.86,4.27-7.69,6.31-11.58c0.61-1.16,1.24-1.69,2.64-1.67
		C197.06,48.34,203.05,48.28,209.39,48.28z"/>
	<path class="st10" d="M106.11,48.3c0.03,1.45-0.86,2.31-1.39,3.3c-2.6,4.82-5.29,9.59-7.85,14.43c-0.58,1.09-1.18,1.55-2.46,1.54
		c-5.99-0.07-11.98-0.03-18.16-0.03c0.42-1.79,1.5-3.15,2.28-4.62c2.34-4.39,4.74-8.75,7.13-13.12c0.43-0.79,0.78-1.54,1.99-1.52
		C93.8,48.33,99.94,48.3,106.11,48.3z"/>
	<path class="st11" d="M157.96,48.28c-3.51,6.43-6.77,12.36-9.98,18.32c-0.42,0.78-0.95,0.97-1.77,0.96
		c-6.14-0.03-12.28-0.02-18.81-0.02c2.26-4.11,4.4-7.99,6.54-11.87c1.31-2.39,2.08-5.57,4.08-6.94c2.14-1.47,5.48-0.38,8.29-0.43
		C150.03,48.23,153.76,48.28,157.96,48.28z"/>
	<path class="st11" d="M24.57,67.55c3.46-6.33,6.79-12.41,10.1-18.48c0.38-0.69,0.98-0.78,1.69-0.77
		c5.65,0.01,11.31,0.02,16.96-0.02c1.26-0.01,1.71,0.27,1,1.55C51.24,55.4,48.18,61,45.14,66.6c-0.36,0.66-0.78,0.96-1.56,0.96
		C37.36,67.54,31.15,67.55,24.57,67.55z"/>
	<path class="st12" d="M13.41,39.14c-2.88,0-4.9-1.96-4.92-4.78c-0.01-2.76,2.09-4.89,4.84-4.91c2.87-0.01,4.89,1.97,4.9,4.8
		C18.24,37.11,16.24,39.14,13.41,39.14z"/>
</g>
</svg>
