<?xml version="1.0" encoding="utf-8"?>
<!-- Generator: Adobe Illustrator 23.0.6, SVG Export Plug-In . SVG Version: 6.00 Build 0)  -->
<svg version="1.1" id="Calque_1" xmlns="http://www.w3.org/2000/svg" xmlns:xlink="http://www.w3.org/1999/xlink" x="0px" y="0px"
	 viewBox="0 0 301.76 222.79" style="enable-background:new 0 0 301.76 222.79;" xml:space="preserve">
<style type="text/css">
	.st0{fill:#FEFCEF;}
	.st1{fill:#8EC790;}
	.st2{fill:#91C9EC;}
	.st3{fill:#F9C161;}
	.st4{fill:#3385BA;}
</style>
<g>
	<path class="st0" d="M142.51,155.4c7.04,1.8,14.09,0.68,20.97-0.55c9.22-1.65,17.87-5.06,25.9-10.11
		c9.73-6.12,17.48-14.07,23.41-23.81c3.92-6.42,6.42-13.42,8.48-20.69c1.5-5.3,1.47-10.62,2.02-15.94c0.15-1.45-0.06-3.43-2.32-3.43
		c-2-0.01-2.86,1.11-2.89,3.2c-0.16,12.15-3.27,23.37-9.69,33.85c-3.07,5.02-6.6,9.57-10.66,13.63
		c-6.1,6.11-13.22,10.73-21.34,14.11c-8.07,3.36-16.3,4.95-24.9,5.13c-7.18,0.15-14.15-0.78-21.04-3.23
		c-6.75-2.41-13.27-5.02-19.05-9.34c-9.57-7.15-17.03-15.98-22.03-26.85c-2.61-5.66-4.49-11.57-5.29-17.74
		c-0.79-6.16-1.13-12.32-0.32-18.61c0.67-5.22,2.11-10.15,3.65-15.08c1.43-4.57,3.91-8.68,6.39-12.78
		c4.31-7.12,9.89-13.09,16.48-18.01c6.38-4.77,13.34-8.33,21.23-10.48c6.25-1.7,12.49-2.77,18.83-2.97
		c8.08-0.25,15.86,1.56,23.57,4.19c9.25,3.15,16.99,8.55,23.87,15.05c6.92,6.54,9.74,15.21,9.73,24.72
		c-0.01,10.24-3.08,19.6-8.01,28.52c-2.82,5.11-6.49,9.18-11.34,12.36c-3.11,2.04-6.61,2.56-9.72,1.25
		c-6.7-2.83-10.62-7.91-10.55-15.62c0.11-11.16,0.03-22.33,0.04-33.5c0-2.25,0.03-4.5-0.02-6.75c-0.04-1.62-0.92-2.84-2.51-2.87
		c-1.67-0.04-2.44,1.22-2.46,2.85c-0.02,1.92,0.06,3.84-0.03,5.75c-0.08,1.75,0.43,3.58-0.59,5.47c-0.78-1.03-1.39-1.91-2.07-2.73
		c-2.02-2.39-4.59-4.35-7.54-4.92c-5.72-1.11-11.02,0.6-15.57,4.19c-6.86,5.42-11.58,12.4-14.43,20.66
		c-3.46,10.03-4.93,20.12-0.75,30.31c3.55,8.65,10.89,12.06,19.71,8.98c6.98-2.44,11.59-7.7,15.55-13.64
		c2.17-3.26,3.9-6.77,5.43-10.43c0.36,1.84,0.78,3.56,1.5,5.21c2.59,5.97,6.95,10.31,13.1,12.08c6.21,1.79,11.87-0.28,16.84-4.37
		c6.15-5.06,10.3-11.49,13.32-18.76c2.85-6.85,4.77-13.96,5.39-21.34c0.29-3.49,0.1-7.01-0.73-10.56
		c-1.23-5.21-2.74-10.22-5.79-14.65c-4.24-6.17-9.9-10.66-16.14-14.81c-12.02-7.99-25.18-11.6-39.41-11.98
		c-6.88-0.18-13.57,1.05-20.12,2.97c-6.83,2-13.49,4.61-19.31,8.73c-4.98,3.53-10.1,7-13.86,12c-0.54,0.72-1.24,1.39-2.29,1.32
		c-0.83-0.05-1.66-0.14-2.49-0.14c-23.41,0-46.83,0-70.24,0c-3.08,0-6.14,0.02-9.21,0.45c-7.19,1-13.19,7.61-13.19,14.07
		c-0.04,32-0.01,63.99-0.01,95.99c0,3.3,1.4,6.04,3.38,8.57c3.49,4.46,8.29,5.84,13.67,5.84c28.33,0.01,56.66,0.06,84.99-0.07
		c3.63-0.02,6.64,0.58,9.13,3.38c1.25,1.41,2.9,2.47,4.36,3.7c8.17,6.92,16.33,13.84,24.51,20.76c0.55,0.47,0.97,1.37,1.82,1.09
		c1.09-0.36,0.62-1.42,0.63-2.17C142.52,176.4,142.51,165.9,142.51,155.4z M250.04,77.78c0.18,4.36-0.84,9.01-1.54,13.69
		c-1.3,8.67-3.62,17.12-7.02,25.16c-4.9,11.61-11.63,22.2-19.68,31.92c-6.79,8.19-15,11.69-24.34,8.34
		c-9.09-3.26-19.16,0.85-23.33,9.73c-3.53,7.52-6.76,15.21-9.51,23.04c-3.14,8.95,0.76,20.37,10.61,23.94
		c5.15,1.87,10.07,4.36,15.15,6.42c3.63,1.47,7.39,2.55,11.35,2.73c8.74,0.41,16.49-2.33,23.67-7.13
		c13.98-9.35,24.77-21.77,34.07-35.54c11.79-17.45,20.72-36.39,27.99-56.11c6.72-18.23,11.96-36.81,13.72-56.28
		c1.04-11.45,0.76-22.78-1.74-33.97c-2.34-10.47-7.72-19.08-17.54-24.05c-5.99-3.04-12.39-5.26-18.56-7.96
		c-10.7-4.68-20.59,0.82-25.05,9.82c-3.42,6.91-6.08,14.22-8.88,21.43c-3.64,9.39,0.06,20,8.61,24.18
		C246.58,61.31,250.51,67.96,250.04,77.78z"/>
	<path class="st1" d="M250.04,77.78c0.48-9.82-3.45-16.47-12-20.64c-8.56-4.18-12.26-14.79-8.61-24.18
		c2.8-7.21,5.46-14.51,8.88-21.43c4.46-9,14.35-14.5,25.05-9.82c6.17,2.7,12.57,4.93,18.56,7.96c9.82,4.97,15.2,13.58,17.54,24.05
		c2.5,11.19,2.78,22.52,1.74,33.97c-1.76,19.47-7,38.05-13.72,56.28c-7.27,19.72-16.21,38.66-27.99,56.11
		c-9.3,13.77-20.1,26.2-34.07,35.54c-7.19,4.81-14.94,7.54-23.67,7.13c-3.96-0.19-7.72-1.26-11.35-2.73
		c-5.08-2.06-10-4.56-15.15-6.42c-9.85-3.57-13.75-14.99-10.61-23.94c2.75-7.83,5.98-15.52,9.51-23.04
		c4.17-8.88,14.24-12.99,23.33-9.73c9.34,3.35,17.56-0.15,24.34-8.34c8.05-9.72,14.78-20.3,19.68-31.92
		c3.4-8.04,5.72-16.48,7.02-25.16C249.2,86.78,250.22,82.13,250.04,77.78z"/>
	<path class="st2" d="M142.51,155.4c0,10.5,0.01,21-0.02,31.49c0,0.75,0.47,1.81-0.63,2.17c-0.85,0.28-1.27-0.63-1.82-1.09
		c-8.17-6.92-16.34-13.84-24.51-20.76c-1.46-1.23-3.1-2.29-4.36-3.7c-2.49-2.81-5.5-3.4-9.13-3.38
		c-28.33,0.12-56.66,0.07-84.99,0.07c-5.38,0-10.18-1.39-13.67-5.84c-1.98-2.53-3.38-5.26-3.38-8.57c0-32-0.03-63.99,0.01-95.99
		c0.01-6.46,6-13.07,13.19-14.07c3.06-0.43,6.13-0.45,9.21-0.45c23.41,0,46.83,0,70.24,0c0.83,0,1.66,0.09,2.49,0.13
		c-0.11,0.56-0.07,1.23-0.37,1.67c-1.79,2.58-3.57,5.17-5.26,7.82c-2.28,3.58-4.18,7.2-5.85,11.08c-2.62,6.08-4.52,12.26-4.76,18.91
		c-0.02,0.66,0.01,1.36-0.17,1.98c-1.42,4.73-0.79,9.61-0.31,14.3c0.38,3.76,1.27,7.61,2.42,11.35c0.88,2.87,1.69,5.78,2.78,8.57
		c2.31,5.94,5.54,11.38,9.53,16.33c4.59,5.69,9.33,11.27,15.56,15.27c4.08,2.62,8.35,4.82,12.77,6.9
		C128.27,152.75,135.21,154.51,142.51,155.4z M42.89,106.28C42.89,106.28,42.89,106.28,42.89,106.28
		c8.82,0.01,17.63,0.01,26.45,0.01c0.58,0,1.17,0.02,1.75-0.01c1.43-0.06,2.42-0.68,2.43-2.24c0.01-1.5-0.83-2.28-2.32-2.35
		c-0.42-0.02-0.83-0.01-1.25-0.01c-17.8,0-35.6,0-53.4,0.01c-0.67,0-1.34-0.04-1.99,0.04c-1.34,0.17-2.09,0.94-2.07,2.34
		c0.01,1.3,0.77,1.98,1.97,2.17c0.65,0.11,1.33,0.05,1.99,0.05C25.25,106.28,34.07,106.28,42.89,106.28z M46.73,69.77
		c5.99,0,11.97-0.02,17.96,0.01c1.73,0.01,3.33-0.22,3.28-2.4c-0.04-2.01-1.57-2.24-3.2-2.23c-11.89,0.02-23.77,0.02-35.66,0
		c-1.65,0-3.06,0.27-3.13,2.31c-0.07,2.16,1.45,2.31,3.05,2.31C34.92,69.77,40.83,69.77,46.73,69.77z"/>
	<path class="st3" d="M142.51,155.4c-7.3-0.89-14.24-2.66-21.01-5.84c-4.42-2.08-8.69-4.28-12.77-6.9
		c-6.24-4-10.97-9.58-15.56-15.27c-4-4.95-7.23-10.39-9.53-16.33c-1.09-2.79-1.89-5.7-2.78-8.57c-1.15-3.74-2.04-7.59-2.42-11.35
		c-0.48-4.69-1.11-9.56,0.31-14.3c0.19-0.62,0.15-1.32,0.17-1.98c0.24-6.64,2.14-12.83,4.76-18.91c1.67-3.88,3.57-7.5,5.85-11.08
		c1.69-2.65,3.47-5.24,5.26-7.82c0.3-0.43,0.25-1.11,0.37-1.67c1.05,0.06,1.75-0.61,2.29-1.32c3.76-5,8.88-8.47,13.86-12
		c5.82-4.13,12.48-6.73,19.31-8.73c6.55-1.92,13.24-3.16,20.12-2.97c14.23,0.38,27.39,3.99,39.41,11.98
		c6.23,4.14,11.9,8.64,16.14,14.81c3.04,4.43,4.56,9.44,5.79,14.65c0.84,3.55,1.02,7.07,0.73,10.56
		c-0.62,7.38-2.54,14.49-5.39,21.34c-3.02,7.27-7.17,13.7-13.32,18.76c-4.97,4.09-10.63,6.16-16.84,4.37
		c-6.15-1.78-10.51-6.12-13.1-12.08c-0.72-1.65-1.14-3.37-1.5-5.21c-1.53,3.66-3.26,7.17-5.43,10.43
		c-3.95,5.95-8.56,11.2-15.55,13.64c-8.82,3.08-16.16-0.33-19.71-8.98c-4.18-10.18-2.71-20.28,0.75-30.31
		c2.85-8.26,7.57-15.24,14.43-20.66c4.55-3.59,9.85-5.3,15.57-4.19c2.95,0.57,5.52,2.53,7.54,4.92c0.69,0.81,1.29,1.7,2.07,2.73
		c1.02-1.89,0.51-3.72,0.59-5.47c0.09-1.91,0.01-3.83,0.03-5.75c0.02-1.64,0.79-2.9,2.46-2.85c1.59,0.04,2.47,1.26,2.51,2.87
		c0.05,2.25,0.02,4.5,0.02,6.75c0,11.17,0.07,22.33-0.04,33.5c-0.07,7.71,3.85,12.79,10.55,15.62c3.1,1.31,6.61,0.78,9.72-1.25
		c4.85-3.18,8.52-7.26,11.34-12.36c4.93-8.92,8-18.28,8.01-28.52c0.01-9.51-2.81-18.18-9.73-24.72
		c-6.89-6.51-14.63-11.9-23.87-15.05c-7.71-2.63-15.49-4.44-23.57-4.19c-6.34,0.2-12.58,1.27-18.83,2.97
		c-7.88,2.14-14.84,5.71-21.23,10.48c-6.59,4.92-12.17,10.89-16.48,18.01c-2.49,4.1-4.97,8.21-6.39,12.78
		c-1.54,4.93-2.98,9.86-3.65,15.08c-0.81,6.29-0.47,12.44,0.32,18.61c0.79,6.16,2.68,12.07,5.29,17.74
		c5.01,10.87,12.47,19.71,22.03,26.85c5.78,4.32,12.29,6.94,19.05,9.34c6.89,2.45,13.86,3.38,21.04,3.23
		c8.6-0.18,16.83-1.77,24.9-5.13c8.11-3.38,15.23-8,21.34-14.11c4.06-4.07,7.59-8.61,10.66-13.63c6.42-10.48,9.53-21.7,9.69-33.85
		c0.03-2.09,0.89-3.21,2.89-3.2c2.26,0.01,2.47,1.98,2.32,3.43c-0.55,5.32-0.52,10.63-2.02,15.94c-2.05,7.28-4.56,14.27-8.48,20.69
		c-5.94,9.73-13.69,17.69-23.41,23.81c-8.03,5.05-16.68,8.46-25.9,10.11C156.6,156.08,149.54,157.21,142.51,155.4z"/>
	<path class="st4" d="M42.89,106.28c-8.82,0-17.63,0-26.45,0c-0.66,0-1.34,0.06-1.99-0.05c-1.2-0.19-1.95-0.87-1.97-2.17
		c-0.01-1.4,0.73-2.17,2.07-2.34c0.66-0.08,1.33-0.04,1.99-0.04c17.8,0,35.6-0.01,53.4-0.01c0.42,0,0.83-0.01,1.25,0.01
		c1.49,0.07,2.33,0.85,2.32,2.35c-0.01,1.56-1,2.17-2.43,2.24c-0.58,0.03-1.16,0.01-1.75,0.01
		C60.52,106.29,51.7,106.29,42.89,106.28C42.89,106.28,42.89,106.28,42.89,106.28z"/>
	<path class="st4" d="M46.73,69.77c-5.9,0-11.8,0-17.71,0c-1.6,0-3.12-0.15-3.05-2.31c0.07-2.04,1.47-2.31,3.13-2.31
		c11.89,0.01,23.77,0.02,35.66,0c1.63,0,3.16,0.22,3.2,2.23c0.05,2.18-1.55,2.41-3.28,2.4C58.7,69.75,52.71,69.77,46.73,69.77z"/>
</g>
</svg>
