<?xml version="1.0" encoding="utf-8"?>
<!-- Generator: Adobe Illustrator 23.0.6, SVG Export Plug-In . SVG Version: 6.00 Build 0)  -->
<svg version="1.1" id="Calque_1" xmlns="http://www.w3.org/2000/svg" xmlns:xlink="http://www.w3.org/1999/xlink" x="0px" y="0px"
	 viewBox="0 0 179.97 267.57" style="enable-background:new 0 0 179.97 267.57;" xml:space="preserve">
<style type="text/css">
	.st0{fill:#FFE8B7;}
	.st1{fill:#3F89C2;}
	.st2{fill:#558DB6;}
	.st3{fill:#FBFAEA;}
	.st4{fill:#F7AB38;}
</style>
<g>
	<path class="st0" d="M15.28,237.6c0.22-7.17,1.4-14.26,2.3-21.36c0.67-5.3,1.98-10.56,3.48-15.78c1.32-4.59,2.66-9.15,4.29-13.64
		c1.17-3.21,2.95-6.09,4.76-8.96c2.34-3.72,5.47-6.81,8.29-10.13c2.25-2.64,5.07-4.77,8.01-6.61c1.1-0.69,1.2-1.8,2.08-2.58
		c4.81-4.27,9.99-8.21,13.98-13.3c4.62-5.89,7.39-11.76,2.43-19.32c-2.48-3.78-4.93-7.84-9.09-10.27c-0.78-0.45-1.44-1.13-2.08-1.78
		c-5.94-5.99-12.81-11-18.38-17.39c-5.17-5.92-9.43-12.44-11.79-19.96c-1.26-4.02-2.86-8.03-3.5-12.15
		c-0.86-5.53-2.34-10.93-2.87-16.57c-0.47-5-0.59-10.08-1.65-15.03c-0.19-0.87-0.04-1.81-0.05-2.72c0.83-0.02,1.66-0.07,2.49-0.07
		c46.35,0,92.71,0,139.06,0c2.41,0,4.82,0.04,7.24,0.07c-0.08,6.28-0.99,12.49-1.64,18.72c-0.48,4.56-1.29,9.12-2.38,13.57
		c-0.92,3.77-1.83,7.57-3.35,11.18c-1.04,2.45-1.12,5.24-2.53,7.57c-1.43,1.58-2.18,3.54-2.95,5.48c0.13,2.49-1.58,4.19-2.99,5.73
		c-4.44,4.8-9.09,9.41-13.82,13.93c-2.62,2.5-5.55,4.67-8.38,6.95c-1.08,0.87-1.8,2.06-2.75,3.04c-2.79,2.87-6.32,5.1-8.1,8.88
		c-1.08,0.24-1.48,1.1-2.02,1.96c-1.54,2.45-1.02,5.14-0.93,7.71c0.22,6.64,3.66,11.51,8.95,15.24c3.81,3.26,7.64,6.5,11.42,9.79
		c2.28,1.99,4.7,3.87,6.68,6.13c4.35,4.99,9.06,9.64,12.48,15.49c3.55,6.08,5.27,12.73,7.17,19.28c1.41,4.85,2.22,9.96,2.85,15.06
		c0.43,3.49,0.97,7.03,1.66,10.42c0.54,2.65-0.21,5.65,1.56,8.08c0.22,0.3,0.15,1.11-0.11,1.4c-1.82,2.09,0.41,1.72,1.27,2.18
		c-5.6,0-11.2,0-16.81,0c-0.38-1.57-1.11-3.15-1.08-4.72c0.11-5.96-0.94-11.77-2.17-17.53c-1.59-7.43-2.77-15.04-7.19-21.55
		c-6.57-9.67-15.53-15.45-27.31-15.83c-7.27-0.24-14.79-8.12-14.6-14.73c0.32-10.74-0.11-21.5,0.28-32.24
		c0.24-6.72,2.85-12.87,6.84-18.33c5.23-7.16,12.01-12.83,18.43-18.84c3.52-3.29,6.92-6.69,10-10.38c0.36-0.44,1.12-0.95,0.62-1.71
		c-0.3-0.46-0.89-0.43-1.38-0.33c-2.87,0.53-5.78,0.29-8.66,0.3c-22,0.04-44,0.02-65.99,0.02c-2.75,0-5.5,0-8.25-0.03
		c-0.7-0.01-1.56-0.63-2,0.31c-0.36,0.77,0.29,1.38,0.73,1.97c2.5,3.32,5.46,6.21,8.49,9.04c6.36,5.96,13.04,11.61,18.35,18.6
		c4.19,5.52,7.23,11.67,7.58,18.59c0.56,11.05,0.17,22.14,0.53,33.21c0.22,6.86-7.13,14.25-13.69,14.42
		c-10.53,0.27-18.94,4.68-25.77,12.6c-6.46,7.5-7.94,16.82-9.89,25.97c-1.48,6.98-2.16,14.08-2.76,21.18
		C25.54,237.8,20.4,238.3,15.28,237.6z"/>
	<path class="st1" d="M149.57,237.84c5.6,0,11.2,0,16.81,0c3.01,1.41,6.79,1.15,9.01,4.23c-0.15,0.97,0.24,1.67,0.86,2.43
		c1.08,1.32,2.03,2.89,2.07,4.58c0.09,3.6,0.42,7.24-0.42,10.81c-1.8,3.17-4.38,5.42-7.82,6.69c-0.85,0.31-1.69,0.62-2.62,0.5
		c-49.71-0.01-99.41-0.02-149.12-0.03c-1.66,0-3.33,0.03-4.99,0.04c0,0,0.01,0.02,0.01,0.02c-1.76-1.44-3.76-2.17-6.05-2.02
		c-1.89-0.34-2.62-2.09-3.9-3.17c0.46-2.31-1.09-3.55-2.56-4.84c0,0,0.01,0.02,0.01,0.02c-0.11-0.33-0.22-0.65-0.34-0.97
		c-0.82-3.91-0.72-7.68,1.75-11.08c0.85-0.08,2.03-1.57,2.38,0.61c0.08,0.46,0.85,0.47,1.28,0.19c0.47-0.3,0.57-0.96,0.25-1.29
		c-0.9-0.94-0.81-2.07-0.83-3.19c2.76-2.7,6.3-3.31,9.92-3.75c5.12,0.71,10.26,0.2,15.39,0.25c1,0.05,1.99,0.14,2.99,0.14
		c36.31,0.01,72.62,0.01,108.93,0C144.92,237.99,147.24,237.89,149.57,237.84z M167.01,239.81c0-0.15,0-0.3,0-0.45
		c-5.08,0-10.17,0-15.25,0c0,0.15,0,0.3,0.01,0.45C156.85,239.81,161.93,239.81,167.01,239.81z M27.01,239.83
		c0-0.17,0-0.33-0.01-0.5c-3.75,0-7.5,0-11.25,0c0,0.17,0.01,0.33,0.01,0.5C19.51,239.83,23.26,239.83,27.01,239.83z"/>
	<path class="st1" d="M8.02,28.04c-1.23-0.09-1.56-1.56-2.71-1.78c-0.12-1.24,0.98-3.12-1.65-3.05c-0.2,0-0.39-0.67-0.62-1
		c-2.27-3.33-1.97-6.98-1.55-11.06c1.25,1.57,0.85,3.03,0.89,4.38c0.06,2.28,0.03,2.28,2.48,3.33c-2.02-2.65-1.48-5.21-1.46-7.7
		c0.01-1.25-0.36-2.25-1.1-3.18c0.46-2.36,2.1-3.76,4-4.96c1.79,1.15,3.37,1.48,4.11-1.14c0.21-0.73,0.76-0.82,1.36-0.8
		c2.83,0.12,5.58-0.61,8.42-0.59c49.74,0.33,99.49-0.54,149.23,0.55c3.2,0.43,5.23,2.52,7.13,4.88c4.76,5.92,4.19,13.08,0.11,18.26
		c-1.89,2.4-4.35,4.41-7.62,4.92c-0.33-0.02-0.66-0.06-1-0.06c-26.72-0.01-53.44,0.23-80.15-0.08C61.28,28.67,34.62,30.3,8.02,28.04
		z"/>
	<path class="st2" d="M8.02,28.04c26.61,2.26,53.26,0.63,79.89,0.94c26.71,0.31,53.43,0.07,80.15,0.08c0.33,0,0.66,0.04,1,0.06
		c-1.46,0.97-3.17,0.61-4.76,0.93c-2.41-0.02-4.82-0.07-7.24-0.07c-46.35,0-92.71,0-139.06,0c-0.83,0-1.66,0.05-2.49,0.07
		C12.89,29.82,10.25,29.68,8.02,28.04z"/>
	<path class="st2" d="M15.39,0c0.91,0.04,1.83,0.1,2.74,0.1c48.41,0,96.83,0,145.24,0.01c1.33,0,2.66,0.06,4,0.09
		c0.69,0.28,1.38,0.56,2.07,0.85C119.7-0.04,69.95,0.83,20.21,0.5c-2.84-0.02-5.59,0.71-8.42,0.59c-0.6-0.03-1.16,0.07-1.36,0.8
		C9.68,4.5,8.11,4.18,6.31,3.02C8.83,0.49,12.17,0.41,15.39,0z"/>
	<path class="st2" d="M13.36,267.08c1.66-0.02,3.33-0.04,4.99-0.04c49.71,0.01,99.41,0.02,149.12,0.03
		c-0.87,0.71-1.91,0.44-2.88,0.45c-49.44,0.01-98.89,0.01-148.33,0C15.28,267.52,14.24,267.75,13.36,267.08z"/>
	<path class="st2" d="M2.31,7.98c0.73,0.93,1.11,1.93,1.1,3.18c-0.02,2.48-0.56,5.04,1.46,7.7c-2.45-1.04-2.42-1.04-2.48-3.33
		c-0.04-1.36,0.37-2.82-0.89-4.38c-0.43,4.07-0.72,7.73,1.55,11.06c0.23,0.33,0.42,1.01,0.62,1c2.63-0.07,1.53,1.81,1.65,3.05
		c-4.83-3.14-6.5-10.83-4.45-16.73C1.08,8.9,1.44,8.13,2.31,7.98z"/>
	<path class="st3" d="M121.39,150c-5.28-3.73-8.72-8.6-8.95-15.24c-0.09-2.57-0.61-5.26,0.93-7.71c0.54-0.86,0.94-1.72,2.02-1.96
		c-1.1,3-2.47,5.89-2.06,9.29c0.28,2.32,1.25,4.28,2.03,6.4c1.11,3.02,3.62,4.78,5.42,7.15C121.31,148.61,121.37,149.26,121.39,150z
		"/>
	<path class="st2" d="M177.9,259.89c0.84-3.57,0.51-7.21,0.42-10.81c-0.04-1.69-1-3.26-2.07-4.58c-0.62-0.76-1.01-1.46-0.86-2.43
		C180.52,246.2,181.31,255.1,177.9,259.89z"/>
	<path class="st2" d="M5.36,241.35c0.02,1.13-0.07,2.25,0.83,3.19c0.31,0.33,0.22,0.99-0.25,1.29c-0.43,0.28-1.2,0.27-1.28-0.19
		c-0.36-2.18-1.53-0.69-2.38-0.61C2.9,243.46,3.91,242.22,5.36,241.35z"/>
	<path class="st3" d="M151.44,86.56c0.77-1.94,1.52-3.89,2.95-5.48C154.48,83.49,154.5,85.85,151.44,86.56z"/>
	<path class="st2" d="M0.85,257.07c1.47,1.29,3.02,2.53,2.56,4.84C1.97,260.6,1.21,258.94,0.85,257.07z"/>
	<path class="st2" d="M7.31,265.08c2.29-0.15,4.29,0.59,6.05,2.02C11.1,267.17,9.08,266.48,7.31,265.08z"/>
	<path class="st2" d="M0.53,256.11c0.11,0.32,0.22,0.65,0.34,0.97C0.54,256.84,0.45,256.5,0.53,256.11z"/>
	<path class="st4" d="M149.57,237.84c-2.33,0.05-4.66,0.15-6.99,0.15c-36.31,0.01-72.62,0.01-108.93,0c-1,0-1.99-0.09-2.99-0.14
		c0.6-7.1,1.28-14.21,2.76-21.18c1.95-9.15,3.42-18.47,9.89-25.97c6.83-7.92,15.24-12.33,25.77-12.6
		c6.56-0.17,13.91-7.56,13.69-14.42c-0.36-11.07,0.03-22.16-0.53-33.21c-0.35-6.92-3.39-13.08-7.58-18.59
		c-5.31-6.99-11.99-12.64-18.35-18.6c-3.02-2.83-5.99-5.72-8.49-9.04c-0.44-0.59-1.09-1.2-0.73-1.97c0.44-0.94,1.3-0.32,2-0.31
		c2.75,0.03,5.5,0.03,8.25,0.03c22,0,44,0.02,65.99-0.02c2.89-0.01,5.79,0.24,8.66-0.3c0.49-0.09,1.08-0.13,1.38,0.33
		c0.5,0.76-0.25,1.28-0.62,1.71c-3.09,3.7-6.49,7.09-10,10.38c-6.42,6.01-13.19,11.68-18.43,18.84c-3.99,5.45-6.59,11.61-6.84,18.33
		c-0.39,10.74,0.04,21.5-0.28,32.24c-0.2,6.61,7.33,14.49,14.6,14.73c11.78,0.39,20.75,6.17,27.31,15.83
		c4.42,6.51,5.6,14.12,7.19,21.55c1.23,5.75,2.28,11.57,2.17,17.53C148.46,234.69,149.19,236.27,149.57,237.84z"/>
	<path class="st2" d="M167.01,239.81c-5.08,0-10.16,0-15.25,0c0-0.15,0-0.3-0.01-0.45c5.08,0,10.17,0,15.25,0
		C167.01,239.51,167.01,239.66,167.01,239.81z"/>
	<path class="st2" d="M27.01,239.83c-3.75,0-7.5,0-11.24,0c0-0.17-0.01-0.33-0.01-0.5c3.75,0,7.5,0,11.25,0
		C27.01,239.5,27.01,239.67,27.01,239.83z"/>
</g>
</svg>
