<svg id="Calque_1" data-name="Calque 1" xmlns="http://www.w3.org/2000/svg" viewBox="0 0 230.6 382.77"><defs><style>.cls-1{fill:none;stroke:#63b779;stroke-linecap:round;stroke-miterlimit:10;stroke-width:3px;stroke-dasharray:10 15;}.cls-2{fill:#fff;}.cls-3{fill:#63b779;}</style></defs><title>tracé parcours long vert</title><path class="cls-1" d="M170.56,577c-1.13-12.89-2.85-29.65-3.39-49.2-6.36-228.34,2-282.33,16.62-306.69,10.7-17.85,41.45-18.58,57.32-9.74C261,222.42,261.75,254,262.9,292.16c5.36,177.28,13.18,186.91-4,201.21C225.62,521,143.36,530.19,97.23,514c-12.74-4.47-46.77-3.07-48.73-26.94-7.44-90.74-14.37-176.37,12.61-260.83,4.93-15.42,44.68-34,72.81-12.61,32.05,24.43,7.26,78.07,8.77,187.05" transform="translate(-40.31 -202.43)"/><rect class="cls-2" x="163.56" y="569.63" width="13.86" height="13.86" transform="translate(-89.32 -185.61) rotate(-4.94)"/><path class="cls-3" d="M179.13,583.83l-1.37-15.91-15.91,1.38,1.38,15.9Zm-3.29-13.63,1,11.72-11.72,1-1-11.72Z" transform="translate(-40.31 -202.43)"/><polygon class="cls-3" points="102.78 214.12 93.16 191.94 102.42 197.05 111.45 191.55 102.78 214.12"/></svg>