<?xml version="1.0" encoding="utf-8"?>
<!-- Generator: Adobe Illustrator 23.0.6, SVG Export Plug-In . SVG Version: 6.00 Build 0)  -->
<svg version="1.1" id="Calque_1" xmlns="http://www.w3.org/2000/svg" xmlns:xlink="http://www.w3.org/1999/xlink" x="0px" y="0px"
	 viewBox="0 0 227.83 201.09" style="enable-background:new 0 0 227.83 201.09;" xml:space="preserve">
<style type="text/css">
	.st0{fill:#FEFCEF;}
	.st1{fill:#ED896A;}
	.st2{fill:#ADDAF1;}
	.st3{fill:#8EC1DB;}
	.st4{fill:#DB7F61;}
	.st5{fill:#A2D3EB;}
	.st6{fill:#D38E77;}
	.st7{fill:#E48466;}
	.st8{fill:#CBD8E2;}
	.st9{fill:#FDFCF9;}
	.st10{fill:#FEFEFD;}
	.st11{fill:#FEF1CA;}
	.st12{fill:#B3462A;}
	.st13{fill:#FCF3DD;}
	.st14{fill:#FDF1CC;}
	.st15{fill:#C5DBAB;}
</style>
<g>
	<path class="st0" d="M5.48,136.9c0.16,0.15,0.33,0.3,0.49,0.45l0.01,0.01c0.01,1.01,0.42,1.57,1.52,1.38
		c0.7,1.21,1.8,1.97,2.98,2.63c0.87,0.98,1.54,2.19,2.98,2.47l0.04,0.04c0.3,1.7,1.89,2.05,3.02,2.89c0.21,0.5,0.53,0.88,1.05,1.08
		c0.14,0.13,0.28,0.26,0.42,0.39l0.1,0.06c0.34,0.95,1.03,1.57,1.92,1.99c2.1,2.33,4.13,4.74,6.34,6.97
		c1.62,1.63,2.94,3.63,5.12,4.65c0.1,1.03,0.95,1.52,1.55,2.19c4.6,5.13,9.73,9.72,14.81,14.36c7.57,6.9,15.29,13.55,24.18,18.83
		c8.42,5,16.46,5.23,24.64-0.09c6.06-3.94,11.49-8.69,16.77-13.59c4.86-4.5,9.83-8.86,14.94-13.08c1.88-1.55,4.05-2.76,5.61-4.7
		c1.35,0.26,2.11-0.62,2.94-1.44c1.34-1.33,2.52-2.96,4.45-3.41c1.75-0.42,2.69-1.43,3.14-3.06c2.31-0.58,3.95-2.35,5.99-3.41
		c2.87-1.49,5.56-3.63,8.6-4.44c3.57-0.95,6.75-2.82,10.41-3.62c3.38-0.74,6.79-1.78,10.19-2.47c4.2-0.85,8.22-2.05,12.15-3.66
		c4.96-0.83,9.53-2.87,13.96-5.07c4.51-2.24,8.67-5.2,12.37-8.64c2.8-2.61,6.22-4.76,7.5-8.71c1-0.57,1.04-1.58,1.16-2.56
		c1.92-4.91,1.09-7.91-2.97-11.15c-2.57-2.05-5.06-4.2-7.58-6.31c-0.11-0.12-0.22-0.24-0.33-0.36l-0.11-0.09
		c-0.57-0.83-1.19-1.59-2.33-1.62c-0.34-0.33-0.68-0.65-1.02-0.98c-1.87-3.24-5.3-4.88-7.76-7.53c-0.58-0.62-1.19-1.46-2.27-1.37
		l-0.06-0.06c-1.07-2.47-3.46-3.51-5.41-5.04c-0.7-1.19-1.76-1.95-3.01-2.48c-4.03-4.6-9.39-7.47-14.26-10.96
		c-6.52-4.67-13.32-8.94-20.36-12.77c-3.73-2.03-7.44-4.26-11.76-4.98c-1.84-0.97-0.01-2.63-0.72-3.81
		c0.03-0.35,0.06-0.71,0.08-1.06c0.69-0.26,0.67-0.85,0.69-1.43c0.17-4.37,0.28-8.74-0.68-13.04c-0.25-1.11,0.4-2.56-1.02-3.32
		l-0.06-0.13c0.16-1.05-0.16-1.94-0.86-2.71c0.06-0.1,0.05-0.2-0.04-0.28c0.03-0.17,0-0.33-0.08-0.48
		c-3.08-8.72-8.99-14.98-17.11-19.14c-3.03-1.55-6.07-3.5-9.79-2.98c-0.16-0.6-0.66-0.64-1.16-0.74c-4.82-0.91-9.64-0.6-14.31,0.6
		c-3.87,0.99-7.81,2.1-11.02,4.74l-0.05,0.02C89,6.3,87.47,8.07,85.92,9.8l0.01-0.01c-1,0.34-1.85,0.84-2.02,2.01l0.02-0.02
		c-2.88,1.35-4.45,3.87-5.81,6.57c-0.05,0.17-0.09,0.34-0.14,0.51c-0.95,0.34-1.39,1.23-1.74,2.01c-1.34,3.02-2.94,6-3.69,9.18
		c-0.99,4.21-1.54,8.57-0.62,12.93c0.02,0.46,0.04,0.92,0.06,1.38c-0.15,3.19,0.51,6.2,1.94,9.05c-0.01,0.16,0.03,0.31,0.12,0.44
		c-0.14,1.03,0.29,1.96,0.65,2.86c1.34,3.35,2.75,6.67,4.13,10c-3.07,0.68-6.31,0.87-8.8,3.17c-1.95-0.01-3.52,0.95-5.06,2
		c-1.01,0.29-2.51-0.78-2.94,1.08c-3.64,1.39-7.42,2.47-10.61,4.84c-3.16,0.87-5.94,2.44-8.45,4.53c-1.02,0.2-1.91,0.61-2.46,1.55
		c-2.12-0.52-2.89,1.81-4.58,2.2c-3.02,1.63-6.12,3.15-8.5,5.73c-0.8,0.08-1.58,0.18-1.91,1.08c-0.75,0.03-1.22,0.43-1.52,1.09
		c-0.94,0.07-1.37,0.81-1.9,1.43l-0.07,0.08c-1.16,0.34-2.11,0.98-2.81,1.97c-1.9,1.53-3.8,3.07-5.71,4.6
		c-2.07,1.07-3.17,3.06-4.51,4.81c-1.74,1.37-2.89,3.21-4.03,5.06c-3.41,4.34-5.52,9.15-4.89,14.77c0.35,3.1,1.22,6.11,3.81,8.24
		c0.11,0.65,0.43,1.15,1.04,1.44c0,0,0.02,0.02,0.02,0.02c0.15,0.16,0.31,0.32,0.46,0.48C5.44,136.86,5.48,136.9,5.48,136.9z"/>
	<path class="st1" d="M145.01,23.85c0.08,0.09,0.09,0.18,0.04,0.29c0.14,0.95-0.7,2.21,0.86,2.71c0,0,0.06,0.13,0.06,0.13
		c0.45,5.92,0.95,11.85,1.01,17.79c-0.03,0.35-0.06,0.71-0.08,1.06c-0.22-0.48-0.44-0.96-0.88-1.91c-0.05,2.53,0.24,4.64-1.02,6.45
		c-0.75-0.41-1.2-0.94-0.51-1.74c0.6-0.7,0.51-1.53,0.5-2.34c0-0.7-0.08-1.37-1.01-1.35c-0.93,0.02-0.96,0.73-0.97,1.4
		c-0.01,1.15-0.05,2.3,0.02,3.45c0.07,1.34,0.75,1.75,1.96,1.06c0.31,1.79-1.28,3.19-1.03,4.97c-1.32,0.23-2.82-0.45-3.93,0.79
		c-0.34,0.37-0.69,0.84-0.33,1.29c0.46,0.58,0.9,0.1,1.14-0.29c0.54-0.87,1.36-0.74,2.17-0.72c0,0.32-0.01,0.63-0.01,0.95
		c-0.96,0.63-1.92,1.26-2.94,1.93c1.13,1.14,2.01,0.01,2.91,0.16c0.03,0.48,0.05,0.97,0.08,1.45c-0.18,0.33-0.35,0.66-0.52,0.99
		c-1.39-0.58-2.78-1.16-4.2-1.75c-0.07,0.54,0.04,1.2-0.23,1.44c-2.06,1.86-1.32,2.72,1.02,3.07c0.63,0.1,0.9,0.5,0.67,1.03
		c-0.25,0.6-0.87,0.87-1.44,0.55c-1-0.56-1.92-1.25-2.87-1.88c0.06-1.09,0.16-2.33-1.09-2.76c-0.83-0.28-1.56,0.28-1.91,1.19
		c-3.16,8.2-8.07,15.42-13.01,22.58c-1.81,2.63-3.93,5.16-6.9,6.71c-0.18-0.52,0.27-1.53-0.75-1.39c-0.86,0.11-0.69,0.88-0.42,1.52
		c0.09,0.21,0.08,0.47,0.12,0.7c-1.24-0.94-3.51,0.05-4.1-2.35c-0.33,1.63-0.36,3.4-2.97,2.59c0.93,1.72,1.96,2.47,3.56,2.26
		c0,0.66,0,1.33,0,1.99c-1.1,0.28-2.02,0.71-2.64-1c-0.74-2.04-3.75-3.27-6.04-2.93c-0.39-0.28-0.86-0.49-1.16-0.85
		c-3.06-3.55-6.1-7.13-9.14-10.7c-2.13-3.22-4.84-6.04-6.52-9.57c-0.39-1.07-1.56-1.77-1.48-3.06c-0.07-1.69,0.29-3.4-1.34-4.76
		c-1.73-1.46-2.2-3.24-0.76-5.38c0.32-0.47,1.1-2.6-0.25-2.4c-3.32,0.49-2.23-1.89-2.67-3.32c0.04-0.55-0.07-1.27,0.57-1.47
		c1.88-0.59,0.76-1.62,0.44-2.54c0.5-0.17,1-0.34,1.5-0.51c0.2,0.7,0.35,1.43,0.63,2.09c0.23,0.54,0.77,1.17,1.23,0.38
		c1.21-2.06,2.28-0.5,3.41-0.01c0.38,0.27,0.76,0.54,1.14,0.81c-0.06,0.1-0.04,0.18,0.07,0.23c-0.01,0.67,0.39,0.97,0.98,1.11
		c2.28,3.5,5.6,5.9,9.16,7.76c10.83,5.63,21.06,3.25,30.87-2.89c5.37-2.88,8.96-7.27,11-12.97c1.5-3.41,1.45-7.04,0.89-10.53
		c-0.92-5.7-3.73-10.38-8.77-13.51c-1.99-2.39-4.87-3.36-7.57-4.53c-7.82-3.39-15.72-4.49-23.71-0.37
		c-3.41,1.75-6.29,4.19-9.25,6.56c-1.71,0.52-3.28,1.17-3.06,3.43l0.02-0.01c-0.52-0.01-1.04-0.02-1.55-0.03
		c0.14-1.08-0.21-2.12,1.06-3.06c1.25-0.92,2.42-2.34,2.17-4.28c-0.04-0.29,0.23-0.81,0.77-0.86c0.81,0.13,0.16,1.73,1.27,1.42
		c0.87-0.24,1.25-1.04,1.22-1.97c-0.01-0.25,0-0.5,0-0.75c0.6-0.05,1.18-0.2,1.3-0.89c0.06-0.4-0.31-0.59-0.65-0.52
		c-0.78,0.17-0.62,0.85-0.66,1.4c-0.44-0.09-1.39,0.03-1.15-0.48c0.54-1.15,1.24-2.48,2.59-2.78c0.81-0.17,1.53,0.58,1.35,1.62
		c-0.09,0.52-0.3,1.08,0.55,0.9c0.45-0.09,1.25-0.5,0.94-0.9c-1.62-2.13,0.75-2.82,1.57-4.09c-1.07-0.43-2.59-0.01-2.33-1.76
		c0.88,0.06,1.82-0.24,2.57,0.55c0.43,0.45,1.14,0.68,1.52,0.14c0.48-0.69,0.01-1.47-0.5-1.96c-0.47-0.45-1.56-0.15-1.59-1.23
		c0.66,0,1.33,0,1.99-0.01v0c0.49,1.53,2.24,0.52,3.01,1.49c-1.04,0.85-1.27,1.99-0.98,3.42c1.18-2.76,4.99-2.82,5.63-6.39
		c-0.09-0.6-1.36,0.71-1.4-0.2c-0.03-0.67,0.7-1.2,1.38-1.24c1.75-0.1,1.97-1.21,1.88-2.59c0.49,0,0.99,0,1.48,0
		c0.48,0.95-1.46,2.67,0.39,2.87c3.41,0.36,6.88,0.1,10.78,0.1c-1.78-2.52-3.6-2.05-5.48-1.66c-1.73,0.35-3.44,0.28-4.67-1.3
		c0.48-0.13,0.52-1.09,1.38-0.6c2.19,1.23,4.43,0.8,6.65,0.02c3.72-0.52,6.76,1.43,9.79,2.98c8.12,4.15,14.03,10.41,17.11,19.14
		c-0.05,0.05-0.16,0.14-0.15,0.15C144.84,23.65,144.93,23.75,145.01,23.85z M139.99,53.86c0.24,0.05,0.55,0.02,0.72,0.16
		c0.82,0.68,1.52,0.84,2.27-0.16c0.39-0.52,0.69-1.06,0.28-1.55c-0.69-0.83-1.7-0.52-2.54-0.34c-1,0.21-0.63,1.18-0.73,1.87
		c-0.75,0.09-1.61-0.22-2.16,0.65C138.65,54.71,139.59,55.4,139.99,53.86z M141.68,45.25c-1.23,1.57-2.21,2.76-3.12,4.01
		c-0.26,0.36-0.66,0.88-0.22,1.32c0.47,0.47,1.21,0.39,1.57-0.04C141.07,49.14,142.34,47.73,141.68,45.25z M118.86,82.18
		c0.49-0.97,2.04-1.02,2.42-2.31c0.15-0.52-0.44-1.03-0.89-0.89c-1.22,0.38-1.84,1.45-2.3,2.56
		C117.96,81.81,118.19,82.16,118.86,82.18z M78.6,55.77c0.52-1.18,0.66-2.09-0.41-2.69c-0.37-0.21-0.82,0.08-0.97,0.49
		C76.73,54.89,77.92,55.05,78.6,55.77z M109.18,90.72c-0.02,0.07-0.05,0.13-0.07,0.2c0.06,0.02,0.15,0.07,0.17,0.06
		c0.04-0.05,0.05-0.13,0.08-0.2C109.3,90.76,109.24,90.74,109.18,90.72z"/>
	<path class="st2" d="M191.86,140.3c-3.93,1.61-7.96,2.8-12.15,3.66c-3.4,0.69-6.81,1.73-10.19,2.47c-3.66,0.8-6.84,2.66-10.41,3.62
		c-3.05,0.81-5.73,2.95-8.6,4.44c-2.04,1.06-3.68,2.83-5.99,3.41c-1.33-0.2-2.3,0.28-3.33,1.19c-1.95,1.72-4.02,3.35-6.23,4.72
		c-0.96,0.6-0.9,1.22-0.97,2.01c-1.55,1.94-3.73,3.15-5.61,4.7c-5.11,4.22-10.08,8.58-14.94,13.08c-5.29,4.9-10.71,9.65-16.77,13.59
		c-8.18,5.31-16.22,5.09-24.64,0.09c-8.89-5.28-16.61-11.93-24.18-18.83c-5.08-4.64-10.21-9.23-14.81-14.36
		c-0.6-0.67-1.45-1.16-1.55-2.19c0.28-0.15,0.59-0.27,0.85-0.44c0.51-0.35-0.71-1.78,0.8-1.43c1.01,0.23,0.75,1.06,0.4,1.79
		c-0.17,0.34-0.42,0.84,0.2,0.96c0.36,0.07,0.83-0.03,1.16-0.21c0.48-0.28,0.57-0.74,0.26-1.26c-0.57-0.97-1.11-1.95-1.66-2.93
		l0.02-0.02c1.23-0.36,1.72,0.97,2.99,1.19c-2.13-2.12-1.7-4.63-1.53-7.09c1.95,0.97,2.82,2.99,4.3,4.42
		c6.85,6.64,13.48,13.51,20.7,19.77c6.42,5.56,12.89,11.05,20.84,14.33c3.27,1.35,6.74,2.48,10.38,1.5
		c6.41-1.71,11.7-5.42,16.61-9.68c4.56-3.95,8.98-8.07,13.49-12.08c5.52-4.9,11.39-9.37,17.31-13.77
		c6.77-5.04,14.07-9.15,22.01-11.85c5.13-1.75,10.62-2.44,15.94-3.61c0.52,0.62,0.15,1.62,0.91,2.19c0.83-0.44,1.25-1.23,1.1-1.98
		c-0.11-0.57-1-0.23-1.53-0.33c1.91-0.77,3.82-1.57,5.94-1.51c0.28,0.9-0.66,1.41-0.74,2.29c1.17,0.44,2.11,0.26,3.29-0.87
		c-1.25-0.26-1.95-0.77-2.54-1.43c1.91-0.89,3.71-2.13,5.96-2.03c0.13,0.72,1,1.39,1.15,0.8c0.3-1.15,2.85,0.16,1.82-1.89
		c0.24-0.81,0.87-0.89,1.57-0.85c0.37,1.91,0.21,3.57-2.02,4.25c0.06,0.05,0.1,0.12,0.17,0.15
		C191.69,140.28,191.78,140.28,191.86,140.3z"/>
	<path class="st2" d="M147.62,49.64c4.32,0.71,8.03,2.95,11.76,4.98c7.04,3.83,13.84,8.1,20.36,12.77
		c4.88,3.49,10.23,6.37,14.26,10.96c-0.77,0.1-1.43,0.35-1.65,1.37c1.16,0.21,2.45,0,3.2,1.28c0.31,0.53,1.03,0.42,1.46-0.17
		c1.95,1.53,4.34,2.57,5.41,5.04c-1.46-0.11-2.83,0.22-4.17,1.05c1.03,0.46,2.07,0.83,3.14,0.88c1.31,0.06,1.81-0.62,1.09-1.88
		c1.08-0.09,1.69,0.74,2.27,1.37c2.45,2.65,5.89,4.29,7.76,7.53c-0.21,0.09-0.42,0.18-0.63,0.28c1.1,1.1,0.51,2.48,0.63,3.74
		l-0.02,0.02c-1.36-0.01-0.81-1.67-1.59-1.96c-1.21,0.99-2.79,1.45-3.4,2.95c-2.45-0.51-0.9-1.46-0.23-2.27
		c0.36-0.43,1.1-0.88,0.42-1.39c-0.65-0.49-0.94,0.33-1.25,0.78c-0.18,0.27-0.34,0.56-0.89,0.39c0.01-0.64-0.54-1.09-0.81-1.68
		c-0.36-0.79-0.69-1.72-1.74-1.13c-0.83,0.46-0.52,1.29-0.07,1.95c0.93,1.34-0.06,1.31-0.95,1.36c-2.23-0.67-3.21-2.77-4.79-4.19
		c-7.65-6.86-15.51-13.44-23.93-19.35c-6.56-4.6-13.4-8.74-20.37-12.71c-2.59-1.48-5.77-1.71-7.93-3.97
		C145.85,54.98,144.97,51.73,147.62,49.64z"/>
	<path class="st3" d="M212.5,98.84c-0.11-1.26,0.48-2.64-0.63-3.74c0.21-0.09,0.42-0.18,0.63-0.28c0.34,0.32,0.68,0.65,1.02,0.98
		c0.41,1.06,1.19,1.6,2.33,1.62c0,0,0.11,0.09,0.11,0.08c0.08,0.15,0.19,0.27,0.33,0.36c2.53,2.11,5.01,4.26,7.58,6.31
		c4.06,3.24,4.9,6.24,2.97,11.15c-0.9,0.62-1.08-1.9-2.03-0.52c-0.83,1.19-1.9,2.21-2.43,3.62c-0.19,0.5-0.5,0.92,0.08,1.26
		c0.42,0.24,0.78-0.02,1.03-0.41c0.52-0.79,1.11-1.47,2.18-1.39c-1.27,3.95-4.69,6.1-7.5,8.71c-3.7,3.45-7.86,6.4-12.37,8.64
		c-4.43,2.2-8.99,4.25-13.96,5.07c-0.08-0.02-0.17-0.02-0.24-0.05c-0.07-0.03-0.11-0.1-0.17-0.15c2.23-0.67,2.4-2.33,2.02-4.25
		c0.15-0.04,0.29-0.06,0.44-0.06c0.68,0.08,1.02-0.24,1.09-0.89c5.69-3.42,11.1-7.17,15.5-12.23c2.36-2.71,3.94-5.73,4.03-9.36
		c0.07-2.89-0.69-5.51-3.07-7.43c-0.17-0.16-0.34-0.32-0.51-0.48l-0.03-0.01c0.45-1.76,1.75-3.41-0.29-5.25
		c-0.94-0.85-1.18-0.34-1.75,0.01c-0.81,0.49-0.71,0.69,0.02,1.37c0.69,0.63,2.13,1.84,0.11,2.83c-0.89-0.79-2.06-1.29-2.57-2.48
		c0.72-0.48,0.58-1.41,1.05-2.02c0.61-1.5,2.19-1.96,3.4-2.95c0.78,0.29,0.23,1.96,1.59,1.96c0.06,0.32,0.06,0.68,0.48,0.74
		c0.08,0.01,0.28-0.19,0.27-0.28C213.18,98.9,212.82,98.89,212.5,98.84z M214.33,103.55c-0.56,0.2-1.03,0.56-1.12,1.15
		c-0.08,0.51,0.37,0.63,0.81,0.61c0.57-0.02,0.88-0.32,0.91-0.89C214.95,103.99,214.84,103.63,214.33,103.55z M222.17,116.64
		c-0.14-0.04-0.23-0.07-0.32-0.1c0.02,0.06,0.03,0.12,0.05,0.18C221.97,116.7,222.04,116.68,222.17,116.64z M214.25,99.67
		c-0.01,0.12-0.02,0.24-0.03,0.36c0.05-0.05,0.12-0.11,0.13-0.17C214.35,99.8,214.28,99.74,214.25,99.67z"/>
	<path class="st3" d="M33.47,158.36c0.55,0.98,1.09,1.97,1.66,2.93c0.31,0.53,0.21,0.99-0.26,1.26c-0.33,0.19-0.79,0.29-1.16,0.21
		c-0.62-0.12-0.37-0.62-0.2-0.96c0.36-0.73,0.61-1.56-0.4-1.79c-1.51-0.35-0.29,1.08-0.8,1.43c-0.26,0.18-0.56,0.3-0.85,0.44
		c-2.18-1.03-3.5-3.02-5.12-4.65c-2.21-2.23-4.24-4.64-6.34-6.97c0.53-0.83,0.58-1.68-0.1-2.41c-0.78-0.85-1.11,0.67-1.81,0.42
		c0,0-0.1-0.06-0.1-0.06c-0.14-0.13-0.28-0.26-0.42-0.39c-0.52-0.19-0.84-0.58-1.05-1.08c-0.05-1.63,0.64-1.58,1.8-0.87
		c0.77,0.47,1.82,1.18,2.35-0.25c0.44-1.18,0.71-2.51-1.19-2.78c-0.01-0.41,0.01-0.83-0.05-1.24c-0.12-0.73-0.52-1.35-1.31-1.12
		c-1,0.29-0.36,1.02-0.28,1.63c0.16,1.22,0.96,0.81,1.65,0.74c-0.61,1.63-1.43,1.71-2.72,0.57c-1.33-1.17-0.96-2.97-1.89-4.71
		c-0.33,1.28-0.45,2.17-0.79,2.96c-0.32,0.72,1.08,1.88-0.58,2.2c0,0-0.04-0.04-0.04-0.04c-0.14-0.55-0.26-1.1-0.43-1.64
		c-0.24-0.77,0.43-1.91-0.84-2.28c-1.61-0.46-0.01,1.38-0.98,1.4c-0.24,0.01-0.49,0.03-0.73,0.05c-1.19-0.66-2.28-1.42-2.98-2.62
		c-0.39-0.59-0.84-1.11-1.52-1.38c0,0-0.01-0.01-0.01-0.01c-0.16-0.15-0.33-0.3-0.49-0.45c0,0-0.05-0.05-0.05-0.05
		c-0.15-0.16-0.31-0.32-0.46-0.48c0,0-0.02-0.02-0.02-0.02c1.41-1.13,1.79-2.07-0.47-2.51c-0.03-0.33,0.05-0.85-0.11-0.95
		c-1.65-0.93-1.66-0.91,0.29-2.71c-3.24,2-2.02-1.18-3.06-1.75c-0.47-0.26-0.77-0.78-0.37-1.24c0.48-0.57,1.23-0.38,1.87-0.29
		c0.77,0.11,0.6,0.53,0.3,1.05c-0.39,0.7,0.13,0.81,0.67,0.88c1.81,0.26,1.66-0.71,1.19-1.88c-0.25-0.62-0.57-1.36,0.05-1.83
		c0.81-0.6,1.08,0.34,1.52,0.76c0.62,0.58,1.34,0.53,2.31,0.29c-0.61-0.44-1.36-0.52-1.56-1.2c-0.18-0.62,0.05-1.18,0.44-1.61
		c0.65-0.71,0.95,0.28,1.43,0.37c0.72,0.13,1.56,1.03,2.11-0.21c0.6-1.35-0.39-1-1.12-1.06c-0.73-0.06-0.46-0.73-0.5-1.18
		c-0.1-1.07,0.44-1.52,1.47-1.46c0,0,0.05,0.04,0.05,0.04c-0.34,1.65,1.78,0.85,1.97,1.97c-0.15,0.17-0.3,0.34-0.45,0.5
		c-0.37,0.16-0.38,0.33-0.02,0.51c-0.01,0.5-0.02,1-0.03,1.5c-1.22,0.95-1.54,1.72,0.42,2.03c0.03,0.49,0.06,0.97,0.1,1.46
		c-0.15,1.09-1.81,1.91-0.51,3.36c0.35-0.47,0.66-0.9,0.98-1.33c0.47,0.95,1.09,1.84,1.15,2.95c-1.14-0.07-2.28-0.15-3.51-0.23
		c0.18,1.67,3.33,0.36,2.37,2.76c-0.73-0.01-1.44,0.01-1.5,1c-0.55,0.18-0.2-1.64-1.03-0.53c-0.37,0.51-1.48,0.33-1.21,1.3
		c0.07,0.24,0.48,0.57,0.71,0.55c0.78-0.06,1.46-0.36,1.53-1.31c0.73,0.02,1.44-0.01,1.5-1c1.01-0.02,2.02-0.03,3.02-0.05l0.01,0.02
		c-0.31,1.62,0.42,2.22,1.97,2.02c1.09,0.91,2.59,1.37,3.11,2.89c-0.39,0.27-0.79,0.55-1.18,0.82c1.46,0.32,0.34,2.11,1.53,2.64
		c1.19,0.53,1.7-0.65,2.57-0.88c0.15,0.02,0.29,0.07,0.42,0.14c-1.04,0.76,0.69,1.83-0.03,2.22c-3.05,1.68-1.02,2.99-0.01,4.41
		c-0.02-2.35-0.02-2.34,2.29-3.26c0.18-0.07,0.26-0.38,0.38-0.58c1.36,0.63,2.34,1.67,3.06,2.97c0.42,0.89-0.64,3.17,1.92,2.06
		c0.63,0.56,1.26,1.11,1.89,1.67c-0.17,2.47-0.6,4.98,1.53,7.09c-1.27-0.22-1.76-1.55-2.99-1.19c-0.06-0.44,0.14-1-0.45-1.22
		c-0.1-0.04-0.43,0.22-0.45,0.38C32.49,158.15,32.97,158.28,33.47,158.36z M7.82,133.22c2.63-1.83-1.3-3.48,0.28-5.16
		C5.35,129.61,7.42,131.37,7.82,133.22z M32.75,152.76c0.04,1-0.71,1.99-0.07,2.96c0.04,0.07,0.7-0.09,0.84-0.3
		C34.21,154.39,33.42,153.61,32.75,152.76z M29.68,152.54c-0.85,0.86-0.78,1.45-0.26,2.27C30.13,154.02,30.08,153.43,29.68,152.54z
		 M11.29,130.06c-0.14-0.1-0.32-0.22-0.51-0.35c-0.08,0.13-0.24,0.29-0.21,0.38c0.06,0.2,0.2,0.47,0.36,0.51
		C11.21,130.66,11.32,130.42,11.29,130.06z M16.27,137.71c-0.14-0.06-0.28-0.12-0.42-0.18c-0.06,0.14-0.2,0.31-0.16,0.41
		c0.04,0.1,0.25,0.13,0.39,0.19C16.16,137.99,16.22,137.85,16.27,137.71z M10.4,127.71c0.15-0.07,0.29-0.13,0.42-0.2
		c-0.07-0.11-0.13-0.23-0.22-0.32c-0.01-0.01-0.18,0.06-0.19,0.11C10.38,127.43,10.4,127.57,10.4,127.71z"/>
	<path class="st4" d="M90.49,17.36c0,0.25-0.01,0.5,0,0.75c0.02,0.93-0.36,1.72-1.22,1.97c-1.11,0.31-0.46-1.29-1.27-1.42
		c-0.54,0.06-0.81,0.57-0.77,0.86c0.24,1.94-0.92,3.36-2.17,4.28c-1.28,0.94-0.92,1.98-1.06,3.06c0,0,0,0,0,0
		c-3.53,0.38-3.52,0.38-1.78,3.12c0.3,0.47,0.6,1.23-0.07,1.49c-0.45,0.17-0.92,1.32-1.59,0.29c-0.22-0.33-0.33-0.9-0.81-0.49
		c-0.24,0.2-0.26,0.78-0.21,1.16c0.19,1.4,1.37,2.26,1.98,3.44c-0.82,1.25-0.25,2.7-0.6,4.01c-0.77,0.93-0.29,2.03-0.42,3.05
		c-0.05,0.37,0.05,1.13-0.34,0.98c-2.09-0.77-1.9,0.79-2.15,1.94c-1.47,0.36-0.9,1.23-0.9,2.35c1.13-0.84,0.81-1.65,0.9-2.35
		c1.59,0.33,0.79,1.61,1,2.5c0,0.17,0,0.34,0,0.5c-0.17,0.16-0.33,0.33-0.5,0.49c-0.5,0.17-1,0.34-1.5,0.51
		c-1.86-1.27-2.5-2.91-1.45-5.01c0.19-0.37,0.53-0.68,0.21-1.1c-0.26-0.35-0.56-0.1-0.87-0.01c-2.08,0.59-2.44,0.22-1.91-1.89
		c0-0.5,0.01-1.01,0.01-1.51c0.45-0.07,1.17,0.2,1.22-0.46c0.05-0.68-0.77-0.73-1.23-1.03c0.02-2.5,0.04-5.01,0.06-7.51
		c0.53-0.37,0.44-0.93,0.45-1.46c0.7-1.79,0.9-3.84,2.28-5.28c1.57-1.63,2.35-3.49,2.22-5.74c0.05-0.17,0.09-0.34,0.14-0.51
		c2.96-1.28,4.51-3.81,5.81-6.57c0,0-0.02,0.02-0.02,0.02c1.64,0.3,2.3-0.38,2.02-2.01c0,0-0.01,0.01-0.01,0.01
		c2.62-0.21,4.67-1.23,5.56-3.91c0,0,0.05-0.02,0.05-0.02c0.81-0.01,1.63-0.03,2.44-0.04C93.57,7.17,96.04,8.5,94,9.86
		c-0.25,1.75,1.26,1.34,2.33,1.76c-0.82,1.27-3.19,1.96-1.57,4.09c0.31,0.4-0.49,0.81-0.94,0.9c-0.85,0.17-0.64-0.39-0.55-0.9
		c0.18-1.04-0.54-1.8-1.35-1.62c-1.35,0.29-2.05,1.62-2.59,2.78C89.09,17.38,90.04,17.25,90.49,17.36L90.49,17.36z M78.88,23.33
		c-1.05,0.31-2.06,1.78-1.91,1.93c1.16,1.16,0.42,1.48-0.53,2.05c-0.57,0.34-0.17,0.86,0.28,1.15c0.7,0.45,0.97,1.71,2.17,1.25
		c0.68-0.27,0.18-0.82,0.22-1.26C79.24,26.75,79.13,25.06,78.88,23.33z M74.52,31.99c0.61,1.62,1.68,1.48,2.98,1.6
		C76.79,32.17,75.76,32.22,74.52,31.99z M87.48,17.34c-0.28-0.31-0.44-0.59-0.68-0.72c-0.31-0.16-0.68-0.06-0.58,0.38
		c0.06,0.25,0.34,0.49,0.58,0.64C86.9,17.7,87.15,17.49,87.48,17.34z M77.31,30.32c-0.25,0.2-0.41,0.34-0.58,0.48
		c0.15,0.15,0.3,0.42,0.46,0.43c0.17,0.01,0.37-0.21,0.55-0.33C77.61,30.73,77.48,30.56,77.31,30.32z"/>
	<path class="st2" d="M80.99,69.72c-0.08,1.3,1.09,1.99,1.48,3.06c-10.44,3.22-20.29,7.8-30.03,12.7c-1.84,0.92-3.29,2.58-5.45,2.87
		c-1.43-1.07-1.47-0.05-1.51,0.99c-1.42,0.98-2.7,2.21-4.51,2.48c0-0.33-0.01-0.65-0.01-0.98c0.18-0.16,0.35-0.32,0.53-0.48
		c1.72-0.55,2.18-1.98,2.49-3.52c2.52-2.04-0.67-2.66-0.99-4c-0.01-0.18-0.01-0.35-0.02-0.53c2.51-2.08,5.29-3.65,8.45-4.53
		c1.95,0.63,2.66,0.48,4.74-0.86c0.24-0.16,0.65-0.03,0.97-0.1c0.47-0.1,1.19-0.13,1.34-0.42c0.6-1.16,1.19-1.6,2.66-1.26
		c0.75,0.17,2.43-0.7,0.89-2.2c0.43-1.86,1.94-0.79,2.94-1.08c-0.21,0.56-1.16,0.29-1.22,1.2c1.06,0.5,2.09,0.31,2.91-0.44
		c1.33-1.23,3.15-0.69,4.61-1.45c0.52-0.27,1.56,1.41,1.89,0.03c0.24-0.99-1.23-0.72-1.94-1.01c-0.38-0.16-0.79-0.22-1.19-0.33
		c2.48-2.3,5.73-2.49,8.79-3.17C79.83,67.52,79.68,69.14,80.99,69.72z M46.87,86.02c-0.33,0.09-0.6,0.28-0.56,0.64
		c0.04,0.36,0.35,0.55,0.68,0.48c0.17-0.04,0.37-0.3,0.4-0.48C47.44,86.32,47.26,86.06,46.87,86.02z"/>
	<path class="st3" d="M5,111.91c1.13-1.85,2.28-3.69,4.02-5.06c0.78-0.18,1.91,1.22,2.3-0.17c0.31-1.09,1.28-1.45,1.67-2.33
		c1.93-0.49,1.04,1.87,2.54,2.43c-1.26-2.78,1.38-3.07,2.17-4.73c0.86,2.34-0.29,3.7-1.55,5.09c-0.31,0.34-0.89,0.98-0.24,1.5
		c0.5,0.4,0.84-0.15,1.23-0.45c1.2-0.92,2.48-1.28,3.85-0.32c-2.64,3.65-5.22,7.33-7.02,11.49c-0.57-0.35-1.24-2.38-1.67,0.1
		c-0.03,0.18-0.52,0.28-0.79,0.42c0,0-0.05-0.04-0.05-0.04c-0.03-1.22-0.98-1.72-1.84-1.54c-1.15,0.24-0.68,1.63-1.08,2.45
		c-0.25,0.53,0.13,1.55-0.89,1.43c-0.91-0.11-0.62-1.02-0.65-1.64c-0.03-0.57-0.05-1.16,0.45-1.62c0.69-0.63,0.31-1.25-0.19-1.7
		c-0.54-0.5-1.11,0.03-1.61,0.23c-0.83,0.32-0.76,1.02-0.37,1.64c0.33,0.53,1.15,1.06,0.2,1.58c-0.76,0.41-0.88-0.42-1.12-0.93
		c-0.28-0.59-0.76-1-1.36-0.49c-0.6,0.5-0.7,1.12,0.14,1.58c0.99,0.53,1.52,1.65,2.68,1.87c-0.35,1.1-1.92,0.91-1.74,2.12
		c0.11,0.76-0.03,1.19-0.85,0.98c-0.93-0.23-0.32-0.87-0.33-1.39c-0.02-0.74,1.25-1.75,0.13-2.13c-2.91-0.98-1.1-2.48-0.56-3.77
		c0.2-0.47,0.65-0.74,0.73-1.42c0.24-2.25,1.8-2.07,3.41-1.59c0.63,0.19,1.25,0.39,1.87,0.59c0.34,0.11,0.69,0.14,0.86-0.21
		c0.19-0.38,0.23-0.87-0.11-1.15c-0.37-0.3-0.88-0.44-1.31-0.67c-0.44-0.23-0.96-0.46-0.79-1.09c0.18-0.66,0.72-0.59,1.21-0.4
		c0.94,0.37,1.15-0.39,1.72-0.82c0.72-0.54,0.94-1.48,1.73-1.83c0.58-0.26,1.91,0.12,1.48-0.99c-0.46-1.18-1.55-0.32-2.34-0.01
		c-1.29,0.5-1.61,2.13-3.04,2.56c-0.67,0.2-2.15-0.36-1.78,1.37c0.05,0.23-0.56,0.51-0.78,0.24C5.07,112.78,5.09,112.3,5,111.91z
		 M12.37,116.69c0-0.35-0.11-0.63-0.49-0.7c-0.36-0.06-0.64,0.05-0.75,0.42c-0.14,0.49,0.11,0.79,0.58,0.83
		C12.04,117.26,12.32,117.07,12.37,116.69z"/>
	<path class="st5" d="M5,111.91c0.09,0.39,0.07,0.87,0.3,1.15c0.22,0.27,0.83-0.01,0.78-0.24c-0.36-1.73,1.11-1.17,1.78-1.37
		c1.43-0.43,1.75-2.06,3.04-2.56c0.8-0.31,1.88-1.17,2.34,0.01c0.44,1.11-0.89,0.72-1.48,0.99c-0.79,0.35-1,1.29-1.73,1.83
		c-0.57,0.43-0.78,1.19-1.72,0.82c-0.48-0.19-1.03-0.26-1.21,0.4c-0.17,0.63,0.34,0.86,0.79,1.09c0.44,0.23,0.94,0.37,1.31,0.67
		c0.35,0.28,0.3,0.77,0.11,1.15c-0.17,0.35-0.52,0.32-0.86,0.21c-0.62-0.21-1.24-0.41-1.87-0.59c-1.61-0.48-3.17-0.66-3.41,1.59
		c-0.07,0.68-0.53,0.96-0.73,1.42c-0.55,1.29-2.35,2.8,0.56,3.77c1.12,0.38-0.14,1.38-0.13,2.13c0.01,0.52-0.6,1.16,0.33,1.39
		c0.82,0.2,0.96-0.22,0.85-0.98c-0.18-1.21,1.39-1.02,1.74-2.12c-1.15-0.22-1.68-1.33-2.68-1.87c-0.85-0.46-0.75-1.07-0.14-1.58
		c0.61-0.51,1.09-0.1,1.36,0.49c0.24,0.51,0.36,1.35,1.12,0.93c0.95-0.52,0.13-1.05-0.2-1.58c-0.39-0.63-0.45-1.32,0.37-1.64
		c0.5-0.2,1.07-0.73,1.61-0.23c0.5,0.46,0.88,1.07,0.19,1.7c-0.49,0.46-0.48,1.04-0.45,1.62c0.03,0.62-0.26,1.53,0.65,1.64
		c1.02,0.12,0.64-0.9,0.89-1.43c0.4-0.83-0.07-2.21,1.08-2.45c0.87-0.18,1.82,0.32,1.84,1.54c-1.03-0.06-1.58,0.39-1.47,1.46
		c0.04,0.44-0.22,1.12,0.5,1.18c0.73,0.06,1.72-0.29,1.12,1.06c-0.55,1.24-1.4,0.34-2.11,0.21c-0.49-0.09-0.79-1.07-1.43-0.37
		c-0.39,0.43-0.63,0.98-0.44,1.61c0.2,0.67,0.95,0.76,1.56,1.2c-0.97,0.24-1.69,0.29-2.31-0.29c-0.44-0.41-0.72-1.36-1.52-0.76
		c-0.63,0.47-0.3,1.21-0.05,1.83c0.47,1.18,0.61,2.14-1.19,1.88c-0.54-0.08-1.07-0.18-0.67-0.88c0.29-0.52,0.46-0.94-0.3-1.05
		c-0.64-0.09-1.39-0.28-1.87,0.29c-0.4,0.46-0.1,0.98,0.37,1.24c1.04,0.57-0.18,3.75,3.06,1.75c-1.95,1.8-1.94,1.78-0.29,2.71
		c0.16,0.09,0.08,0.62,0.11,0.95c0,0-0.01,0.01-0.01,0.01c-0.83-0.01-0.81,0.4-0.48,0.96l-0.09,0.11c-2.59-2.14-3.46-5.14-3.8-8.24
		C-0.52,121.07,1.59,116.25,5,111.91z"/>
	<path class="st6" d="M93.97,5.82c-0.81,0.01-1.63,0.03-2.44,0.04c3.21-2.64,7.15-3.74,11.02-4.74c4.67-1.2,9.49-1.51,14.31-0.6
		c0.5,0.09,1,0.13,1.16,0.74c-2.22,0.78-4.46,1.21-6.65-0.02c-0.86-0.48-0.9,0.47-1.38,0.6c-0.34,0-0.68,0-1.02,0
		c-0.49,0-0.99,0-1.48,0c-2.4,0.42-5.29,0.16-7.09,1.44c-1.99,1.41-3.82,1.52-5.91,1.57c-0.17,0.17-0.34,0.34-0.5,0.52
		C93.99,5.52,93.98,5.67,93.97,5.82z"/>
	<path class="st5" d="M41.49,90.37c-0.18,0.16-0.35,0.32-0.53,0.48c-1.3-0.69-2.43-0.63-2.93,0.93c-0.3,0.93-0.82,1.3-1.6,0.86
		c-0.63-0.35-1.16-1.01-0.42-1.81c0.37-0.4,0.61-0.82,0.12-1.25c-0.36-0.32-0.82-0.2-1.12,0.08c-1.04,0.97-2.32,0.61-3.52,0.68
		c0.87-0.9,1.9-1.4,3.15-1.66c1.39-0.29,2.15-1.12,1.31-2.63c1.69-0.39,2.45-2.71,4.58-2.2c1.13,0.68-1.03,2.97,1.46,2.97l0.01,0.01
		C42.27,88.09,40.2,88.99,41.49,90.37z M38.7,86.65c-0.91,0.33-0.8,1.48-1.45,2.1c-0.33,0.32,0.44,0.83,0.68,0.71
		c0.82-0.4,1.04-1.33,1.39-2.1C39.44,87.08,39.15,86.75,38.7,86.65z"/>
	<path class="st4" d="M80.99,69.72c-1.31-0.58-1.16-2.21-2.16-3.01c-1.38-3.33-2.78-6.66-4.13-10c-0.36-0.9-0.79-1.83-0.65-2.86
		c0.64,0,1.28,0.01,1.92,0.01c0.44,1.43-0.65,3.8,2.68,3.32c1.35-0.2,0.57,1.94,0.25,2.4c-1.45,2.14-0.97,3.92,0.76,5.38
		C81.28,66.33,80.92,68.04,80.99,69.72z"/>
	<path class="st3" d="M13.53,102.04c1.9-1.53,3.8-3.07,5.7-4.6c1.59,2.49,3.18,4.97,4.77,7.46c-0.02,0.15-0.06,0.3-0.11,0.45
		c-0.14,0.16-0.28,0.32-0.42,0.47c-0.2,0.17-0.4,0.33-0.6,0.5c-2.44-0.2-3.16-1.15-2.98-3.57c0.08-1.08,0.89-2.58-1.83-2
		c-1.98,0.42-2.31,2.51-4.09,2.63C13.48,103.04,13.52,102.54,13.53,102.04z"/>
	<path class="st6" d="M72.97,40.34c0,0.5-0.01,1.01-0.01,1.51c-0.71,0.04-0.94,0.52-1.03,1.13c-0.92-4.36-0.37-8.72,0.62-12.93
		c0.75-3.18,2.35-6.16,3.69-9.18c0.35-0.78,0.78-1.67,1.74-2.01c0.13,2.25-0.64,4.1-2.22,5.74c-1.39,1.44-1.59,3.49-2.28,5.28
		c-0.56,0.36-0.47,0.92-0.45,1.46c-0.02,2.5-0.04,5.01-0.06,7.51C71.17,39.35,72.87,39.84,72.97,40.34z"/>
	<path class="st5" d="M24.01,104.9c-1.59-2.49-3.18-4.97-4.77-7.46c0.71-0.99,1.65-1.63,2.81-1.97c0.24,0.54,0.5,1.06-0.24,1.47
		c-0.53,0.3-0.96,0.77-0.67,1.42c0.22,0.49,0.68,0.3,1.06,0.11c0.59-0.3,1.35-0.57,1.06-1.41c-0.21-0.63-0.08-1.6-1.15-1.68
		c0.53-0.61,0.96-1.35,1.9-1.43c-0.17,1.48-0.03,2.69,1.96,2.38c0,0,0.01,0.01,0.01,0.01c-1.87,1.25-1.39,3.3-1.76,5.04
		c0.61,0.57,0.99-0.73,1.49-0.17c0.52,0.59-0.02,1.05-0.36,1.5c-0.26,0.35-0.9,0.61-0.31,1.19C24.95,104.5,24.59,104.82,24.01,104.9
		z"/>
	<path class="st7" d="M71.93,42.98c0.09-0.61,0.32-1.09,1.03-1.13c-0.52,2.11-0.16,2.48,1.91,1.89c0.31-0.09,0.61-0.34,0.87,0.01
		c0.32,0.42-0.03,0.73-0.21,1.1c-1.05,2.1-0.41,3.74,1.45,5.01c0.31,0.92,1.44,1.95-0.44,2.54c-0.65,0.2-0.53,0.91-0.57,1.47
		c-0.64,0-1.28-0.01-1.92-0.01c-0.09-0.13-0.13-0.28-0.12-0.44c0.29-3.22-0.6-6.18-1.94-9.05C71.97,43.9,71.95,43.44,71.93,42.98z"
		/>
	<path class="st5" d="M13.5,143.87c1.66-0.33,0.26-1.48,0.58-2.2c0.35-0.79,0.47-1.68,0.79-2.96c0.93,1.73,0.56,3.54,1.89,4.71
		c1.3,1.14,2.11,1.06,2.72-0.57l0,0c1.91,0.27,1.63,1.59,1.19,2.78c-0.53,1.44-1.58,0.73-2.35,0.25c-1.17-0.71-1.85-0.75-1.8,0.87
		C15.39,145.93,13.81,145.57,13.5,143.87z"/>
	<path class="st5" d="M62.04,72.96c1.54,1.5-0.14,2.37-0.89,2.2c-1.47-0.34-2.06,0.1-2.66,1.26c-0.15,0.3-0.87,0.32-1.34,0.42
		c-0.32,0.07-0.73-0.06-0.97,0.1c-2.08,1.34-2.79,1.49-4.74,0.86C54.62,75.43,58.4,74.35,62.04,72.96z"/>
	<path class="st6" d="M147.62,49.64c-2.64,2.08-1.76,5.34-2.67,8c-0.95,0.44-0.91,1.34-1,2.17c-0.31,0.52-0.62,1.03-0.92,1.55
		c-0.03-0.48-0.05-0.97-0.08-1.45c0.01-0.7,0.03-1.39,0.04-2.08c0-0.32,0.01-0.63,0.01-0.95c0.65-0.06,0.98-0.4,0.95-1.07
		c-0.26-1.78,1.34-3.17,1.03-4.97c0.01-0.16,0.01-0.32,0.01-0.48c1.27-1.81,0.97-3.92,1.02-6.45c0.44,0.95,0.66,1.43,0.88,1.91
		C147.61,47.01,145.78,48.68,147.62,49.64z"/>
	<path class="st6" d="M146.98,44.77c-0.06-5.95-0.56-11.87-1.01-17.79c1.42,0.76,0.77,2.21,1.02,3.32
		c0.96,4.29,0.85,8.67,0.68,13.04C147.64,43.93,147.67,44.52,146.98,44.77z"/>
	<path class="st8" d="M133.98,165.81c0.07-0.79,0-1.42,0.97-2.01c2.21-1.37,4.28-2.99,6.23-4.72c1.03-0.91,2-1.39,3.33-1.19
		c-0.45,1.63-1.39,2.65-3.14,3.06c-1.93,0.46-3.11,2.09-4.45,3.41C136.1,165.19,135.33,166.07,133.98,165.81z"/>
	<path class="st3" d="M35.94,86.07c0.84,1.51,0.08,2.34-1.31,2.63c-1.25,0.26-2.28,0.76-3.15,1.66c0,0,0,0,0,0
		c-1.4,0.53-3.11,0.79-2.5,3l0,0c-1.01-0.03-1.45-0.61-1.54-1.55C29.82,89.21,32.92,87.7,35.94,86.07z"/>
	<path class="st3" d="M70.04,69.88c0.4,0.11,0.81,0.17,1.19,0.33c0.71,0.29,2.18,0.02,1.94,1.01c-0.33,1.38-1.37-0.3-1.89-0.03
		c-1.46,0.77-3.29,0.22-4.61,1.45c-0.81,0.75-1.85,0.94-2.91,0.44c0.07-0.91,1.01-0.64,1.22-1.2
		C66.51,70.83,68.08,69.87,70.04,69.88z"/>
	<path class="st6" d="M83.93,11.78c-1.3,2.75-2.85,5.28-5.81,6.57C79.48,15.65,81.05,13.14,83.93,11.78z"/>
	<path class="st5" d="M225.68,117.88c-1.07-0.08-1.67,0.6-2.18,1.39c-0.25,0.38-0.61,0.65-1.03,0.41c-0.58-0.34-0.27-0.76-0.08-1.26
		c0.53-1.41,1.61-2.43,2.43-3.62c0.96-1.37,1.14,1.14,2.03,0.52C226.73,116.29,226.68,117.3,225.68,117.88z"/>
	<path class="st2" d="M13.53,102.04c-0.01,0.5-0.05,1,0.44,1.33c-0.33,0.33-0.66,0.65-0.98,0.98c-0.38,0.88-1.36,1.24-1.67,2.33
		c-0.39,1.39-1.51,0-2.3,0.17C10.36,105.1,11.46,103.11,13.53,102.04z"/>
	<path class="st6" d="M91.48,5.89c-0.88,2.68-2.93,3.7-5.56,3.91C87.47,8.07,89,6.3,91.48,5.89z"/>
	<path class="st6" d="M71.99,44.36c1.35,2.87,2.23,5.83,1.94,9.05C72.5,50.56,71.84,47.55,71.99,44.36z"/>
	<path class="st5" d="M27.44,91.8c0.09,0.94,0.53,1.53,1.54,1.55c-0.07,1.93-0.76,3.24-2.99,3c0,0-0.01-0.01-0.01-0.01
		c0.98-1.3,1.07-2.48-0.44-3.46C25.87,91.98,26.65,91.88,27.44,91.8z"/>
	<path class="st3" d="M25.54,92.88c1.51,0.98,1.43,2.16,0.44,3.46c-2,0.32-2.14-0.9-1.96-2.38C24.32,93.32,24.79,92.91,25.54,92.88z
		"/>
	<path class="st3" d="M197.01,80.83c-0.43,0.59-1.15,0.7-1.46,0.17c-0.75-1.28-2.04-1.07-3.2-1.28c0.23-1.02,0.88-1.27,1.65-1.37
		C195.25,78.88,196.3,79.64,197.01,80.83z"/>
	<path class="st3" d="M41.98,86.85c-2.49-0.01-0.33-2.3-1.46-2.97c0.56-0.94,1.44-1.35,2.46-1.55c0.01,0.18,0.01,0.35,0.02,0.53
		C43.37,84.37,41.61,85.34,41.98,86.85z"/>
	<path class="st5" d="M10.48,141.37c0.24-0.02,0.49-0.05,0.73-0.05c0.97-0.02-0.62-1.86,0.98-1.4c1.27,0.37,0.59,1.51,0.84,2.28
		c0.17,0.54,0.29,1.09,0.43,1.64C12.02,143.55,11.35,142.35,10.48,141.37z"/>
	<path class="st5" d="M18.1,148.29c0.7,0.25,1.03-1.27,1.81-0.42c0.68,0.73,0.63,1.58,0.1,2.41
		C19.13,149.85,18.44,149.24,18.1,148.29z"/>
	<path class="st5" d="M4.49,133.85c2.26,0.44,1.88,1.38,0.47,2.51c-0.61-0.29-0.93-0.79-1.04-1.44c0,0,0.09-0.11,0.09-0.11
		C4.4,134.62,4.47,134.25,4.49,133.85L4.49,133.85z"/>
	<path class="st6" d="M85.94,9.79c0.28,1.62-0.38,2.31-2.02,2.01C84.09,10.63,84.94,10.13,85.94,9.79z"/>
	<path class="st6" d="M145.91,26.85c-1.56-0.5-0.73-1.76-0.86-2.71C145.75,24.91,146.07,25.8,145.91,26.85z"/>
	<path class="st2" d="M215.85,97.42c-1.14-0.02-1.92-0.55-2.33-1.62C214.65,95.83,215.28,96.59,215.85,97.42z"/>
	<path class="st5" d="M5.98,137.36c0.68,0.27,1.13,0.79,1.52,1.38C6.4,138.93,5.99,138.37,5.98,137.36z"/>
	<path class="st6" d="M145.01,23.85c-0.08-0.11-0.17-0.21-0.23-0.32c-0.01-0.02,0.1-0.1,0.15-0.15
		C145.01,23.53,145.04,23.69,145.01,23.85z"/>
	<path class="st2" d="M216.29,97.86c-0.14-0.09-0.25-0.21-0.33-0.36C216.07,97.63,216.18,97.74,216.29,97.86z"/>
	<path class="st5" d="M4.98,136.38c0.15,0.16,0.31,0.32,0.46,0.48C5.28,136.7,5.13,136.54,4.98,136.38z"/>
	<path class="st5" d="M5.48,136.9c0.16,0.15,0.33,0.3,0.49,0.45C5.81,137.2,5.65,137.05,5.48,136.9z"/>
	<path class="st5" d="M17.58,147.84c0.14,0.13,0.28,0.26,0.42,0.39C17.86,148.1,17.72,147.97,17.58,147.84z"/>
	<path class="st9" d="M143.94,59.82c0.09-0.84,0.05-1.73,1-2.17c2.16,2.26,5.34,2.49,7.93,3.97c6.97,3.97,13.8,8.11,20.37,12.71
		c8.42,5.91,16.29,12.48,23.93,19.35c1.58,1.41,2.56,3.52,4.79,4.19c1.15,1.71,2.58,3.13,4.47,4.02c0.5,1.19,1.68,1.69,2.57,2.48
		c0.49,0.62,1.18,0.88,1.92,1.05c0,0,0.03,0.01,0.03,0c0.17,0.16,0.34,0.32,0.51,0.48c2.38,1.91,3.14,4.53,3.07,7.43
		c-0.09,3.63-1.67,6.65-4.03,9.36c-4.4,5.06-9.81,8.81-15.5,12.23c-0.66-0.06-0.98,0.29-1.09,0.9c-0.15,0-0.3,0.02-0.44,0.06
		c-0.7-0.04-1.33,0.04-1.57,0.85c-1.08,0.13-2.24,0.03-2.97,1.09c-2.25-0.1-4.05,1.14-5.96,2.03l-0.01,0.01
		c-2.12-0.06-4.03,0.74-5.94,1.51c-0.17,0.01-0.32,0.05-0.47,0.12c-5.33,1.17-10.81,1.86-15.94,3.61
		c-7.94,2.71-15.24,6.82-22.01,11.85c-5.92,4.41-11.79,8.87-17.31,13.77c-4.51,4.01-8.93,8.12-13.49,12.08
		c-4.91,4.26-10.2,7.97-16.61,9.68c-3.65,0.97-7.11-0.16-10.38-1.5c-7.95-3.28-14.42-8.77-20.84-14.33
		c-7.22-6.26-13.85-13.13-20.7-19.77c-1.48-1.43-2.35-3.45-4.3-4.42c-0.63-0.55-1.26-1.11-1.89-1.66c-0.18-1.11-0.98-1.66-1.92-2.06
		c-0.72-1.29-1.7-2.33-3.06-2.97c-0.41-1.37-1.72-1.89-2.63-2.79c-0.13-0.07-0.27-0.12-0.42-0.14c-0.43-1.48-1.76-1.94-2.92-2.58
		c-0.53-1.51-2.02-1.98-3.11-2.89c-0.49-0.84-1.17-1.48-1.97-2.02c0,0-0.01-0.02-0.02-0.02c-0.63-0.83-0.64-2.13-1.89-2.49
		c-0.06-1.11-0.68-2-1.15-2.95c-0.02-0.71,0.19-1.47-0.47-2.03c-0.03-0.49-0.06-0.97-0.1-1.46c0.04-0.71,0.24-1.46-0.42-2.03
		c0.01-0.5,0.02-1,0.03-1.5c0.01-0.17,0.01-0.34,0.02-0.51c0.15-0.17,0.3-0.34,0.45-0.5c0.79-0.71,0.41-1.65,0.5-2.5
		c1.8-4.16,4.38-7.84,7.02-11.49c0.93-0.15,1.36-0.91,1.89-1.55c0.2-0.17,0.4-0.33,0.6-0.5c0.14-0.16,0.28-0.32,0.42-0.47
		c0.05-0.15,0.09-0.29,0.11-0.45c0.59-0.08,0.94-0.4,1.04-0.99c3.11-1.99,5.68-4.64,8.51-6.97c1.09-0.09,1.9-0.61,2.37-1.62
		c1.83-0.95,3.76-1.76,5.05-3.49c1.81-0.27,3.09-1.5,4.51-2.48c0.5-0.33,1-0.66,1.51-0.99c2.16-0.29,3.61-1.95,5.45-2.87
		c9.73-4.9,19.59-9.48,30.03-12.7c1.67,3.53,4.39,6.35,6.52,9.57c-0.65,4.54-0.43,9.24-2.63,13.49c-0.25,0.49-0.39,1.13-0.33,1.67
		c0.27,2.4-0.47,4.56-1.49,6.64c-0.54,1.1-0.52,2.23-0.58,3.39c-0.08,1.48,0.63,2.21,2.02,2.26c3.27,0.12,6.48,0.36,9.74,0.88
		c7.04,1.11,14.1-0.57,21.17-0.88c0.31-0.01,0.67-0.14,0.92-0.32c2.68-1.99,6.15-1.85,9.08-3.39c1.43-0.75,2.91-1.83,4.6-2.16
		c3.51-0.69,6.29-2.9,9.36-4.5c0.87-0.46,1.24-1.31,0.53-2.29c-3-4.16-3.14-9.81-7.03-13.54c-0.4-0.38-0.35-1.24-0.51-1.88
		c0.23-1.15,0.85-2.08,1.56-2.98c1.47,0.94,1.9,2.65,2.79,3.99c1.64,2.48,3.04,5.16,3.81,8.1c0.07,1.63,0.57,3.04,1.97,4.02l0,0
		c0.08,0.76-0.25,1.89,0.91,1.91c1.05,0.01,2.52,0.87,3.1-0.91c1.71-0.63,3.15-1.76,4.84-2.51c4.62-2.05,9.41-3.65,14.24-4.85
		c4.22-1.05,8.64-1.89,13.1-1.67c0.71,0.03,1.6,0.17,1.76-0.89c0.09-0.64,0.28-1.63-0.39-1.8c-2-0.5-2.69-2.68-4.55-3.28
		c-0.52-1.38-1.88-1.51-2.99-2.01c-0.04-0.16-0.03-0.39-0.14-0.47c-4.09-2.86-8.62-5.06-12.4-8.38c-0.21-0.18-0.64-0.12-0.96-0.17
		c-0.17-0.81-0.32-1.79-1.3-1.86c-1.22-0.09-1.87,0.79-2.21,1.9c-0.1,1.36-1.49,1.19-2.22,1.65c-5.85,3.64-11.95,6.72-19.08,6.84
		c0.28-0.92,0.49-1.87,1.26-2.55c3.45-1.33,6.93-2.58,10.34-4.02c2.25-0.95,4.46-2.06,6.52-3.35c1.16-0.72,2-1.56-0.15-2.79
		c-2.69-1.54-5.41-2.85-8.29-3.92C144.51,61.4,144.06,60.71,143.94,59.82z M36.98,98.84L36.98,98.84c-0.87,0-1.72,0.09-1.91,1.13
		c-0.14,0.8-0.31,1.71,0.92,1.88c1.21,0.9,1.06,2.4,1.47,3.62c0.65,1.94,2.01,2.07,3.11,1.12c3.49-3.02,8.23-4.01,11.51-7.3
		c0.54-0.54,1.24-0.38,1.89-0.46c1.44-0.54,2.39-1.6,3.03-2.95c3.13-0.93,5.46-3.24,8.23-4.79c4.54-2.54,8.96-5.37,14.48-5.24
		c0.71,0.02,1.67,0.32,2.06-0.47c1.35-2.73,1.71-5.63,1.18-8.63c-0.16-0.9-1.14-1.14-1.48-0.66c-1.02,1.44-2.69,0.9-3.97,1.59
		c-3.3,1.77-7.11,2.38-10.43,4.19c-3.15,1.72-6.71,2.74-9.71,4.5c-2.85,1.67-5.87,3.21-8.7,4.93c-1.51,0.91-3.14,2.11-4.91,2.89
		c-1.95,0.86-4,2.21-5.77,3.68C37.35,97.88,37.01,98.2,36.98,98.84z M21.96,112.83c-1.52-0.18-2.18,0.49-1.98,2.01
		c-2.43,3.7-3.36,7.71-3.09,12.17c0.15,2.44,1.09,4.28,2.56,5.98c1.1,1.27,2.58,1.33,3.78,0.29c3.5-3.03,7.31-5.55,11.56-7.33
		c1.2-0.5,1.29-1.09,0.95-2.08c-0.95-2.76-1.23-5.72-1.49-8.54c-0.29-3.19-1.51-6.24-1.3-9.47c0.02-0.66-0.32-0.99-0.97-1.02l0,0
		c-0.26-0.7,0.47-2.55-1.29-1.57c-1,0.56-2.41,1.1-2.71,2.57c-1.99,0.68-2.3,3.03-4,3.99C22.5,110.29,21.87,111.31,21.96,112.83
		L21.96,112.83z M47.96,143.87l0.01,0.01c-0.1,1.51,0.52,2.54,2.01,2.97c1.75,0.47,2.25,2.57,3.99,3.04
		c0.11,0.75-0.3,1.84,0.98,1.89c1.2,0.04,1.33-1,1.54-1.88c1.45-1.05,1.33-2.96,2.35-4.28c2.23-2.89,3.54-6.31,5.34-9.45
		c0.98-1.71,1.35-3.76,2.45-5.25c1.34-1.8,2.19-3.87,3.11-5.76c2.08-4.28,3.41-8.93,5.03-13.43c1.07-2.98,2.51-5.91,3.07-8.98
		c0.56-3.1,2.02-5.84,2.7-8.87c0.4-1.77-0.38-3.38-2.21-2.95c-3.26,0.77-6.69,1.58-9.33,3.59c-4.44,3.37-9.72,5.37-13.9,9.19
		c-2.82,2.58-6.99,3.33-9.89,6.03c-0.24,0.22-0.8,0.1-1.22,0.14c-1.65-0.4-2.54,1.04-3.74,1.65c-1.76,0.9-1.85,3.74-0.3,5.36
		c0.01,0.33,0.02,0.65,0.02,0.98c0,2.03,0,4.07,0.02,6.1c0.01,0.78-0.2,1.71,0.99,1.88c1.4,2.27,0.65,5.11,2.05,7.43
		c1.32,2.19,1.22,4.99,2.83,7.11c0.25,0.33,0.09,0.96,0.12,1.45C45.77,143.37,46.41,144.06,47.96,143.87z M170.99,95.85
		L170.99,95.85c0.13,1.84,0.84,3.12,2.95,3.02c0.03,0.32,0.05,0.64,0.08,0.96c-0.26,1.57,0.42,2.23,1.98,2.01
		c0.23,0.09,0.59,0.12,0.67,0.28c2.46,4.93,4.92,9.86,7.3,14.83c0.35,0.72,1.11,1.26,1.01,2.21c-0.15,1.53,0.8,1.72,2.05,1.74
		c3.99,0.04,7.4-2.04,10.74-3.61c3.69-1.73,7.02-4.43,10.76-6.2c2.11-1.01,1.54-1.82,0.37-2.8c-1.88-1.58-4.05-2.79-5.7-4.67
		c-3.06-3.47-7.21-5.74-10.29-9.24c-0.99-1.12-2.6-1.47-4.28-1.58c-5.76-0.35-11.4,0.71-17.09,1.08c-0.65,0.01-1.37-0.1-1.48,0.84
		C169.95,95.41,170.3,95.78,170.99,95.85z M64.99,176.85L64.99,176.85c1.47,1.57,3.05,1.24,4.97-1.02c0.11-0.62-0.16-1.38,0.55-1.81
		c4.6-2.79,7.61-7.3,11.58-10.76c1.17-1.02,1.05-1.92-0.05-2.88c-1.17-1.02-2.62-1.88-3.58-2.91c-3.19-3.39-7.33-5.62-10.45-9.03
		c-0.82-0.9-2.22-1.09-2.77,0c-0.89,1.77-2.06,3.29-3.13,4.91c-2,3.05-3.38,6.48-6.13,9.07c-2.97,2.79-2.82,3.57,0.22,6.23
		c1.31,1.15,2.46,2.46,3.74,3.65c1.31,1.22,2.46,2.64,4.03,3.56C64.01,176.5,64.34,176.84,64.99,176.85z M121.99,114.86
		c-1.31,0.41-3.08-0.98-3.99,1.01c-3.53,1.28-7.36,0.63-10.91,1.7c-1.31,0.4-2.83,0.65-3.92,0.16c-3.13-1.4-6.35-0.6-9.51-0.89
		c-0.74-0.07-1.53-0.03-2.19-0.31c-3.06-1.29-6.24-0.53-9.36-0.63c-1.27-0.04-2.11,1.08-2.37,2.22c-0.29,1.25,0.92,1.41,1.76,1.95
		c1.41,0.92,3.2,0.71,4.49,1.8c0.07,0.99,0.77,1.01,1.51,0.99c0.16,0.01,0.33,0.01,0.49,0.01c1.36,1.22,2.66,2.53,4.52,2.97
		c0.47,0.14,0.94,0.25,1.39,0.41c2.88,1.05,5.09,3.18,7.61,4.8c3.7,2.39,7.19,5.1,10.8,7.64c2.76,1.95,4.93,4.63,7.69,6.5
		c2.44,1.65,4.4,3.66,6.4,5.74c2.26,2.35,4.72,4.5,7.07,6.73c0.93-0.9-0.04-2.42,1.33-2.71c3.97-0.84,6.65-3.98,10.02-5.85
		c3.65-2.03,7.38-3.65,11.18-5.24c1.84,0.12,3.53-0.1,4.5-1.97c0.66-0.02,1.32-0.04,1.97-0.06c2.13,0.15,4.14-0.02,5.53-1.95
		c1-0.01,2.01,0.08,2.98-0.06c1.44-0.21,2.4-1.04,1.77-2.58c-1.16-2.83-2.5-5.59-3.76-8.38c0.1-1.72-0.29-3.19-2.01-3.99
		c-1.2-0.65-1.07-2.18-2-3c-0.47-1.85-0.69-3.87-2.99-4.51c-0.13-0.46-0.16-1-0.41-1.38c-2.85-4.37-5.82-8.66-8.54-13.1
		c-0.83-1.35-1.77-1.19-2.67-0.77c-2.87,1.35-5.56,3.12-8.49,4.26c-2.69,1.05-4.6,3.83-7.87,3.52c-1.11,0.08-2.35-0.39-3.22,0.72
		c-0.84,1.07-2.04,1.07-3.26,1.35C125.48,112.41,123.64,113.51,121.99,114.86L121.99,114.86z M168.98,98.36
		c0.02-0.74,0.01-1.47-1.02-1.49c-1.21-0.71-2.52-1.47-3.92-0.95c-2.65,0.98-5.29,2.04-7.82,3.32c-1.22,0.62-1.68,1.74-0.34,3
		c0.94,0.88,1.89,1.77,2.34,3.13c0.34,1.02,1.38,1.42,2.6,1.54c2.25,0.22,4.22-0.78,6.09-1.52c1.82-0.72,4.19-1.18,5.05-3.51
		c0.2-2.17-0.79-3.18-2.96-3.03C168.99,98.68,168.98,98.52,168.98,98.36z M107.99,178.36c2.12-0.99,3.85-2.43,5.01-4.49
		c0.29-0.13,0.66-0.2,0.87-0.41c4.29-4.31,8.44-8.76,13.68-12c1.8-1.12,1.93-2.59,0.43-4.1c-3.46-3.48-6.83-7.06-10.54-10.25
		c-1.51-1.3-3.48-1.71-5.92-0.6c-3.62,1.64-6.86,3.96-10.2,5.92c-3.39,1.99-6.98,4.21-9.82,7.28c-1.53,1.66-1.8,2.62-0.02,4.19
		c4.44,3.95,8.45,8.29,11.37,13.54C104.59,180.59,105.44,180.74,107.99,178.36z M102.01,135.83c0.16-1.53-0.5-2.2-2.04-1.95
		c-1.96-0.27-2.98-2.06-4.56-2.86c-4.76-2.4-9.22-5.37-14.21-7.35c-2.63-1.05-3.66-0.99-4.61,1.66c-0.72,2.01-1.7,3.86-2.59,5.78
		c-1.46,3.14-3.2,6.15-4.36,9.45c-0.4,1.14-2.21,1.93-1.51,3.38c0.54,1.12,1.66,2.04,2.67,2.85c2.28,1.85,4.9,3.35,6.93,5.42
		c1.99,2.03,4.56,3.24,6.58,5.22c0.56,0.55,1.79,2.78,3.3,1.25c2.57-2.62,5.62-4.53,8.59-6.6c3.95-2.75,7.55-5.98,12.03-7.96
		c3.11-1.38,3.03-1.53,0.15-3.51c-0.4-0.27-0.61-0.82-1.01-1.09C105.56,138.31,104.23,136.41,102.01,135.83z M87.45,189.93
		c4.08-1.07,7.97-2.11,11.49-4.39c2.41-1.56,3.29-2.27,1.34-5.42c-3.44-5.56-7.44-10.36-12.41-14.52c-1.25-1.05-1.92-0.98-2.84-0.08
		c-4.86,4.76-9.69,9.54-14.51,14.34c-0.67,0.67-0.93,1.57,0.26,1.93c2.76,0.84,4.64,3.03,7.04,4.42
		C80.89,187.96,84.35,188.57,87.45,189.93z M162.11,110.04c2.15,4.7,5.09,8.55,7.32,12.79c1.74,3.31,4.01,6.32,4.89,10.17
		c0.27,1.15,1.58,2.91,2.65,4.22c0.78,0.95,1.82,0.79,2.72,0.33c1.67-0.86,3.23-1.83,5.26-1.8c1.01,0.01,2.14-0.69,1.63-2.14
		c-1.51-4.27-3.02-8.55-4.63-12.79c-0.43-1.14-1.56-2.1-1.74-3.24c-0.63-4.08-3.35-7.01-5.24-10.4c-0.8-1.43-1.54-1.42-2.99-0.7
		C168.92,107.98,165.99,109.94,162.11,110.04z M48.3,160.77c1.47-0.81,2.6-2.28,3.54-3.74c0.7-1.09-0.31-2.12-1.15-3
		c-2.55-2.67-5.32-5.09-7.44-8.23c-2.65-3.93-4.18-8.2-5.29-12.7c-0.36-1.45-1.08-2.59-2.73-2.01c-3.23,1.15-5.8,3.39-8.41,5.51
		c-1.25,1.02-1.13,2.22-0.11,3.47c1.17,1.43,2.69,2.64,4.09,3.58c4.09,2.75,6.64,6.94,10.12,10.23c2,1.89,4.59,3.59,5.91,6.27
		C47.06,160.6,47.55,160.82,48.3,160.77z M210.99,116.54c0.01-2.62-0.08-2.68-1.84-1.81c-1.68,0.83-3.46,1.52-5.01,2.56
		c-2.33,1.56-4.88,2.7-7.27,4.14c-2.16,1.31-4.89,1.65-7.36,2.47c-1.25,0.41-2.24,0.45-1.81,2.7c0.45,2.36,2.37,3.99,2.37,6.4
		c0,0.93,0.79,0.74,1.28,0.39c2.99-2.14,6.64-3.24,9.37-5.78c2.29-2.13,4.57-4.23,7.03-6.19
		C209.36,120.14,210.56,118.11,210.99,116.54z"/>
	<path class="st10" d="M125.98,58.82c-9.81,6.14-20.04,8.52-30.87,2.89c-3.56-1.85-6.89-4.25-9.16-7.76
		c0.04-0.69-0.27-1.07-0.98-1.11c-0.11-0.05-0.13-0.12-0.07-0.23c0.25-0.86-0.44-2.34,1.54-2.04c0.61,0.09,0.56-0.65,0.12-1.06
		c-3.46-3.2-3.44-3.56,0.43-6.18c0.24,2.4,0.98,4.6,2.51,6.5c-0.75,0.84-0.09,0.9,0.54,0.98c0.95-0.08,2.11,0.39,2.7-0.73
		c0.6-1.13-0.12-2.08-0.75-2.95c-0.74-1.03-1.2-2.21-1.42-3.42c-1.29-7.14,3.54-15.24,9.38-17.89c1.08,0.06,2.17,0.15,2.04-1.47
		c0.32-0.01,0.63-0.02,0.95-0.04c0.54,0.16,1.15,0.55,1.62,0.43c2.16-0.54,4.9,0.82,6.42-1.87c1.48,0.39,2.97,0.59,4.5,0.49
		c0.67,1.06,1.75,1.5,2.22,0.21c0.64-1.76,3.03-2.26,2.44-5.2c1.67,2.87,1.67,2.86,4.53,2.56c0.31-0.03,0.76-0.03,0.94,0.15
		c1.01,1.07,2.27,0.73,3.48,0.73c5.04,3.13,7.86,7.81,8.77,13.51c0.56,3.5,0.61,7.13-0.89,10.53c-1.09,0.24-1.56,1.05-2,1.98
		c-0.48,1.01-0.9,2.57-1.68,2.81c-2.91,0.9-3.71,3.61-5.38,5.54C127.2,57.01,125.45,57.09,125.98,58.82z"/>
	<path class="st11" d="M133.85,81.73c0.16,0.64,0.11,1.49,0.51,1.88c3.89,3.73,4.03,9.37,7.03,13.54c0.7,0.98,0.34,1.83-0.53,2.29
		c-3.07,1.6-5.85,3.81-9.36,4.5c-1.7,0.33-3.18,1.41-4.6,2.16c-2.93,1.54-6.4,1.4-9.08,3.39c-0.25,0.19-0.6,0.31-0.92,0.32
		c-7.07,0.31-14.13,1.99-21.17,0.88c-3.27-0.51-6.48-0.76-9.74-0.88c-1.38-0.05-2.09-0.78-2.02-2.26c0.06-1.16,0.04-2.29,0.58-3.39
		c1.02-2.08,1.76-4.24,1.49-6.64c-0.06-0.54,0.08-1.18,0.33-1.67c2.2-4.24,1.98-8.95,2.63-13.49c3.04,3.57,6.08,7.15,9.14,10.7
		c0.31,0.35,0.77,0.57,1.17,0.85c2.4,2.98,4.93,5.83,8.2,7.91c0.34,0.79,0.97,1.18,1.81,1.27c0.06,0.39,0.25,0.67,0.65,0.79l0,0
		c1.05,1.17,2.14,3.05,3.87,1.69c2.78-2.19,5.33-4.69,7.71-7.36C126.1,93.06,129.88,87.33,133.85,81.73z"/>
	<path class="st9" d="M129.09,21.81c-1.21,0.01-2.47,0.34-3.48-0.73c-0.18-0.18-0.63-0.19-0.94-0.15c-2.86,0.31-2.86,0.31-4.53-2.56
		c0.59,2.94-1.8,3.44-2.44,5.2c-0.47,1.29-1.55,0.85-2.22-0.21c0.42-1.13,1.31-2.47-0.59-3c-3.03-0.85-6.06-1.38-9.29-0.7
		c-6.15,1.3-10.96,4.68-14.6,9.54c-3.06,4.09-4.73,8.85-4.03,14.14c-3.86,2.62-3.89,2.98-0.43,6.18c0.44,0.41,0.48,1.15-0.12,1.06
		c-1.98-0.3-1.28,1.18-1.54,2.04c-0.38-0.27-0.76-0.54-1.14-0.81c-0.93-2.31-1.87-4.62-2.8-6.94c-0.02-1.67-0.04-3.34-0.06-5.01
		c0.35-1.32-0.22-2.77,0.6-4.01c0.84-2.14,1.68-4.29,2.52-6.43c0.73-0.71,1.33-1.51,1.51-2.54c0,0-0.02,0.01-0.02,0.01
		c0.96-0.42,1.43-1.31,1.96-2.12c0.29,0,0.42-0.15,0.39-0.43c0.24-0.29,0.47-0.58,0.71-0.87c2.95-2.37,5.84-4.81,9.25-6.56
		c7.99-4.12,15.88-3.03,23.71,0.37C124.23,18.45,127.1,19.41,129.09,21.81z"/>
	<path class="st4" d="M109.95,103.89c-0.39-0.12-0.58-0.41-0.65-0.8c0.06-0.09,0.13-0.18,0.2-0.26c0.16-0.16,0.31-0.31,0.47-0.47
		l0.02-0.02c1.05,0,2.13,0.11,2.91-1.26c-1.49-0.04-2.52-1.13-2.48-2.02c0.06-1.15,2.04-0.82,2.49-2.07
		c0.48,0.43,0.33,0.73,0.25,1.05c-0.17,0.65-0.39,1.37,0.46,1.69c0.54,0.2,1.21,0.27,1.6-0.27c0.41-0.57,0.41-1.32-0.04-1.85
		c-0.47-0.54-0.74-1.08-0.7-1.78c5.14-3.87,8.57-9.19,11.96-14.49c3.38-5.3,6.63-10.69,9-16.55c0.95,0.64,1.87,1.33,2.87,1.88
		c0.57,0.32,1.19,0.05,1.44-0.55c0.22-0.53-0.04-0.93-0.67-1.03c-2.34-0.35-3.08-1.2-1.02-3.07c0.27-0.24,0.16-0.9,0.23-1.44
		c1.42,0.59,2.81,1.17,4.2,1.75c-0.16,0.34-0.32,0.68-0.48,1.01c-3.17,0.22,0.1,1.33-0.26,1.93c-1.29,3.64-3.08,7.05-4.81,10.49
		c-0.77,0.68-0.97,1.63-1.25,2.55c-0.09,0.14-0.18,0.27-0.27,0.41c-0.71,0.89-1.33,1.83-1.56,2.98c-3.97,5.6-7.75,11.34-12.33,16.49
		c-2.38,2.68-4.93,5.17-7.71,7.36C112.09,106.94,110.99,105.06,109.95,103.89c0.06-0.03,0.12-0.05,0.16-0.09
		c0.03-0.02,0.03-0.08,0.04-0.12C110.08,103.75,110.02,103.82,109.95,103.89z M139.24,63.99c0.07-0.14,0.19-0.26,0.19-0.38
		c0-0.12-0.12-0.24-0.19-0.36c-0.07,0.12-0.19,0.24-0.19,0.36C139.04,63.72,139.16,63.85,139.24,63.99z"/>
	<path class="st12" d="M135.45,64.8c-2.37,5.86-5.62,11.25-9,16.55c-3.39,5.3-6.81,10.62-11.96,14.49
		c-0.34,0.02-0.68,0.04-1.01,0.06c-1.88-0.69-1.46-2.02-0.94-3.37c2.97-1.54,5.09-4.08,6.9-6.71c4.95-7.16,9.85-14.38,13.01-22.58
		c0.35-0.91,1.08-1.47,1.91-1.19C135.61,62.47,135.5,63.71,135.45,64.8z"/>
	<path class="st11" d="M136.94,75.79c1.74-3.43,3.52-6.85,4.82-10.49c0.09-0.64,0.18-1.29,0.26-1.93c0.16-0.34,0.32-0.68,0.48-1.01
		c0.17-0.33,0.35-0.66,0.52-0.99c0.31-0.52,0.62-1.04,0.92-1.55c0.11,0.9,0.57,1.58,1.41,1.9c2.88,1.07,5.61,2.38,8.29,3.92
		c2.15,1.23,1.31,2.07,0.15,2.79c-2.07,1.29-4.28,2.39-6.52,3.35C143.87,73.21,140.39,74.46,136.94,75.79z"/>
	<path class="st7" d="M94.5,4.86c2.09-0.05,3.91-0.16,5.91-1.57c1.8-1.27,4.68-1.02,7.09-1.44c0.09,1.38-0.13,2.49-1.88,2.59
		c-0.67,0.04-1.4,0.56-1.38,1.24c0.04,0.91,1.3-0.4,1.4,0.2c-0.64,3.57-4.45,3.63-5.63,6.39c-0.28-1.43-0.05-2.57,0.98-3.42
		c1.2-0.23,1.33-1.56,2.2-2.18c0.47-0.34,0.28-1.77-0.2-1.56c-0.86,0.38-2.3-0.76-2.66,0.96c-0.26,1.24-1.28,1.38-2.35,1.29
		c0,0,0,0,0,0c-0.08-0.95-0.52-1.63-1.54-1.39c-0.65,0.15-1.23,0.63-0.45,1.39c0.04,1.08,1.12,0.77,1.59,1.23
		c0.51,0.49,0.98,1.27,0.5,1.96c-0.38,0.54-1.09,0.31-1.52-0.14C95.82,9.63,94.88,9.92,94,9.86c2.04-1.36-0.43-2.69-0.03-4.04
		c0.01-0.15,0.01-0.3,0.02-0.45C94.16,5.2,94.33,5.03,94.5,4.86z"/>
	<path class="st7" d="M113.47,95.9c0.34-0.02,0.68-0.04,1.01-0.06c-0.04,0.7,0.23,1.24,0.7,1.78c0.46,0.53,0.46,1.28,0.04,1.85
		c-0.39,0.54-1.06,0.47-1.6,0.27c-0.84-0.32-0.63-1.04-0.46-1.69c0.08-0.31,0.23-0.61-0.25-1.05c-0.45,1.25-2.43,0.93-2.49,2.07
		c-0.04,0.89,0.99,1.97,2.48,2.02c-0.78,1.36-1.87,1.26-2.91,1.26c-0.09-0.82,0.27-1.87-1.12-1.97c-1.09-0.08-1.43,0.48-1.38,1.45
		c-3.27-2.08-5.8-4.93-8.2-7.91c2.28-0.33,5.29,0.9,6.03,2.93c0.62,1.71,1.54,1.28,2.64,1C109.8,97.2,111.64,96.55,113.47,95.9z"/>
	<path class="st13" d="M125.98,58.82c-0.53-1.74,1.22-1.81,1.94-2.64c1.68-1.94,2.47-4.64,5.38-5.54c0.78-0.24,1.2-1.8,1.68-2.81
		c0.44-0.93,0.91-1.74,2-1.98C134.94,51.56,131.35,55.95,125.98,58.82z"/>
	<path class="st7" d="M108.98,1.84c0.34,0,0.68,0,1.02,0c1.24,1.58,2.94,1.66,4.67,1.3c1.88-0.38,3.69-0.85,5.48,1.66
		c-3.89,0-7.37,0.26-10.78-0.1C107.52,4.51,109.46,2.79,108.98,1.84z"/>
	<path class="st7" d="M107.97,95.85c-1.6,0.21-2.62-0.54-3.56-2.26c2.61,0.81,2.64-0.96,2.97-2.59c0.59,2.4,2.86,1.41,4.1,2.35
		C111.04,95.21,110.05,96.29,107.97,95.85z"/>
	<path class="st7" d="M80.96,44.88c0.93,2.31,1.86,4.62,2.8,6.94c-1.13-0.49-2.2-2.05-3.41,0.01c-0.46,0.78-1.01,0.15-1.23-0.38
		c-0.28-0.67-0.43-1.39-0.63-2.09c0.17-0.16,0.33-0.33,0.5-0.49c2.31,0.36,2.45,0.11,1.5-2.53c0.14-0.45,0.28-0.9,0.42-1.36
		L80.96,44.88z"/>
	<path class="st4" d="M107.97,95.85c2.08,0.43,3.07-0.65,3.51-2.51c-0.04-0.23-0.03-0.49-0.12-0.7c-0.27-0.64-0.44-1.41,0.42-1.52
		c1.02-0.13,0.57,0.87,0.75,1.39c-0.52,1.36-0.94,2.69,0.94,3.38c-1.83,0.65-3.66,1.3-5.5,1.95
		C107.97,97.18,107.97,96.52,107.97,95.85z"/>
	<path class="st4" d="M97.98,7.36c1.07,0.08,2.09-0.05,2.35-1.29c0.36-1.72,1.8-0.58,2.66-0.96c0.48-0.21,0.67,1.22,0.2,1.56
		c-0.87,0.63-1,1.95-2.2,2.18C100.22,7.87,98.48,8.89,97.98,7.36z"/>
	<path class="st4" d="M144.99,50.37c0,0.16,0,0.32-0.01,0.48c-1.22,0.69-1.89,0.28-1.96-1.06c-0.06-1.15-0.03-2.3-0.02-3.45
		c0.01-0.68,0.04-1.38,0.97-1.4c0.93-0.02,1.01,0.65,1.01,1.35c0,0.81,0.09,1.64-0.5,2.34C143.79,49.43,144.23,49.96,144.99,50.37z"
		/>
	<path class="st4" d="M141.68,45.25c0.66,2.47-0.61,3.89-1.77,5.29c-0.36,0.43-1.1,0.5-1.57,0.04c-0.45-0.44-0.04-0.97,0.22-1.32
		C139.47,48.01,140.45,46.82,141.68,45.25z"/>
	<path class="st4" d="M139.98,53.84c0.1-0.69-0.27-1.66,0.73-1.87c0.84-0.18,1.86-0.49,2.54,0.34c0.41,0.5,0.11,1.03-0.28,1.55
		c-0.74,1-1.44,0.83-2.27,0.16c-0.17-0.14-0.47-0.11-0.72-0.16L139.98,53.84z"/>
	<path class="st4" d="M118.86,82.18c-0.66-0.02-0.9-0.37-0.78-0.64c0.47-1.11,1.08-2.18,2.3-2.56c0.46-0.14,1.04,0.37,0.89,0.89
		C120.9,81.15,119.35,81.21,118.86,82.18z"/>
	<path class="st4" d="M143.95,55.81c0.03,0.67-0.3,1.01-0.95,1.07c-0.81-0.03-1.63-0.16-2.17,0.72c-0.24,0.39-0.68,0.88-1.14,0.29
		c-0.35-0.45,0-0.92,0.33-1.29C141.13,55.37,142.63,56.05,143.95,55.81z"/>
	<path class="st4" d="M142.98,57.83c-0.01,0.69-0.02,1.39-0.04,2.08c-0.9-0.15-1.78,0.98-2.91-0.16
		C141.06,59.09,142.02,58.46,142.98,57.83z"/>
	<path class="st4" d="M78.6,55.77c-0.68-0.72-1.87-0.88-1.38-2.21c0.15-0.41,0.6-0.69,0.97-0.49C79.26,53.67,79.12,54.59,78.6,55.77
		z"/>
	<path class="st4" d="M88.58,23.47c-0.24,0.29-0.47,0.58-0.71,0.87c-0.13,0.14-0.26,0.29-0.39,0.43c-0.54,0.82-1,1.7-1.96,2.12
		C85.29,24.64,86.86,23.99,88.58,23.47z"/>
	<path class="st4" d="M95.99,7.37c-0.79-0.76-0.2-1.24,0.45-1.39c1.02-0.24,1.46,0.44,1.54,1.39C97.32,7.36,96.66,7.36,95.99,7.37z"
		/>
	<path class="st4" d="M85.54,26.89c-0.18,1.04-0.78,1.83-1.51,2.54c0.12-0.86-0.59-1.71-0.04-2.58c0,0,0,0,0,0
		C84.5,26.86,85.02,26.88,85.54,26.89z"/>
	<path class="st4" d="M139.99,53.86c-0.4,1.54-1.35,0.85-2.18,0.63c0.56-0.87,1.41-0.56,2.16-0.65
		C139.98,53.84,139.99,53.86,139.99,53.86z"/>
	<path class="st4" d="M90.48,17.35c0.04-0.55-0.12-1.23,0.66-1.4c0.34-0.08,0.71,0.12,0.65,0.52
		C91.67,17.16,91.09,17.31,90.48,17.35C90.49,17.36,90.48,17.35,90.48,17.35z"/>
	<path class="st9" d="M84.97,52.85c0.71,0.03,1.02,0.41,0.98,1.11C85.35,53.83,84.95,53.52,84.97,52.85z"/>
	<path class="st7" d="M109.18,90.72c0.06,0.02,0.12,0.04,0.18,0.06c-0.02,0.07-0.03,0.15-0.08,0.2c-0.02,0.02-0.11-0.04-0.17-0.06
		C109.13,90.85,109.16,90.78,109.18,90.72z"/>
	<path class="st3" d="M188.93,137.79c0.74-1.06,1.9-0.96,2.97-1.09c1.03,2.05-1.53,0.74-1.82,1.89
		C189.93,139.19,189.06,138.52,188.93,137.79z"/>
	<path class="st3" d="M182.97,139.82c0.59,0.66,1.29,1.18,2.54,1.43c-1.17,1.13-2.12,1.31-3.29,0.87
		C182.31,141.25,183.25,140.73,182.97,139.82C182.96,139.83,182.97,139.82,182.97,139.82z"/>
	<path class="st3" d="M176.55,141.47c0.15-0.07,0.31-0.11,0.47-0.12c0.53,0.1,1.42-0.24,1.53,0.33c0.15,0.75-0.27,1.54-1.1,1.98
		C176.69,143.09,177.06,142.09,176.55,141.47z"/>
	<path class="st5" d="M206.44,101.87c-1.89-0.89-3.31-2.31-4.47-4.02c0.89-0.05,1.88-0.02,0.95-1.36c-0.46-0.66-0.76-1.49,0.07-1.95
		c1.05-0.59,1.38,0.34,1.74,1.13c0.27,0.59,0.83,1.04,0.81,1.68c0.55,0.17,0.71-0.12,0.89-0.39c0.31-0.45,0.59-1.27,1.25-0.78
		c0.68,0.51-0.06,0.96-0.42,1.39c-0.67,0.82-2.22,1.76,0.23,2.27C207.02,100.47,207.15,101.39,206.44,101.87z"/>
	<path class="st3" d="M202.48,85.93c0.71,1.25,0.22,1.94-1.09,1.88c-1.06-0.05-2.11-0.42-3.14-0.88c1.34-0.83,2.7-1.16,4.17-1.05
		C202.42,85.87,202.48,85.93,202.48,85.93z"/>
	<path class="st2" d="M210.92,105.4c-0.74-0.16-1.42-0.43-1.92-1.05c2.02-1,0.58-2.2-0.11-2.83c-0.73-0.68-0.83-0.88-0.02-1.37
		c0.57-0.35,0.81-0.86,1.75-0.01C212.66,101.99,211.37,103.63,210.92,105.4z"/>
	<path class="st5" d="M214.33,103.55c0.51,0.07,0.62,0.43,0.59,0.87c-0.03,0.57-0.34,0.87-0.91,0.89c-0.43,0.01-0.88-0.11-0.81-0.61
		C213.3,104.11,213.77,103.75,214.33,103.55z"/>
	<path class="st2" d="M193.92,135.79c0.11-0.61,0.43-0.95,1.09-0.9C194.93,135.55,194.59,135.87,193.92,135.79z"/>
	<path class="st2" d="M212.5,98.84c0.32,0.05,0.68,0.06,0.73,0.48c0.01,0.09-0.19,0.29-0.27,0.28c-0.42-0.05-0.43-0.42-0.48-0.74
		C212.48,98.86,212.5,98.84,212.5,98.84z"/>
	<path class="st5" d="M222.17,116.64c-0.13,0.04-0.2,0.06-0.27,0.08c-0.02-0.06-0.03-0.12-0.05-0.18
		C221.94,116.57,222.03,116.6,222.17,116.64z"/>
	<path class="st2" d="M214.25,99.67c0.04,0.06,0.1,0.13,0.09,0.19c-0.01,0.06-0.08,0.11-0.13,0.17
		C214.23,99.91,214.24,99.79,214.25,99.67z"/>
	<path class="st2" d="M211.47,105.89c-0.17-0.16-0.34-0.32-0.51-0.48C211.12,105.56,211.3,105.72,211.47,105.89z"/>
	<path class="st5" d="M25.45,142.95c0.91,0.9,2.22,1.42,2.63,2.79c-0.12,0.2-0.2,0.51-0.38,0.58c-2.31,0.92-2.31,0.91-2.29,3.26
		c-1.01-1.42-3.04-2.73,0.01-4.41C26.14,144.78,24.41,143.71,25.45,142.95z"/>
	<path class="st5" d="M15.12,132.82c1.25,0.36,1.26,1.66,1.89,2.49c-1.01,0.02-2.02,0.03-3.02,0.05l-0.01-0.01
		c0.96-2.4-2.19-1.08-2.37-2.76C12.84,132.67,13.98,132.74,15.12,132.82z"/>
	<path class="st5" d="M22.11,140.23c1.17,0.64,2.49,1.11,2.92,2.58c-0.87,0.23-1.38,1.41-2.57,0.88c-1.19-0.53-0.07-2.32-1.53-2.64
		C21.33,140.78,21.72,140.5,22.11,140.23z"/>
	<path class="st5" d="M7.82,133.22c-0.4-1.85-2.47-3.61,0.28-5.16C6.52,129.74,10.45,131.39,7.82,133.22z"/>
	<path class="st5" d="M13.97,119.35c-0.09,0.85,0.29,1.79-0.5,2.5c-0.19-1.12-2.31-0.32-1.97-1.97c0.28-0.14,0.76-0.24,0.79-0.42
		C12.73,116.97,13.4,119,13.97,119.35z"/>
	<path class="st5" d="M19.49,142.85c-0.69,0.07-1.49,0.48-1.65-0.74c-0.08-0.61-0.72-1.34,0.28-1.63c0.8-0.23,1.2,0.4,1.31,1.12
		C19.5,142.02,19.47,142.44,19.49,142.85C19.48,142.85,19.49,142.85,19.49,142.85z"/>
	<path class="st2" d="M32.75,152.76c0.67,0.86,1.47,1.64,0.77,2.67c-0.14,0.21-0.8,0.36-0.84,0.3
		C32.04,154.75,32.79,153.76,32.75,152.76z"/>
	<path class="st5" d="M12.49,136.36c-0.07,0.94-0.75,1.25-1.53,1.31c-0.23,0.02-0.64-0.31-0.71-0.55c-0.27-0.96,0.83-0.79,1.21-1.3
		C12.28,134.71,11.93,136.53,12.49,136.36C12.48,136.35,12.49,136.36,12.49,136.36z"/>
	<path class="st5" d="M13.49,127.84c0.67,0.56,0.46,1.32,0.47,2.03c-0.32,0.43-0.64,0.86-0.98,1.33
		C11.68,129.75,13.34,128.93,13.49,127.84z"/>
	<path class="st2" d="M31.15,148.71c0.94,0.41,1.73,0.95,1.92,2.06C30.5,151.88,31.57,149.6,31.15,148.71z"/>
	<path class="st5" d="M12.98,124.35c0.65,0.57,0.46,1.31,0.42,2.03C11.44,126.08,11.76,125.31,12.98,124.35z"/>
	<path class="st5" d="M17.03,135.33c0.8,0.53,1.48,1.18,1.97,2.02C17.45,137.55,16.72,136.94,17.03,135.33z"/>
	<path class="st5" d="M29.68,152.54c0.39,0.88,0.44,1.47-0.26,2.27C28.9,153.99,28.84,153.4,29.68,152.54z"/>
	<path class="st2" d="M33.47,158.36c-0.5-0.08-0.98-0.21-0.88-0.87c0.03-0.15,0.35-0.41,0.45-0.38c0.59,0.22,0.38,0.78,0.45,1.22
		C33.5,158.34,33.47,158.36,33.47,158.36z"/>
	<path class="st5" d="M13.99,135.36c-0.06,0.99-0.77,1.01-1.5,1c0,0-0.01-0.01-0.01-0.01c0.06-0.99,0.77-1.01,1.5-1
		C13.98,135.35,13.99,135.36,13.99,135.36z"/>
	<path class="st5" d="M11.29,130.06c0.03,0.36-0.08,0.6-0.35,0.54c-0.16-0.04-0.3-0.31-0.36-0.51c-0.03-0.09,0.13-0.25,0.21-0.38
		C10.97,129.83,11.15,129.96,11.29,130.06z"/>
	<path class="st5" d="M16.28,137.71c-0.06,0.14-0.12,0.28-0.18,0.42c-0.14-0.06-0.35-0.09-0.39-0.19c-0.04-0.1,0.1-0.27,0.16-0.41
		C16,137.59,16.14,137.65,16.28,137.71z"/>
	<path class="st5" d="M10.4,127.71c0-0.14-0.02-0.28,0.01-0.41c0.01-0.05,0.18-0.12,0.19-0.11c0.08,0.1,0.15,0.21,0.22,0.32
		C10.69,127.58,10.55,127.64,10.4,127.71z"/>
	<path class="st5" d="M13.03,122.35c-0.01,0.17-0.01,0.34-0.02,0.51C12.64,122.68,12.66,122.51,13.03,122.35z"/>
	<path class="st7" d="M83.99,26.85c-0.55,0.87,0.16,1.72,0.04,2.58c-0.84,2.14-1.68,4.29-2.52,6.43c-0.62-1.17-1.79-2.03-1.98-3.44
		c-0.05-0.38-0.03-0.96,0.21-1.16c0.48-0.41,0.59,0.16,0.81,0.49c0.67,1.03,1.14-0.12,1.59-0.29c0.68-0.25,0.37-1.02,0.07-1.49
		C80.46,27.23,80.45,27.24,83.99,26.85z"/>
	<path class="st7" d="M78.88,23.33c0.25,1.73,0.36,3.42,0.23,5.13c-0.03,0.44,0.47,0.99-0.22,1.26c-1.19,0.47-1.46-0.79-2.17-1.25
		c-0.46-0.3-0.85-0.82-0.28-1.15c0.95-0.56,1.69-0.89,0.53-2.05C76.82,25.12,77.83,23.65,78.88,23.33z"/>
	<path class="st7" d="M80.9,39.88c0.02,1.67,0.04,3.34,0.06,5.01c0,0-0.06,0.08-0.06,0.08c-0.73,0.4-2.03,0.52-0.95,1.85
		c0.04,0.74,0.06,1.47-0.97,1.53c-0.21-0.88,0.6-2.17-1-2.5l0,0c0.25-1.15,0.07-2.71,2.15-1.94c0.4,0.15,0.3-0.62,0.34-0.98
		C80.61,41.91,80.14,40.81,80.9,39.88z"/>
	<path class="st1" d="M78.98,48.35c1.03-0.07,1.01-0.8,0.97-1.53c0.18-0.16,0.35-0.33,0.53-0.49c0.95,2.64,0.81,2.89-1.5,2.53
		C78.98,48.68,78.98,48.52,78.98,48.35z"/>
	<path class="st7" d="M74.52,31.99c1.23,0.23,2.26,0.18,2.98,1.6C76.2,33.47,75.13,33.61,74.52,31.99z"/>
	<path class="st7" d="M72.97,40.34c-0.11-0.5-1.81-0.99-0.01-1.49c0.46,0.3,1.28,0.35,1.23,1.03
		C74.15,40.54,73.43,40.27,72.97,40.34z"/>
	<path class="st7" d="M77.99,45.85c-0.09,0.7,0.23,1.51-0.9,2.35C77.08,47.08,76.52,46.21,77.99,45.85L77.99,45.85z"/>
	<path class="st1" d="M87.48,17.34c-0.33,0.15-0.58,0.36-0.67,0.3c-0.24-0.15-0.53-0.39-0.58-0.64c-0.1-0.43,0.27-0.53,0.58-0.38
		C87.04,16.74,87.2,17.03,87.48,17.34z"/>
	<path class="st7" d="M77.31,30.32c0.17,0.24,0.3,0.41,0.43,0.58c-0.18,0.12-0.38,0.35-0.55,0.33c-0.16-0.01-0.31-0.28-0.46-0.43
		C76.89,30.66,77.06,30.52,77.31,30.32z"/>
	<path class="st7" d="M73.03,31.33c-0.02-0.54-0.11-1.1,0.45-1.46C73.47,30.4,73.56,30.96,73.03,31.33z"/>
	<path class="st3" d="M33.56,96.94c-2.83,2.33-5.4,4.98-8.51,6.97c-0.59-0.57,0.05-0.84,0.31-1.19c0.35-0.46,0.89-0.92,0.36-1.5
		c-0.5-0.56-0.89,0.75-1.49,0.17c0.38-1.74-0.11-3.8,1.76-5.04c2.24,0.24,2.93-1.07,2.99-3c0,0,0,0,0,0c1.87-0.13,2.2-1.55,2.5-3
		c0,0,0,0,0,0c1.2-0.07,2.48,0.29,3.52-0.68c0.3-0.28,0.76-0.4,1.12-0.08c0.49,0.43,0.25,0.85-0.12,1.25
		c-0.73,0.79-0.21,1.46,0.42,1.81c0.78,0.43,1.3,0.07,1.6-0.86c0.5-1.56,1.64-1.62,2.93-0.93c0,0.33,0.01,0.65,0.01,0.98
		c-1.29,1.73-3.21,2.54-5.05,3.49c-0.57-0.07-0.89-0.27-0.72-0.96c0.25-0.99-0.04-1.71-1.24-2c0.11,0.79,0.98,1.44-0.28,2.05
		c-1.45,0.7-1.82-0.44-2.6-1.32c-0.06,0.55-0.18,0.89-0.11,1.17c0.23,0.92-1.43,1.63-0.5,2.37c0.82,0.65,1.74,0.06,2.59-0.66
		C33.56,95.59,33.32,96.63,33.56,96.94z"/>
	<path class="st5" d="M41.98,86.85c-0.36-1.51,1.39-2.48,1.02-3.99c0.32,1.34,3.51,1.96,0.99,4c-0.66,0-1.33,0-1.99,0.01
		L41.98,86.85z"/>
	<path class="st3" d="M41.99,86.86c0.66,0,1.33,0,1.99-0.01c-0.31,1.54-0.78,2.97-2.49,3.52C40.2,88.99,42.27,88.09,41.99,86.86z"/>
	<path class="st5" d="M46.87,86.02c0.39,0.04,0.57,0.3,0.52,0.64c-0.03,0.19-0.23,0.45-0.4,0.48c-0.34,0.08-0.65-0.11-0.68-0.48
		C46.27,86.3,46.55,86.11,46.87,86.02z"/>
	<path class="st5" d="M46.99,88.36c-0.5,0.33-1,0.66-1.51,0.99C45.52,88.31,45.56,87.29,46.99,88.36z"/>
	<path class="st5" d="M22.88,106.31c-0.53,0.64-0.96,1.4-1.89,1.55c-1.37-0.96-2.65-0.6-3.85,0.32c-0.39,0.3-0.73,0.85-1.23,0.45
		c-0.65-0.52-0.07-1.16,0.24-1.5c1.26-1.39,2.41-2.75,1.55-5.09c-0.79,1.66-3.43,1.95-2.17,4.73c-1.51-0.56-0.61-2.92-2.54-2.43
		c0.33-0.33,0.66-0.65,0.99-0.98c1.79-0.12,2.11-2.21,4.09-2.63c2.72-0.58,1.91,0.92,1.83,2C19.72,105.16,20.44,106.12,22.88,106.31
		z"/>
	<path class="st5" d="M12.37,116.69c-0.05,0.39-0.33,0.57-0.66,0.55c-0.47-0.04-0.71-0.34-0.58-0.83c0.1-0.36,0.39-0.48,0.75-0.42
		C12.26,116.06,12.37,116.34,12.37,116.69z"/>
	<path class="st3" d="M4.48,133.86c-0.01,0.39-0.08,0.76-0.48,0.96C3.67,134.25,3.65,133.84,4.48,133.86z"/>
	<path class="st4" d="M94.5,4.86c-0.17,0.17-0.34,0.34-0.5,0.52C94.16,5.2,94.33,5.03,94.5,4.86z"/>
	<path class="st3" d="M38.7,86.65c0.46,0.1,0.75,0.43,0.62,0.71c-0.35,0.77-0.57,1.69-1.39,2.1c-0.24,0.12-1.01-0.4-0.68-0.71
		C37.9,88.13,37.78,86.98,38.7,86.65z"/>
	<path class="st5" d="M23.9,105.34c-0.14,0.16-0.28,0.32-0.42,0.47C23.62,105.66,23.76,105.5,23.9,105.34z"/>
	<path class="st3" d="M22.12,95.39c1.06,0.08,0.94,1.05,1.15,1.68c0.28,0.83-0.47,1.11-1.06,1.41c-0.38,0.19-0.85,0.37-1.06-0.11
		c-0.29-0.65,0.14-1.12,0.67-1.42c0.74-0.41,0.48-0.93,0.24-1.47C22.05,95.48,22.12,95.39,22.12,95.39z"/>
	<path class="st5" d="M31.49,90.35c-0.3,1.45-0.63,2.87-2.5,3C28.37,91.15,30.09,90.88,31.49,90.35z"/>
	<path class="st11" d="M155.99,143.86c-3.8,1.58-7.53,3.21-11.18,5.24c-3.37,1.88-6.06,5.02-10.02,5.85
		c-1.37,0.29-0.4,1.81-1.33,2.71c-2.36-2.23-4.82-4.38-7.07-6.73c-2-2.08-3.96-4.09-6.4-5.74c-2.76-1.87-4.93-4.56-7.69-6.5
		c-3.61-2.54-7.1-5.25-10.8-7.64c-2.52-1.62-4.73-3.75-7.61-4.8c-0.45-0.17-0.93-0.28-1.39-0.41c-0.53-2.48-2.17-3.28-4.52-2.97
		c-0.16,0-0.33-0.01-0.49-0.01c-0.06-1.01-0.78-1.01-1.51-0.99c-1.29-1.08-3.08-0.88-4.49-1.8c-0.83-0.54-2.04-0.7-1.76-1.95
		c0.26-1.14,1.11-2.26,2.37-2.22c3.12,0.1,6.3-0.66,9.36,0.63c0.66,0.28,1.46,0.24,2.19,0.31c3.16,0.29,6.38-0.52,9.51,0.89
		c1.09,0.49,2.61,0.24,3.92-0.16c3.55-1.07,7.38-0.42,10.91-1.71c1.31-0.41,3.07,0.97,3.99-1.01c0,0,0,0,0,0
		c1.41-0.22,2.95,0.53,4.23-0.73c0.83-0.81,1.98-1,3.05-1.39c1.69-0.63,4.01-0.54,4.73-2.85c3.27,0.31,5.18-2.48,7.87-3.52
		c2.94-1.14,5.63-2.91,8.49-4.26c0.9-0.43,1.85-0.58,2.67,0.77c2.72,4.44,5.69,8.73,8.54,13.1c0.25,0.39,0.28,0.92,0.41,1.38
		c0.57,1.79,0.09,4.27,2.99,4.51c0.93,0.83,0.8,2.36,2,3c-0.03,1.68,0.53,3.07,2.01,3.99c1.26,2.79,2.6,5.55,3.76,8.38
		c0.63,1.53-0.33,2.37-1.77,2.58c-0.98,0.14-1.99,0.05-2.98,0.06c-2.03,0.11-4.38-0.66-5.53,1.95c-0.66,0.02-1.32,0.04-1.97,0.06
		C158.65,141.75,157.12,142.34,155.99,143.86z M146.78,114.35c-1.15,0.07-2.3,0.06-3.46,0.27c-3.85,0.69-7.51,1.94-11.25,3.04
		c-4.34,1.27-8.48,2.86-12.26,5.31c-3.35,2.17-4.15,6.39-2.16,9.99c4.07,7.37,11.08,9.2,18.38,9.73c7.01,0.51,13.39-2.27,18.43-7.2
		c2.85-2.8,5-6.52,4.39-10.69C157.97,118.88,153.67,113.91,146.78,114.35z"/>
	<path class="st11" d="M53.98,149.89c-1.74-0.47-2.24-2.57-3.99-3.04c0.11-1.52-0.5-2.55-2.01-2.97c0,0-0.01-0.01-0.01-0.01
		c0.13-1.44-0.57-2.07-1.97-2.03c-0.03-0.49,0.13-1.13-0.12-1.45c-1.62-2.12-1.51-4.92-2.83-7.11c-1.4-2.32-0.65-5.16-2.05-7.43
		c0-2.03,0-4.07-0.02-6.1c-0.01-0.78,0.2-1.71-1-1.88c-0.01-0.33-0.02-0.65-0.02-0.98c-0.2-2.55-0.01-4.79,3.31-5.14
		c1.01-0.11,0.62-1.18,0.73-1.87c0.41-0.04,0.98,0.09,1.22-0.14c2.9-2.71,7.07-3.46,9.89-6.03c4.19-3.83,9.46-5.83,13.9-9.19
		c2.64-2,6.08-2.81,9.33-3.59c1.83-0.44,2.6,1.17,2.21,2.95c-0.68,3.03-2.14,5.77-2.7,8.87c-0.56,3.08-2,6-3.07,8.98
		c-1.62,4.5-2.95,9.15-5.03,13.43c-0.92,1.9-1.77,3.96-3.11,5.76c-1.11,1.49-1.48,3.54-2.45,5.25c-1.8,3.14-3.11,6.57-5.34,9.45
		c-1.02,1.32-0.9,3.23-2.35,4.28C55.66,149.89,54.82,149.89,53.98,149.89z"/>
	<path class="st11" d="M102.01,135.83c2.23,0.58,3.55,2.48,5.35,3.69c0.4,0.27,0.61,0.81,1.01,1.09c2.88,1.98,2.96,2.13-0.15,3.51
		c-4.48,1.98-8.08,5.21-12.03,7.96c-2.97,2.06-6.02,3.98-8.59,6.6c-1.5,1.53-2.73-0.7-3.3-1.25c-2.03-1.98-4.59-3.19-6.58-5.22
		c-2.04-2.07-4.65-3.57-6.93-5.42c-1.01-0.82-2.13-1.73-2.67-2.85c-0.7-1.45,1.11-2.24,1.51-3.38c1.16-3.3,2.9-6.3,4.36-9.45
		c0.89-1.91,1.87-3.76,2.59-5.78c0.95-2.65,1.98-2.7,4.61-1.66c4.99,1.98,9.45,4.95,14.21,7.35c1.58,0.8,2.6,2.59,4.56,2.86
		C99.79,135.43,100.46,136.09,102.01,135.83z"/>
	<path class="st11" d="M107.99,178.36c-2.55,2.38-3.4,2.23-5.14-0.91c-2.91-5.25-6.92-9.59-11.37-13.54
		c-1.78-1.58-1.51-2.54,0.02-4.19c2.83-3.07,6.43-5.29,9.82-7.28c3.34-1.96,6.58-4.28,10.2-5.92c2.44-1.11,4.42-0.7,5.92,0.6
		c3.71,3.19,7.08,6.77,10.54,10.25c1.5,1.51,1.37,2.98-0.43,4.1c-5.24,3.24-9.39,7.69-13.68,12c-0.21,0.21-0.58,0.28-0.87,0.41
		C110.5,173.86,108.81,175.37,107.99,178.36z"/>
	<path class="st11" d="M135.41,78.75c0.09-0.14,0.18-0.27,0.27-0.41c7.13-0.12,13.23-3.2,19.08-6.84c0.73-0.46,2.12-0.29,2.22-1.65
		c1.17-0.01,2.34-0.02,3.51-0.03c0.33,0.05,0.75-0.01,0.96,0.17c3.78,3.32,8.31,5.52,12.4,8.38c0.1,0.07,0.1,0.31,0.14,0.47
		c-0.33,2.65,1.62,1.9,2.99,2.01c1.85,0.6,2.55,2.78,4.55,3.28c0.67,0.17,0.48,1.16,0.39,1.8c-0.15,1.07-1.05,0.93-1.76,0.89
		c-4.47-0.22-8.88,0.62-13.1,1.67c-4.83,1.2-9.62,2.79-14.24,4.85c-1.69,0.75-3.12,1.88-4.84,2.51c-1.48,0.24-2.78-0.24-4-1
		c0,0,0,0,0,0c0.11-1.72,0.09-3.37-1.97-4.02c-0.78-2.93-2.17-5.62-3.81-8.1C137.31,81.41,136.88,79.69,135.41,78.75z"/>
	<path class="st11" d="M171.52,93.88c5.69-0.37,11.34-1.43,17.09-1.08c1.68,0.1,3.3,0.45,4.28,1.58c3.08,3.5,7.23,5.76,10.29,9.24
		c1.66,1.88,3.82,3.1,5.7,4.67c1.17,0.98,1.74,1.8-0.37,2.8c-3.74,1.78-7.06,4.47-10.76,6.2c-3.34,1.57-6.74,3.65-10.74,3.61
		c-1.24-0.01-2.19-0.21-2.05-1.74c0.09-0.95-0.67-1.49-1.01-2.21c-2.38-4.97-4.84-9.9-7.3-14.83c-0.08-0.16-0.44-0.19-0.67-0.28
		c0.2-1.52-0.45-2.19-1.98-2.01c-0.03-0.32-0.05-0.64-0.08-0.96c-0.54-1.44-1.57-2.39-2.95-3.01c0,0,0,0,0,0
		C170.94,95.13,171.12,94.47,171.52,93.88z"/>
	<path class="st11" d="M63.98,175.86c-1.58-0.92-2.72-2.34-4.03-3.56c-1.28-1.19-2.43-2.5-3.74-3.65c-3.05-2.67-3.19-3.45-0.22-6.23
		c2.76-2.59,4.13-6.02,6.13-9.07c1.07-1.62,2.24-3.14,3.13-4.91c0.54-1.08,1.94-0.9,2.77,0c3.13,3.42,7.26,5.65,10.45,9.03
		c0.97,1.03,2.41,1.89,3.58,2.91c1.11,0.96,1.22,1.86,0.05,2.88c-3.98,3.46-6.98,7.97-11.58,10.76c-0.71,0.43-0.44,1.18-0.55,1.81
		c-1.83-0.5-3.21,1.16-4.97,1.02c0,0,0,0,0,0C64.96,176.2,64.63,175.87,63.98,175.86z"/>
	<path class="st11" d="M87.45,189.93c-3.1-1.36-6.56-1.96-9.61-3.73c-2.4-1.39-4.28-3.57-7.04-4.42c-1.19-0.36-0.93-1.26-0.26-1.93
		c4.82-4.8,9.65-9.58,14.51-14.34c0.92-0.9,1.59-0.96,2.84,0.08c4.97,4.17,8.97,8.97,12.41,14.52c1.95,3.15,1.06,3.86-1.34,5.42
		C95.42,187.82,91.53,188.86,87.45,189.93z"/>
	<path class="st14" d="M37.98,97.85c1.78-1.46,3.82-2.81,5.77-3.68c1.76-0.78,3.4-1.98,4.91-2.89c2.84-1.72,5.86-3.26,8.7-4.93
		c3-1.76,6.56-2.78,9.71-4.5c3.32-1.81,7.12-2.42,10.43-4.19c1.28-0.69,2.95-0.15,3.97-1.59c0.34-0.48,1.32-0.24,1.48,0.66
		c0.53,3,0.17,5.9-1.18,8.63c-0.39,0.79-1.36,0.49-2.06,0.47c-5.51-0.13-9.94,2.7-14.48,5.24c-2.77,1.55-5.1,3.86-8.23,4.79
		c-2.07-0.1-3.06,0.9-3.03,2.95c-0.65,0.08-1.35-0.08-1.89,0.46c-3.28,3.29-8.02,4.28-11.51,7.3c-1.1,0.95-2.47,0.83-3.11-1.12
		c-0.4-1.21-0.26-2.72-1.47-3.62c-0.39-1.24,0.72-1.98,0.98-3c0,0,0.01-0.01,0.01-0.01C37.64,98.84,37.96,98.5,37.98,97.85z"/>
	<path class="st11" d="M162.11,110.04c3.88-0.1,6.81-2.06,9.87-3.56c1.45-0.71,2.19-0.73,2.99,0.7c1.9,3.39,4.62,6.32,5.24,10.4
		c0.17,1.14,1.3,2.1,1.74,3.24c1.6,4.24,3.12,8.51,4.63,12.79c0.51,1.45-0.61,2.16-1.63,2.14c-2.04-0.03-3.59,0.95-5.26,1.8
		c-0.9,0.46-1.94,0.63-2.72-0.33c-1.07-1.31-2.39-3.07-2.65-4.22c-0.89-3.85-3.15-6.86-4.89-10.17
		C167.2,118.59,164.26,114.74,162.11,110.04z"/>
	<path class="st11" d="M23.98,109.85c1.7-0.96,2.02-3.32,4-3.99c1.51,0.38,2.49-1.39,4-1.01c0,0,0,0,0,0
		c0.01,0.64,0.33,0.98,0.97,1.02c-0.21,3.23,1.01,6.28,1.3,9.47c0.25,2.81,0.54,5.77,1.49,8.54c0.34,0.99,0.24,1.57-0.95,2.08
		c-4.25,1.78-8.06,4.3-11.56,7.33c-1.2,1.04-2.68,0.98-3.78-0.29c-1.47-1.7-2.42-3.54-2.56-5.98c-0.27-4.46,0.67-8.47,3.09-12.17
		c1.06-0.28,1.75-0.92,1.98-2.01c0,0,0.01-0.01,0.01-0.01C23.51,112.42,24.11,111.38,23.98,109.85z"/>
	<path class="st14" d="M48.3,160.77c-0.75,0.06-1.24-0.16-1.47-0.63c-1.32-2.68-3.92-4.38-5.91-6.27
		c-3.47-3.29-6.03-7.48-10.12-10.23c-1.39-0.94-2.92-2.14-4.09-3.58c-1.02-1.25-1.14-2.45,0.11-3.47c2.61-2.12,5.18-4.36,8.41-5.51
		c1.65-0.59,2.37,0.55,2.73,2.01c1.11,4.5,2.64,8.77,5.29,12.7c2.12,3.14,4.89,5.56,7.44,8.23c0.84,0.88,1.85,1.91,1.15,3
		C50.9,158.49,49.77,159.95,48.3,160.77z"/>
	<path class="st14" d="M210.99,116.54c-0.42,1.57-1.63,3.6-3.24,4.88c-2.46,1.96-4.74,4.06-7.03,6.19
		c-2.73,2.53-6.38,3.63-9.37,5.78c-0.48,0.35-1.27,0.54-1.28-0.39c0-2.41-1.92-4.04-2.37-6.4c-0.43-2.25,0.57-2.28,1.81-2.7
		c2.46-0.82,5.2-1.16,7.36-2.47c2.39-1.45,4.95-2.58,7.27-4.14c1.55-1.04,3.33-1.73,5.01-2.56
		C210.9,113.85,211,113.92,210.99,116.54z"/>
	<path class="st14" d="M171.97,101.88c-0.86,2.32-3.23,2.79-5.05,3.51c-1.88,0.74-3.85,1.74-6.09,1.52
		c-1.22-0.12-2.26-0.52-2.6-1.54c-0.46-1.36-1.4-2.25-2.34-3.13c-1.34-1.26-0.89-2.38,0.34-3c2.52-1.27,5.16-2.34,7.82-3.32
		c1.4-0.52,2.71,0.23,3.92,0.95c0.02,0.71,0.37,1.21,1.02,1.49c0,0.16,0.01,0.32,0.03,0.48
		C169.71,100.13,170.73,101.11,171.97,101.88z"/>
	<path class="st13" d="M134,109.88c-0.73,2.31-3.05,2.23-4.73,2.85c-1.07,0.4-2.22,0.58-3.05,1.39c-1.28,1.25-2.82,0.51-4.23,0.73
		c1.65-1.34,3.5-2.44,5.53-2.9c1.22-0.28,2.42-0.28,3.26-1.35C131.65,109.49,132.89,109.96,134,109.88z"/>
	<path class="st5" d="M33.56,96.94c-0.23-0.32,0-1.36-0.47-0.97c-0.86,0.71-1.78,1.31-2.59,0.66c-0.93-0.74,0.73-1.45,0.5-2.37
		c-0.07-0.29,0.05-0.63,0.11-1.17c0.77,0.87,1.14,2.02,2.6,1.32c1.25-0.6,0.39-1.25,0.28-2.05c1.2,0.3,1.49,1.02,1.24,2
		c-0.18,0.69,0.15,0.89,0.72,0.96C35.46,96.33,34.65,96.85,33.56,96.94z"/>
	<path class="st13" d="M44,109.87c-0.11,0.68,0.28,1.76-0.73,1.87c-3.32,0.35-3.52,2.59-3.31,5.14c-1.54-1.62-1.46-4.46,0.3-5.36
		C41.46,110.91,42.34,109.47,44,109.87z"/>
	<path class="st13" d="M107.99,178.36c0.82-2.99,2.5-4.5,5.01-4.49C111.84,175.93,110.12,177.37,107.99,178.36z"/>
	<path class="st13" d="M39.98,117.86c1.19,0.17,0.99,1.1,1,1.88c0.02,2.03,0.01,4.07,0.02,6.1c-1.2-0.17-0.99-1.1-0.99-1.88
		C39.98,121.93,39.98,119.89,39.98,117.86z"/>
	<path class="st13" d="M162.47,141.82c1.15-2.62,3.5-1.84,5.53-1.95C166.61,141.8,164.59,141.97,162.47,141.82z"/>
	<path class="st13" d="M164.98,121.86c-2.9-0.24-2.42-2.72-2.99-4.51C164.29,117.99,164.51,120,164.98,121.86z"/>
	<path class="st13" d="M87.97,122.87c2.36-0.31,3.99,0.49,4.52,2.97C90.63,125.4,89.33,124.09,87.97,122.87z"/>
	<path class="st13" d="M31.99,104.85c-1.52-0.38-2.49,1.38-4,1.01c0.3-1.48,1.72-2.02,2.71-2.57
		C32.46,102.3,31.73,104.14,31.99,104.85z"/>
	<path class="st13" d="M64.99,176.85c1.75,0.14,3.14-1.52,4.97-1.02C68.04,178.09,66.45,178.41,64.99,176.85z"/>
	<path class="st0" d="M160.5,69.82c-1.17,0.01-2.34,0.02-3.51,0.03c0.34-1.1,0.99-1.98,2.21-1.9C160.18,68.03,160.33,69,160.5,69.82
		z"/>
	<path class="st0" d="M155.99,143.86c1.12-1.51,2.65-2.1,4.5-1.97C159.52,143.76,157.83,143.98,155.99,143.86z"/>
	<path class="st13" d="M53.97,98.82c-0.03-2.05,0.96-3.06,3.03-2.95C56.35,97.22,55.41,98.28,53.97,98.82z"/>
	<path class="st13" d="M143.98,94.85c1.23,0.76,2.53,1.24,4,1c-0.58,1.78-2.04,0.92-3.1,0.91
		C143.73,96.75,144.06,95.61,143.98,94.85z"/>
	<path class="st13" d="M142.01,90.84c2.06,0.65,2.08,2.3,1.97,4.02C142.58,93.88,142.08,92.47,142.01,90.84z"/>
	<path class="st0" d="M171.97,101.88c-1.24-0.76-2.26-1.74-2.96-3.03C171.18,98.69,172.17,99.7,171.97,101.88z"/>
	<path class="st0" d="M170.99,95.85c1.38,0.62,2.41,1.57,2.95,3.01C171.82,98.97,171.12,97.69,170.99,95.85z"/>
	<path class="st0" d="M168.99,128.85c-1.49-0.92-2.05-2.3-2.01-3.99C168.7,125.65,169.08,127.13,168.99,128.85z"/>
	<path class="st0" d="M53.98,149.89c0.84,0,1.68,0,2.52,0c-0.21,0.88-0.34,1.92-1.54,1.88C53.67,151.73,54.09,150.64,53.98,149.89z"
		/>
	<path class="st13" d="M176.99,80.85c-1.38-0.11-3.32,0.64-2.99-2.01C175.11,79.34,176.47,79.47,176.99,80.85z"/>
	<path class="st0" d="M47.97,143.88c1.51,0.42,2.13,1.45,2.01,2.97C48.5,146.41,47.87,145.39,47.97,143.88z"/>
	<path class="st13" d="M23.98,109.85c0.12,1.53-0.47,2.58-2.02,2.98C21.87,111.31,22.5,110.29,23.98,109.85z"/>
	<path class="st13" d="M102.01,135.83c-1.55,0.26-2.22-0.4-2.04-1.95C101.51,133.63,102.17,134.3,102.01,135.83z"/>
	<path class="st13" d="M174.02,99.83c1.52-0.18,2.18,0.5,1.98,2.01C174.43,102.06,173.76,101.4,174.02,99.83z"/>
	<path class="st13" d="M121.99,114.86c-0.92,1.97-2.68,0.59-3.99,1.01C118.91,113.87,120.68,115.26,121.99,114.86z"/>
	<path class="st0" d="M36.97,98.85c-0.26,1.02-1.37,1.77-0.98,3c-1.23-0.17-1.06-1.08-0.92-1.88
		C35.26,98.93,36.11,98.84,36.97,98.85z"/>
	<path class="st0" d="M45.99,141.84c1.4-0.05,2.1,0.58,1.97,2.03C46.41,144.06,45.77,143.37,45.99,141.84z"/>
	<path class="st13" d="M21.96,112.83c-0.23,1.09-0.92,1.74-1.98,2.01C19.77,113.32,20.43,112.65,21.96,112.83z"/>
	<path class="st0" d="M171.52,93.88c-0.4,0.6-0.58,1.25-0.53,1.97c-0.69-0.07-1.03-0.43-0.95-1.13
		C170.15,93.78,170.87,93.88,171.52,93.88z"/>
	<path class="st13" d="M85.97,121.87c0.73-0.02,1.45-0.02,1.51,0.99C86.75,122.88,86.04,122.86,85.97,121.87z"/>
	<path class="st0" d="M168.98,98.36c-0.65-0.29-1-0.78-1.02-1.49C168.99,96.9,168.99,97.62,168.98,98.36z"/>
	<path class="st0" d="M37.98,97.85c-0.02,0.65-0.34,0.99-1,0.99C37.01,98.2,37.35,97.88,37.98,97.85z"/>
	<path class="st13" d="M32.96,105.87c-0.64-0.04-0.96-0.38-0.97-1.02C32.64,104.88,32.98,105.2,32.96,105.87z"/>
	<path class="st13" d="M63.98,175.86c0.65,0.01,0.99,0.34,1.01,0.99C64.34,176.84,64.01,176.5,63.98,175.86z"/>
	<path class="st8" d="M86.98,43.35c-0.69-5.29,0.97-10.05,4.03-14.14c3.64-4.86,8.45-8.24,14.6-9.54c3.22-0.68,6.26-0.15,9.29,0.7
		c1.9,0.53,1,1.87,0.59,3c-1.53,0.1-3.03-0.09-4.5-0.49c-2.84-0.4-5.64-0.56-8.05,1.44c-0.32,0.01-0.63,0.02-0.95,0.04
		c-1,0.04-1.54,0.73-2.04,1.47c-5.84,2.65-10.67,10.75-9.38,17.89c0.22,1.21,0.68,2.39,1.42,3.42c0.63,0.88,1.35,1.82,0.75,2.95
		c-0.59,1.12-1.75,0.65-2.7,0.73c-0.05-0.4-0.13-0.78-0.54-0.98C87.96,47.95,87.23,45.75,86.98,43.35z"/>
	<path class="st9" d="M102.94,24.32c2.41-2,5.21-1.84,8.05-1.44c-1.53,2.69-4.26,1.32-6.42,1.87
		C104.09,24.87,103.48,24.48,102.94,24.32z"/>
	<path class="st9" d="M99.94,25.83c0.5-0.74,1.04-1.43,2.04-1.47C102.11,25.97,101.02,25.89,99.94,25.83z"/>
	<path class="st9" d="M89.49,49.85c0.41,0.2,0.49,0.58,0.54,0.98C89.4,50.75,88.75,50.69,89.49,49.85z"/>
	<path class="st4" d="M107.49,101.82c-0.05-0.97,0.29-1.53,1.38-1.45c1.39,0.1,1.03,1.16,1.12,1.97c0,0-0.02,0.02-0.02,0.02
		c-0.16,0.16-0.31,0.31-0.47,0.47c-0.07,0.08-0.14,0.17-0.2,0.26C108.46,103.01,107.83,102.62,107.49,101.82z"/>
	<path class="st1" d="M87.48,24.77c0.13-0.14,0.26-0.29,0.39-0.43C87.89,24.62,87.76,24.77,87.48,24.77z"/>
	<path class="st1" d="M142.02,63.37c-0.09,0.64-0.18,1.29-0.26,1.93C142.11,64.7,138.85,63.59,142.02,63.37z"/>
	<path class="st1" d="M139.24,63.99c-0.07-0.14-0.19-0.26-0.19-0.38c0-0.12,0.12-0.24,0.19-0.36c0.07,0.12,0.19,0.24,0.19,0.36
		C139.43,63.72,139.31,63.85,139.24,63.99z"/>
	<path class="st7" d="M109.95,103.89c0.07-0.07,0.14-0.14,0.21-0.21c-0.01,0.04-0.01,0.1-0.04,0.12
		C110.06,103.84,110,103.86,109.95,103.89C109.95,103.89,109.95,103.89,109.95,103.89z"/>
	<path class="st7" d="M109.5,102.83c0.16-0.16,0.31-0.31,0.47-0.47C109.82,102.52,109.66,102.68,109.5,102.83z"/>
	<path class="st4" d="M80.48,46.33c-0.18,0.16-0.35,0.33-0.53,0.49c-1.08-1.33,0.22-1.44,0.95-1.85
		C80.76,45.42,80.62,45.87,80.48,46.33z"/>
	<path class="st15" d="M146.78,114.35c6.89-0.44,11.19,4.53,12.07,10.44c0.62,4.17-1.53,7.89-4.39,10.69
		c-5.04,4.94-11.43,7.71-18.43,7.2c-7.29-0.53-14.3-2.36-18.38-9.73c-1.98-3.59-1.19-7.82,2.16-9.99c3.78-2.45,7.92-4.04,12.26-5.31
		c3.73-1.09,7.4-2.35,11.25-3.04C144.48,114.41,145.62,114.42,146.78,114.35z"/>
</g>
</svg>
