<?xml version="1.0" encoding="utf-8"?>
<!-- Generator: Adobe Illustrator 23.0.6, SVG Export Plug-In . SVG Version: 6.00 Build 0)  -->
<svg version="1.1" id="Calque_1" xmlns="http://www.w3.org/2000/svg" xmlns:xlink="http://www.w3.org/1999/xlink" x="0px" y="0px"
	 viewBox="0 0 155.37 221.94" style="enable-background:new 0 0 155.37 221.94;" xml:space="preserve">
<style type="text/css">
	.st0{fill:#FEFCEF;}
	.st1{fill:#E49C42;}
	.st2{fill:#E48239;}
	.st3{fill:#E08149;}
	.st4{fill:#E9BC51;}
	.st5{fill:#75418E;}
</style>
<g>
	<path class="st0" d="M60.44,176.89L60.44,176.89c-1.26,1.87-2.49,3.76-2.97,6.01l-0.01,0.02c-1.93,2.82-3.3,5.95-4.8,9
		c-0.06,0.18-0.11,0.36-0.17,0.54c-2.9,5.6-5.82,11.19-8.7,16.8c-0.53,1.03-0.06,1.91,0.69,2.66c1.24,2.91,3.6,4.77,6.3,6.09
		c10.13,4.95,20.6,4.82,31.22,1.81c2.98-0.77,5.87-1.73,8.23-3.83c4.04-1.73,6.49-4.86,7.71-8.97c4.2-14.24,8.15-28.55,13.61-42.38
		c0.48-1.21,0.75-2.54,1.98-3.29c0.24,1.31,0.78,2.42,2.27,2.51c1.42,0.09,2.36-0.73,2.66-2.09c0.15-0.65,0.41-0.8,0.99-0.75
		c1.99,0.16,2.41-1.45,2.42-2.72c0.01-1.42-1.29-1.65-2.58-1.42c-0.47,0.08-1.01,0.06-1.3-0.47c0.26-0.77,0.73-1.38,1.37-1.88
		c1.21,0.74,2.35,0.59,3.27-0.43c1.31-1.43,0.11-2.7-0.39-4.01c1.9-1.78,3.17-3.97,4.23-6.31c1.21-2.19,2.54-4.33,3.09-6.82
		c0.35-0.74,0.82-1.45,1.05-2.23c2.24-7.6,4.44-15.21,6.66-22.81c0.42-1.77,0.95-3.51,1.24-5.3c1.75-10.8,3.15-21.65,5.45-32.37
		c1.25-5.85,3.19-11.48,5.18-17.07c1.09-3.07,2.59-6.02,3.29-9.22c0.9-4.14,0.16-4.98-4.15-5.14c-0.34-0.35-0.86-0.74-0.48-1.25
		c1.17-1.56,1.07-3.5,1.66-5.23c1.51-4.42,3.01-8.85,4.02-13.43c0.37-0.9,0.63-1.87,1.12-2.7c1.37-2.32,0.95-3.74-1.48-4.91
		c-1.49-0.72-4.11-0.07-4.43-1.65c-0.31-1.5,1.1-3.35,1.75-5.05c0.09-0.23,0.12-0.48,0.21-0.72c1.88-4.9,0.86-6.34-4.4-6.23
		c-0.58,0.01-1.21-0.03-1.73,0.17c-1.86,0.72-3.48,0.35-4.99-0.86l-0.13-0.09c-1.32-0.89-2.64-1.43-3.98-0.02
		c-0.16-0.03-0.3,0-0.44,0.07c-2.18-0.12-2.67,2.42-4.51,2.84c-0.49,0.11-0.97,0.22-1.46,0.32c-1,0.18-1.83-0.33-2.7-0.66
		c-0.95-0.96-2-0.55-2.91-0.07c-2.74,1.44-4.57,3.79-6.02,6.46c-0.52,0.51-1.04,0.99-1.49,1.62c-2.52,3.57-5.07,7.13-7.74,10.61
		c-4.77,6.22-10.2,11.92-14.74,18.33c-1.11,0.08-1.52-0.82-2.12-1.49c-2.59-2.9-6.63-3.29-9.8-0.96c-1,0.52-1.63,1.42-2.35,2.23
		c-1.57-1.23-2.95-2.84-5.21-2.78c-1.7-1.37-3.44-1.1-4.22,0.97c-1.17,3.08-2.32,6.21-2.11,9.62c-2.32,7.84-6.17,15.02-9.65,22.36
		c-4.28,9-7.76,18.12-7.73,28.35c0.01,3.4,0,7-1.28,10.33c-2.64,6.87-7.66,11.53-14,14.93c-6.54,3.52-13.74,4.83-20.96,5.94
		c-2.27,0.35-4,1.13-5.4,3.05c-4.08,5.56-6.3,11.87-7.45,18.54c-2.65,15.35-1.03,29.94,8.1,43.16c1.32,1.91,2.36,1.92,4.02,0.85
		c11.38-7.28,22.78-14.55,34.17-21.82c5.88-3.75,11.74-7.51,17.65-11.22c0.73-0.46,1.65-1.76,2.51-0.05
		c-2.06,4.15-4.11,8.29-6.17,12.44C60.58,175.26,60.48,176.06,60.44,176.89z"/>
	<path class="st1" d="M73.95,37.38c2.26-0.06,3.63,1.55,5.2,2.78c0.21,0.46,0.48,0.95,0.15,1.41c-1.03,1.46-1.76,2.61,1.02,1.45
		c0.63-0.27,1.14,0.24,1.13,0.95c-0.03,2.91,0.88,5.75,0.51,8.68c-0.08,0.61-0.77,1.39,0.01,1.81c0.87,0.47,1.24-0.56,1.73-1.02
		c3.55-3.37,5.48-7.98,8.8-11.54c0.68-0.28,0.99-0.78,0.93-1.52c4.54-6.41,9.97-12.11,14.74-18.33c2.66-3.47,5.21-7.03,7.74-10.61
		c0.44-0.62,0.96-1.1,1.48-1.62c0.77,0.15,0.97,0.67,1.12,1.4c0.62,3.1,3.69,4.08,6.14,2.02c0.75-0.63,1.54-1.23,2.31-1.85
		c-0.61,1.35-0.99,2.86-1.86,4.02c-4.89,6.57-9.97,13.01-14.8,19.62c-0.82,1.13-2.35,0.47-3.01,2.16c-0.92,2.35-2.55,4.71-4.31,6.36
		c-3.09,2.9-4.43,6.37-5.49,10.17c-1.92-0.1-2.81,0.79-2.64,2.71c-1.29,1.2-1.92,2.95-3.4,3.98c-3.06-1.07-3.52-0.9-4.31,2.03
		c-0.28,1.05-0.62,1.48-1.78,1.53c-1.12,0.05-1.8,0.92-1.97,2.11c-0.17,1.22,0.34,2.13,1.33,2.66c1,0.53,2.03-0.02,2.75-0.62
		c1.34-1.14,0.09-2.57,0.04-3.9c3.04,0.78,3.84,0.39,4.9-2.26c0.84-0.87,1.78-1.66,2.6-2.52c1.42-1.48,1.99-0.8,2.59,0.57
		c-0.29,3.76,0.02,4.06,3.91,3.87c0.32,1.25-1.2,1.86-1.05,3.05c-0.32-0.01-0.65-0.02-0.97-0.02c-0.4-1.37-1.79-1.11-2.7-1.65
		c-0.07,0.31-0.29,0.68-0.18,0.91c0.57,1.25,1.74,0.51,2.63,0.73c0.08,0.02,0.16,0.01,0.25,0.01c0.19,1-0.4,2.13,0.52,3
		c0.11,0.6-0.69,1.16,0.03,1.95c1.03-1.31,2.48-2.22,2.93-3.93c0.51-0.67,1.01-1.34,1.52-2.01c2.38-3.24,4.75-6.49,7.13-9.73
		c0.49-0.67,1-1.33,0.91-2.23c0.99-0.32,1.67-0.95,1.99-1.96c0.34-0.69,0.69-1.37,1.03-2.06c0.76-0.56,0.68-1.89,1.89-2.04
		c-0.11,1.03-0.66,1.98-0.47,3.09c0.22,1.25,0.92,1.94,2.14,1.85c1.16-0.09,2.2-0.58,2.4-1.92c0.33-2.21-0.83-3.35-3.53-3.56
		c0.28-1.24,0.88-2.32,1.65-3.31c3.53-4.56,6.63-9.42,9.97-14.12c1.97-2.77,3.42-5.99,6.34-8.02c0.63,0.01,1.05,0.39,1.54,0.73
		c1.6,1.14,3.04,1.26,4.53-0.42c4.49-5.03,4.42-5.35-1.47-8.63c-1.26-0.7-1.88-0.39-2.39,0.59c-0.8,1.54-1.47,3.16-2.19,4.75
		c-2.29,0.82-3.18,3.02-4.42,4.76c-3.95,5.56-7.74,11.25-11.49,16.95c-1.62,2.46-4.01,4.43-4.72,7.46c-4.42-0.6-5-0.2-4.77,3.32
		c-0.16,0.8,0.02,1.4,0.93,1.57c-0.09,0.98-0.87,1.59-1.31,2.38c-1.69,3.03-4.5,5.32-5.74,8.65c-0.99-0.03-1.99-0.06-2.98-0.09
		c1.38-3.19,1.07-4-1.86-4.89c-0.63-0.1-1.05-0.33-0.65-1.06c1.07-1.22,0.48-2.64,0.47-3.99c0.03-0.19,0.06-0.37,0.09-0.56
		c2.58-0.15,3.22-1.73,2.95-3.99c2.46-4.61,5.73-8.67,8.74-12.9c2.25-3.16,4.92-6.01,7.2-9.15c0.81-1.12,2.71-1.14,2.84-2.07
		c0.42-3.19,2.71-5.21,4.33-7.57c1.67-2.43,2.78-5.25,4.97-7.33c1.81,1.62,3.78,1.8,5.79,0.46c3.37-2.25,5.64-4.47,0.97-7.46
		c-0.93-0.6-1.97-1.26-2.32-2.48c0.14-0.08,0.29-0.1,0.44-0.07c1.32,0.01,2.65,0.02,3.98,0.02c0,0,0.13,0.09,0.12,0.09
		c2.92,3.61,4.21,7.44,1.21,11.9c0.63-0.03,0.98,0.04,1.26-0.07c3.94-1.53,5.71-0.55,5.39,3.56c-0.22,2.74,1.31,6.01-1.77,8.22
		c-0.26,0.19-0.1,0.95-0.14,1.45c-0.04,0.57,0.03,1.13-0.34,1.66c-2.56,3.73-4.78,7.65-6.58,11.85c6.88,1.49,8.43,3.99,6.21,9.67
		c-2.95,7.54-6.26,14.92-9.89,22.18c-1.65,3.31-3.54,6.57-4.92,9.91c-1.47,3.57-3.24,7-4.73,10.55c-0.61,1.45-1.5,2.8-1.26,4.48
		c-1.32,0.83-2.26,1.87-2.05,3.58c-0.87-0.07-1.23,0.36-1.6,1.16c-0.54,1.18-1.18,2.37-1.65,3.53c-1.5,3.73-4.59,6.69-5.19,10.83
		c-1.04,0.76-1.72,1.78-2.1,3.01c-1.69,1.45-2.21,3.31-1.9,5.45c-1.42,0.3-2.26,1.32-2.85,2.49c-4.09,8.17-9.11,15.69-15.35,22.39
		c-4.32,4.64-9.5,8.13-15.22,10.65c-1.9,0.84-4.02,2.3-6.27,1.75c-1.42-0.34-1.72,0.31-2.2,1.18c-0.86-1.71-1.78-0.41-2.51,0.05
		c-5.9,3.7-11.77,7.47-17.65,11.22c-11.39,7.27-22.79,14.54-34.17,21.82c-1.66,1.07-2.71,1.06-4.02-0.85
		c-9.12-13.22-10.74-27.8-8.1-43.16c1.15-6.67,3.37-12.98,7.45-18.54c1.41-1.92,3.13-2.7,5.4-3.05c7.22-1.11,14.42-2.42,20.96-5.94
		c6.33-3.4,11.36-8.06,14-14.93c1.28-3.33,1.29-6.93,1.28-10.33c-0.03-10.23,3.45-19.35,7.73-28.35c3.48-7.33,7.33-14.52,9.65-22.36
		c1.75,0.41,3.75,1.3,4.77-0.97c1.2-2.68,3.09-5.4,0.55-8.46C72.03,37.43,72.86,37.11,73.95,37.38z M132.98,50.12
		c0.83-1.33,1.21-2.92-0.16-3.83c-1.47-0.97-3.1-0.56-4.03,1.22c-0.46,0.43-0.22,1.44-1.2,1.43c-1.05-1.39-2.61-1.56-3.69-0.56
		c-1.08,1-0.96,2.89-0.03,3.91c1.03,1.13,2.57,0.89,3.69-0.39c1.36,0.03,0.51-2,1.84-1.99c0.74,0.04,1.06,0.7,1.58,1.06
		c-0.2,1.56-1.77,2.12-2.45,3.37c-2.26,4.13-5.13,7.87-7.93,11.64c-4.04,5.42-8.35,10.65-11.35,16.77
		c-0.54,1.11-1.82,1.91-1.59,3.37c0.55,0.12,0.73-0.16,0.93-0.43c2.38-3.35,4.68-6.78,7.95-9.38c0.45-0.36,0.66-0.92,0.97-1.4
		c1.73-2.72,3.24-5.56,4.83-8.36c2.63-4.65,6.09-8.83,9.19-13.2c0.53-0.74,1.13-1.47,0.95-2.48c0-0.16,0.06-0.31,0.17-0.43
		C132.8,50.37,132.91,50.26,132.98,50.12z M77.5,114.91c-1.3,1.02-0.51,1.99-0.01,3.05c0.69,1.46,1.83,1.05,2.95,0.89
		c1.52,0.24,2.66-0.37,2.92-1.86c0.22-1.25-0.95-1.01-1.73-1.07c-0.67-0.63-0.7-1.44-0.65-2.28c0.18-2.79,0.38-5.58,0.5-8.38
		c0.12-2.75,0.49-3.05,3.02-1.63c2.59,1.46,2.64-1.38,3.55-2.23c0.88-0.82-0.55-1.97-1.59-2.43c-0.93-0.42-2.03-0.39-2.85,0.25
		c-0.64,0.5-1.38,1.03-1.89,0.42c-0.73-0.88,0.05-1.56,0.79-2.17c0.51-0.42,1.49-1.14,0.58-1.75c-0.95-0.63-1.58-2.53-3.16-1.47
		c-1.29,0.87-2.98,1.86-1.44,3.9c-0.45,1.25-1.5,0.64-2.32,0.75c-1.78-0.23-3.28,0.36-3.44,2.21c-0.15,1.74,0.92,2.93,2.9,2.86
		c1.28-0.52,1.94-0.41,1.88,1.28C77.4,108.46,77.5,111.69,77.5,114.91z M58.91,79.23c0.21,0.15,0.42,0.29,0.63,0.44
		c6.96-7.57,13.92-15.14,20.88-22.71c-0.22-0.2-0.43-0.39-0.65-0.59C71.65,62.92,65.04,70.85,58.91,79.23z M135.18,46.79
		c-0.18,1.02,0.24,1.76,1.12,2.25c0.79,0.44,1.59,0.55,2.33-0.06c1.43-1.18,2.61-2.57,3.22-4.37c0.26-0.78,0.18-1.57-0.51-2.03
		c-1.21-0.82-2.38-2.14-3.88-1.96c-1.71,0.2-1.35,2.04-1.69,3.25C135.5,44.82,135.37,45.82,135.18,46.79z M79.54,89.46
		c0,0.66,0.01,1,0,1.33c-0.03,1.04,0.02,2.3,1.38,2.11c1.25-0.17,1.62-1.4,1.06-2.49c-0.67-1.31,0.03-2.32,0.6-3.23
		c0.86-1.41,0.45-2.53-0.39-3.62c-0.6-0.79-1.33-0.64-2.19-0.16c-1.47,0.83-1.25,2.19-0.87,3.24C79.51,87.72,79.5,88.73,79.54,89.46
		z M80.58,72.93c0.13,0.81,0.62,2.01,2.27,1.93c1.82-0.08,2.45-1.68,2.56-3c0.1-1.27-1.11-1.99-2.51-1.97
		C81.28,69.93,80.44,70.68,80.58,72.93z M83.02,78.91c0.04-0.73-0.18-1.52-1.14-1.41c-0.81,0.09-1.48,0.6-1.43,1.67
		c0.04,0.74,0.08,1.28,1.03,1.29C82.5,80.46,83.04,80.06,83.02,78.91z M107.29,87.56c-0.05-0.14-0.11-0.28-0.16-0.41
		c-0.14,0.05-0.35,0.07-0.39,0.17c-0.04,0.1,0.05,0.34,0.15,0.38C106.99,87.74,107.16,87.61,107.29,87.56z"/>
	<path class="st2" d="M113.49,115.45c0.6-4.14,3.69-7.1,5.19-10.83c0.47-1.16,1.11-2.36,1.65-3.53c0.36-0.8,0.73-1.23,1.6-1.16
		c0.17,1.16,1.32,1.23,2.02,1.43c1.48,0.43,2.85-0.15,3.27-1.77c0.37-1.45-0.07-2.61-1.86-2.78c-0.47-0.05-0.92-0.3-1.38-0.45
		c-0.24-1.68,0.66-3.02,1.26-4.48c1.49-3.56,3.26-6.98,4.73-10.55c1.37-3.34,3.26-6.6,4.92-9.91c3.63-7.25,6.93-14.63,9.89-22.18
		c2.22-5.68,0.67-8.19-6.21-9.67c1.81-4.21,4.02-8.12,6.58-11.85c0.37-0.54,0.3-1.1,0.34-1.66c0.03-0.5-0.12-1.26,0.14-1.45
		c3.08-2.21,1.55-5.48,1.77-8.22c0.32-4.11-1.45-5.1-5.39-3.56c-0.28,0.11-0.63,0.04-1.26,0.07c3-4.46,1.71-8.29-1.21-11.9
		c1.51,1.2,3.13,1.57,4.99,0.86c0.52-0.2,1.15-0.16,1.73-0.17c5.26-0.11,6.27,1.33,4.4,6.23c-0.09,0.23-0.12,0.48-0.21,0.72
		c-0.65,1.7-2.06,3.55-1.75,5.05c0.32,1.58,2.94,0.93,4.43,1.65c2.42,1.17,2.85,2.59,1.48,4.91c-0.49,0.83-0.76,1.8-1.12,2.7
		c-1.33,0.43-1.96,1.31-2,2.74c-0.04,1.9-0.81,3.7-1.63,5.3c-1.75,3.43-1.72,7.32-3.22,10.8c-0.47,1.1,0.79,1.14,1.64,1.06
		c4.31,0.16,5.06,1,4.15,5.14c-0.7,3.21-2.2,6.15-3.29,9.22c-1.99,5.59-3.93,11.21-5.18,17.07c-2.29,10.72-3.69,21.57-5.45,32.37
		c-0.29,1.79-0.82,3.54-1.24,5.3c-0.99,0.52-1.41,1.34-1.83,2.42c-1.31,3.4-0.58,7.58-3.84,10.24c-0.16,0.13-0.28,0.49-0.22,0.69
		c0.79,2.84-0.8,5.18-1.57,7.69c-0.12,0.4-0.01,0.84-0.58,0.84c-0.36,0-0.62-0.23-0.67-0.6c-0.12-0.86-0.55-1.61-1.43-1.11
		c-0.96,0.55,0.2,1.11,0.38,1.61c0.72,2.05-1.52,2.25-2.12,3.48c-0.3,0.62-0.72-0.73-1.28-0.86c-1.61-0.37-3.28-1.23-4.63,0.55
		c-1.55,1.36-1.51,2.72-0.03,4.1c0.1,0.58,0.44,0.91,1.03,0.97c0.01,0.46,0.02,0.92,0.03,1.38c-2.19,1.41-2.19,3.11,0,4.64
		c0,0.64,0,1.28,0,1.92c-2.35,1.88-2.56,2.74-1.13,4.64c-0.64,0.49-1.12,1.1-1.37,1.87c0,0,0.04,0.01,0.04,0.01
		c-0.45-0.11-0.9-0.21-1.35-0.32c-0.09-0.05-0.14-0.12-0.15-0.21c1.36-1.86,0.27-3.01-1.18-4.06c0.39-1.68-0.54-2.86-1.73-3.69
		c-1.14-0.79-2.05,0.39-2.69,1.06c-0.93,0.98-0.21,2.35-0.25,3.55c-1.7,0.38-4.34,4-3.89,5.43c0.2,0.66,0.83,0.92,1.39,0.5
		c0.58-0.44,1.38-1.06,1.43-1.64c0.12-1.7,0.54-2.98,2.43-3.28c-0.17-0.26-0.34-0.53-0.5-0.79c0.66,0.01,1.32,0.02,1.98,0.03
		c0.33,0.65,0.67,1.29,1,1.94c-1.33,0.05-3-0.49-3.44,1.42c-0.38,1.63-0.13,3.13,1.97,3.55c0.8,0.16,0.52,0.89,0.51,1.44
		c-1.23,0.76-1.5,2.08-1.98,3.3c-5.46,13.83-9.41,28.15-13.61,42.38c-1.21,4.12-3.67,7.25-7.71,8.97c-1.06-0.05-2.15-0.33-2.99,0.69
		c-1.17,1.45-2.62,1.55-4.22,0.77c-0.42-0.21-0.93-0.62-1.33-0.09c-0.3,0.4-0.31,0.97,0.13,1.36c0.38,0.34,0.38,0.69,0.17,1.09
		c-10.62,3.02-21.09,3.15-31.22-1.81c-2.69-1.32-5.05-3.18-6.3-6.09c1.48-5.09,3.31-9.99,7.25-13.78c0.37-0.35,0.92-0.81,0.67-1.23
		c-0.92-1.54,0.39-2.97,0.09-4.45c0.06-0.18,0.11-0.36,0.17-0.54c0.62,0.38,1.22-1.85,1.8-0.04c0.3,0.95,0.87,1.32,1.61,0.77
		c0.61-0.46,0.69-1.33,0.02-1.91c-1.09-0.93-0.67-1.83-0.13-2.81c0.86-1.56,1.91-3.07,1.51-5.02c0,0,0.01-0.02,0.01-0.02
		c0.64-0.02,1.77,0.18,1.75-0.43c-0.07-2.19,1.46-2.62,3.26-2.96c-0.95-0.95-2.24-1.24-2.03-2.62c0,0,0,0,0,0
		c1.44-0.16,0.95-1.24,0.99-2.07c2.06-4.15,4.11-8.29,6.17-12.44c0.47-0.87,0.78-1.52,2.2-1.18c2.25,0.55,4.38-0.91,6.27-1.75
		c5.72-2.52,10.9-6.01,15.22-10.65c6.24-6.7,11.26-14.22,15.35-22.39c0.59-1.17,1.43-2.2,2.85-2.49c1.45,0.19,2.15-0.36,2-1.9
		c-0.07-0.73,0.03-1.47,0.05-2.2c0.31,0.07,0.62,0.14,0.93,0.21c0.14,0.24,0.26,0.66,0.44,0.69c0.52,0.09,0.53-0.39,0.59-0.75
		C115.67,117.57,115.67,116.96,113.49,115.45z M118.49,132.93c-0.05-0.32-0.04-0.69-0.46-0.74c-0.08-0.01-0.29,0.19-0.28,0.27
		C117.8,132.88,118.17,132.87,118.49,132.93c0.07,0.85-0.21,1.86,1.18,1.99c1.25,0.12,2.01-0.53,2.61-1.45
		c0.15-0.23,0.16-0.69,0.04-0.93c-0.27-0.53-0.63-0.23-0.97,0.02C120.47,133.22,119.44,132.82,118.49,132.93z M114.99,143.42
		c-0.46-0.32-1.02-0.57-1.35-0.99c-0.9-1.12-2.02-0.55-2.97-0.35c-1.12,0.23-0.55,1.37-0.68,2.11c-0.18,1.03,0.24,1.77,1.22,2.12
		c1.63,0.58,2.77-0.25,3.76-1.41c0.76,0.5,1.8,0.64,2.02,2.35C117.65,144.22,117.65,144.22,114.99,143.42z M120.46,112.99
		c-0.48,1.98,1.36,2.06,2.36,2.54c0.63,0.3,1.54-0.37,1.19-1.49c1.95-1.09,2.09-2.94,0.31-4.08
		C122.16,108.56,120.67,109.73,120.46,112.99z M124.4,126.85c1.71-0.59,1.88-2.29,1.78-3.51c-0.09-1.05-1.46-1.69-2.8-1.37
		c-1.28-0.12-2.63-0.07-3.21,1.21c-0.41,0.9-0.55,2.05,0.32,2.99C121.64,127.44,123.07,126.76,124.4,126.85z M111.47,132.95
		c0.01,0.67,0.03,1.34,0.04,2.01c-1.08,0.99-2.12,2.07-1.41,3.67c0.65,1.47,2.07,1.33,3.38,1.3c0.72-0.03,1.52,0.22,1.95-0.66
		c0.23-0.48,0.45-0.95,1-0.24c0.98,1.27,0.98,0.28,1.04-0.47c0.29-3.47-2.55-6.1-2.58-9.5c0-0.03-0.3-0.06-0.46-0.1
		c-0.33-0.03-0.71,0.03-0.98-0.12c-1.02-0.55-2.27-0.96-2.77,0.28C110.19,130.35,109.68,132,111.47,132.95z M126.02,105.67
		c-0.05-1.53-1.03-2.54-2.36-2.59c-1.21-0.05-2.23,0.79-2.2,2.34c0.03,1.33,0.36,2.47,1.87,2.58
		C124.89,108.12,126.11,107.61,126.02,105.67z M126.28,130.58c-1.7-1.73-3.65-1.75-5.65-1.63c-1.05,0.06-1.16,0.77-1.13,1.57
		c0.02,0.47,0.14,1.37,0.62,1.03C122.01,130.21,124.22,131.5,126.28,130.58z M127.85,123.59c-0.5,1.95-0.41,3.28-0.27,4.6
		c0.06,0.6,0.63,0.79,1.12,0.66c0.61-0.16,1.19-0.46,1.75-0.78c0.06-0.03-0.16-0.83-0.27-0.84
		C128.23,127.12,128.67,125.3,127.85,123.59z M107.55,151.97c1.58-0.8,0.42-2.95,1.93-3.7c0.24-0.12,0.29-0.58,0.03-0.87
		c-0.1-0.11-0.28-0.26-0.4-0.24c-0.71,0.11-1.34,0.7-1.39,1.22c-0.12,1.14-1.63,1.81-1,3.11
		C106.83,151.71,107.24,151.8,107.55,151.97z M108.49,134.66c-0.04-0.9-0.03-1.74-0.95-1.64c-1.93,0.22-0.49,2.34-1.65,3.14
		c-0.38,0.26,0.18,0.76,0.61,0.66C107.75,136.55,108.44,135.74,108.49,134.66z M125.22,131.73c-0.95,1.09-2.05,1.45-1.54,2.72
		c0.18,0.44,0.68,0.55,1.04,0.38C125.99,134.25,125.41,133.23,125.22,131.73z M118.34,113.6c0-1.38,0-2.75,0-4.7
		C117.24,110.79,117.35,112.18,118.34,113.6z M118.43,127.94c0-0.57-0.25-0.93-0.85-0.95c-0.55-0.02-0.96,0.19-1.02,0.79
		c-0.07,0.68,0.24,1.09,0.96,1.08C118.11,128.84,118.41,128.53,118.43,127.94z M109.8,163.67c0.64-1.03,1.15-2,0-2.64
		c-0.21-0.12-0.6,0.09-0.9,0.14C109.19,162,109.49,162.83,109.8,163.67z M138.82,75.66c-0.29,1.42-0.69,2.27,0.33,3.11
		C139.56,77.78,139.66,76.99,138.82,75.66z M118.26,142.29c-0.13-0.06-0.26-0.11-0.39-0.17c-0.06,0.13-0.19,0.29-0.15,0.39
		c0.04,0.09,0.24,0.12,0.37,0.18C118.15,142.56,118.21,142.42,118.26,142.29z"/>
	<path class="st2" d="M97.48,53.73c1.07-3.8,2.4-7.27,5.49-10.17c1.76-1.65,3.38-4.01,4.31-6.36c0.66-1.68,2.19-1.03,3.01-2.16
		c4.84-6.61,9.91-13.05,14.8-19.62c0.86-1.16,1.25-2.67,1.86-4.02c0.17-0.16,0.34-0.33,0.51-0.49c2.51-2.11,2.79-3.32,1.56-6.81
		c0.49-0.11,0.97-0.22,1.46-0.32c1.8,0.05,0.91,1.31,0.96,2.14c-0.58,0.56-0.93,1.23-0.89,2.06c0,0.81,0,1.63-0.01,2.44
		c-2.19,2.07-3.3,4.9-4.97,7.33c-1.63,2.36-3.91,4.38-4.33,7.57c-0.12,0.93-2.02,0.95-2.84,2.07c-2.28,3.13-4.95,5.99-7.2,9.15
		c-3.01,4.23-6.28,8.29-8.74,12.9c-1.25,1.14-3.03,1.88-2.95,3.99c-0.03,0.19-0.06,0.37-0.09,0.56
		C98.78,53.9,98.13,53.82,97.48,53.73z"/>
	<path class="st2" d="M92.5,41.89c-3.32,3.56-5.25,8.17-8.8,11.54c-0.49,0.46-0.86,1.49-1.73,1.02c-0.78-0.42-0.08-1.2-0.01-1.81
		c0.38-2.93-0.54-5.77-0.51-8.68c0.01-0.7-0.5-1.21-1.13-0.95c-2.78,1.16-2.05,0.02-1.02-1.45c0.33-0.47,0.06-0.96-0.15-1.41
		c0.72-0.81,1.36-1.71,2.35-2.23c2.48-0.43,4.89,1.38,7.4,0.21c0.08-0.04,0.39,0.24,0.5,0.43C90.18,39.91,91.01,41.21,92.5,41.89z"
		/>
	<path class="st3" d="M119.45,136.89c1.35-1.79,3.03-0.92,4.63-0.55c0.56,0.13,0.98,1.48,1.28,0.86c0.6-1.23,2.84-1.43,2.12-3.48
		c-0.18-0.5-1.34-1.06-0.38-1.61c0.88-0.5,1.32,0.25,1.43,1.11c0.05,0.38,0.31,0.6,0.67,0.6c0.57,0,0.46-0.44,0.58-0.84
		c0.76-2.52,2.36-4.85,1.57-7.69c-0.06-0.2,0.06-0.56,0.22-0.69c3.26-2.66,2.53-6.84,3.84-10.24c0.42-1.08,0.83-1.9,1.83-2.42
		c-2.21,7.61-4.42,15.21-6.66,22.81c-0.23,0.78-0.69,1.49-1.04,2.23c-1.44,0.1-4.65,2.98-4.06,3.56c1.06,1.04,1.03,2.07,0.97,3.26
		c-1.06,2.34-2.33,4.53-4.23,6.31c-0.58-0.07-1.17-0.14-1.75-0.2c0-0.64,0-1.28,0-1.92c0.62-0.28,1.28,0.66,1.98-0.2
		c0.81-1.01,1.44-1.99,1-3.3c-0.51-1.55-1.92-0.92-2.98-1.14c-0.01-0.46-0.02-0.92-0.03-1.38c0.09-0.09,0.18-0.18,0.27-0.28
		c1.93,0.1,3.75-1.13,3.54-2.6c-0.29-2.07-1.76-2.52-3.63-2.09c-0.32,0.07-0.65,0.08-0.97,0.12
		C119.59,137.03,119.52,136.96,119.45,136.89z"/>
	<path class="st4" d="M127.46,10.9c-0.17,0.16-0.34,0.33-0.51,0.49c-0.77,0.62-1.55,1.22-2.31,1.85c-2.45,2.06-5.52,1.08-6.14-2.02
		c-0.15-0.74-0.34-1.25-1.12-1.4c1.45-2.67,3.28-5.01,6.02-6.46c0.91-0.48,1.97-0.89,2.91,0.07c-0.46,0.09-0.99-0.17-1.48,0.34
		C127.85,5.36,127.63,8.14,127.46,10.9z"/>
	<path class="st4" d="M130.55,10.42c0-0.81,0-1.63,0.01-2.44c1.2-0.3,0.88-1.25,0.89-2.06c-0.05-0.83,0.84-2.09-0.96-2.14
		c1.84-0.42,2.34-2.96,4.51-2.84c0.35,1.22,1.39,1.88,2.32,2.48c4.67,3,2.4,5.21-0.97,7.46C134.33,12.22,132.36,12.04,130.55,10.42z
		"/>
	<path class="st5" d="M116.5,155.88c0.02,0.1,0.07,0.17,0.15,0.21c0.18,1.27,0.74,0.91,1.35,0.32c0,0-0.04-0.01-0.04-0.01
		c0.3,0.54,0.83,0.56,1.3,0.47c1.29-0.22,2.59,0,2.58,1.42c-0.01,1.27-0.43,2.89-2.42,2.72c-0.58-0.05-0.84,0.11-0.99,0.75
		c-0.31,1.36-1.24,2.18-2.66,2.09c-1.49-0.09-2.03-1.21-2.27-2.52c0-0.55,0.29-1.29-0.51-1.45c-2.1-0.42-2.34-1.92-1.97-3.55
		c0.44-1.9,2.11-1.37,3.44-1.42C114.6,156.43,115.76,155.7,116.5,155.88z"/>
	<path class="st4" d="M73.95,37.38c-1.09-0.26-1.92,0.06-1.01,1.15c2.53,3.06,0.64,5.78-0.55,8.46c-1.02,2.28-3.02,1.38-4.77,0.97
		c-0.21-3.4,0.93-6.54,2.11-9.62C70.51,36.28,72.25,36,73.95,37.38z"/>
	<path class="st3" d="M52.5,192.46c0.3,1.48-1.01,2.91-0.09,4.45c0.25,0.42-0.3,0.88-0.67,1.23c-3.94,3.79-5.77,8.7-7.25,13.78
		c-0.75-0.75-1.22-1.63-0.69-2.66C46.68,203.65,49.59,198.06,52.5,192.46z"/>
	<path class="st3" d="M148.26,42.83c-0.85,0.08-2.11,0.04-1.64-1.06c1.5-3.48,1.47-7.38,3.22-10.8c0.82-1.6,1.59-3.4,1.63-5.3
		c0.03-1.43,0.67-2.31,2-2.74c-1.01,4.57-2.51,9.01-4.02,13.43c-0.59,1.73-0.49,3.67-1.66,5.23
		C147.4,42.09,147.92,42.48,148.26,42.83z"/>
	<path class="st5" d="M120.47,149.89c0.58,0.07,1.17,0.14,1.75,0.2c0.5,1.3,1.71,2.57,0.39,4.01c-0.93,1.01-2.07,1.17-3.27,0.43
		C117.91,152.63,118.12,151.77,120.47,149.89z"/>
	<path class="st3" d="M92.5,41.89c-1.49-0.68-2.32-1.98-3.09-3.33c-0.11-0.19-0.41-0.47-0.5-0.43c-2.51,1.17-4.93-0.64-7.4-0.21
		c3.17-2.33,7.21-1.94,9.8,0.96c0.6,0.67,1.01,1.56,2.12,1.49C93.49,41.11,93.18,41.61,92.5,41.89z"/>
	<path class="st1" d="M127.46,10.9c0.16-2.76,0.38-5.54-2.63-7.13c0.49-0.51,1.02-0.24,1.48-0.34c0.87,0.34,1.7,0.84,2.7,0.66
		C130.25,7.58,129.98,8.79,127.46,10.9z"/>
	<path class="st3" d="M57.46,182.92c0.4,1.94-0.65,3.46-1.51,5.02c-0.54,0.98-0.96,1.88,0.13,2.81c0.68,0.58,0.6,1.46-0.02,1.91
		c-0.74,0.55-1.3,0.18-1.61-0.77c-0.57-1.81-1.18,0.41-1.8,0.04C54.16,188.86,55.53,185.74,57.46,182.92z"/>
	<path class="st2" d="M126.45,143.79c0.06-1.2,0.1-2.23-0.97-3.26c-0.59-0.58,2.61-3.46,4.06-3.56
		C129,139.46,127.66,141.6,126.45,143.79z"/>
	<path class="st3" d="M82,219.82c0.2-0.41,0.21-0.75-0.17-1.09c-0.44-0.39-0.43-0.96-0.13-1.36c0.39-0.53,0.91-0.12,1.33,0.09
		c1.6,0.78,3.05,0.68,4.22-0.77c0.83-1.03,1.93-0.74,2.99-0.69C87.87,218.1,84.98,219.05,82,219.82z"/>
	<path class="st3" d="M60.44,176.89c-0.21,1.38,1.08,1.67,2.03,2.62c-1.8,0.34-3.33,0.77-3.26,2.96c0.02,0.6-1.11,0.4-1.75,0.43
		C57.95,180.64,59.18,178.76,60.44,176.89z"/>
	<path class="st2" d="M139.41,0.89c-1.33-0.01-2.65-0.01-3.98-0.02C136.77-0.55,138.09,0,139.41,0.89z"/>
	<path class="st3" d="M61.43,174.82c-0.05,0.83,0.44,1.91-0.99,2.07C60.48,176.06,60.58,175.26,61.43,174.82z"/>
	<path class="st5" d="M80.45,118.85c-1.12,0.17-2.27,0.57-2.95-0.89c-0.5-1.05-1.29-2.03,0.01-3.04c0.17,0.12,0.33,0.24,0.51,0.35
		c0.01,0,0.13-0.11,0.13-0.17c0.08-3.72,0.42-7.47,0.09-11.15c-0.14-1.58-1.69-1.36-2.59,0.01c-1.98,0.07-3.05-1.11-2.9-2.86
		c0.16-1.84,1.66-2.44,3.44-2.21c0.67,1.31,1.77,1.28,2.75,0.6c0.55-0.38,0.53-1.15-0.43-1.35c-1.54-2.04,0.15-3.03,1.44-3.9
		c1.58-1.06,2.21,0.84,3.16,1.47c0.91,0.61-0.06,1.32-0.58,1.75c-0.74,0.61-1.52,1.29-0.79,2.17c0.51,0.61,1.25,0.08,1.89-0.42
		c0.82-0.64,1.92-0.67,2.85-0.25c1.04,0.46,2.46,1.62,1.59,2.43c-0.91,0.85-0.96,3.69-3.55,2.23c-2.53-1.42-2.9-1.11-3.02,1.63
		c-0.12,2.79-0.32,5.59-0.5,8.38c-0.06,0.85-0.02,1.65,0.65,2.28C82,117.2,80.72,117.82,80.45,118.85z"/>
	<path class="st2" d="M132.48,50.87c0.18,1.02-0.42,1.74-0.95,2.48c-3.1,4.38-6.56,8.56-9.19,13.2c-1.58,2.8-3.1,5.64-4.83,8.36
		c-0.31,0.48-0.52,1.04-0.97,1.4c-3.28,2.6-5.57,6.03-7.95,9.38c-0.19,0.27-0.38,0.55-0.93,0.43c-0.23-1.46,1.05-2.26,1.59-3.37
		c3-6.12,7.31-11.35,11.35-16.77c2.8-3.76,5.67-7.5,7.93-11.64c0.68-1.24,2.24-1.81,2.45-3.37
		C131.49,50.94,131.98,50.9,132.48,50.87z"/>
	<path class="st2" d="M135.94,21.92c-2.91,2.04-4.36,5.26-6.34,8.02c-3.34,4.69-6.44,9.56-9.97,14.12
		c-0.77,0.99-1.37,2.07-1.65,3.31c-0.18,0.18-0.36,0.36-0.54,0.54c-1.21,0.14-1.13,1.48-1.89,2.04c-0.07-0.61-0.15-1.23-0.22-1.84
		c0.72-3.03,3.11-5,4.72-7.46c3.75-5.7,7.54-11.38,11.49-16.95c1.24-1.74,2.13-3.94,4.42-4.76
		C135.96,19.93,135.95,20.93,135.94,21.92z"/>
	<path class="st4" d="M135.94,21.92c0.01-1,0.02-1.99,0.03-2.98c0.72-1.59,1.38-3.2,2.19-4.75c0.51-0.98,1.13-1.29,2.39-0.59
		c5.89,3.29,5.96,3.61,1.47,8.63c-1.49,1.67-2.93,1.55-4.53,0.42C136.99,22.31,136.57,21.93,135.94,21.92z"/>
	<path class="st2" d="M58.91,79.23c6.13-8.37,12.74-16.3,20.86-22.86c0.22,0.2,0.43,0.39,0.65,0.59
		c-6.96,7.57-13.92,15.14-20.88,22.71C59.33,79.52,59.12,79.37,58.91,79.23z"/>
	<path class="st4" d="M135.18,46.79c0.19-0.97,0.32-1.96,0.59-2.92c0.34-1.21-0.02-3.05,1.69-3.25c1.5-0.18,2.66,1.14,3.88,1.96
		c0.69,0.47,0.78,1.25,0.51,2.03c-0.61,1.8-1.78,3.18-3.22,4.37c-0.74,0.61-1.54,0.51-2.33,0.06
		C135.42,48.55,134.99,47.8,135.18,46.79z"/>
	<path class="st5" d="M92.4,61.98c-1.06,2.64-1.87,3.03-4.9,2.26c0.05,1.33,1.3,2.76-0.04,3.9c-0.72,0.61-1.75,1.16-2.75,0.62
		c-1-0.53-1.5-1.44-1.33-2.66c0.17-1.2,0.85-2.06,1.97-2.11c1.16-0.05,1.5-0.48,1.78-1.53c0.79-2.93,1.25-3.1,4.31-2.03
		C91.49,61.11,91.59,61.77,92.4,61.98z"/>
	<path class="st5" d="M79.54,89.46c-0.04-0.73-0.02-1.74-0.42-2.82c-0.38-1.04-0.6-2.41,0.87-3.24c0.86-0.48,1.59-0.63,2.19,0.16
		c0.84,1.09,1.25,2.21,0.39,3.62c-0.56,0.91-1.27,1.92-0.6,3.23c0.56,1.09,0.19,2.32-1.06,2.49c-1.36,0.18-1.4-1.07-1.38-2.11
		C79.55,90.46,79.54,90.13,79.54,89.46z"/>
	<path class="st5" d="M123.97,96.34c0.46,0.16,0.91,0.41,1.38,0.45c1.79,0.17,2.23,1.33,1.86,2.78c-0.41,1.63-1.78,2.21-3.27,1.77
		c-0.69-0.2-1.85-0.27-2.02-1.43C121.71,98.22,122.65,97.17,123.97,96.34z"/>
	<path class="st2" d="M112.53,53.97c0.09,0.9-0.42,1.56-0.91,2.23c-2.38,3.24-4.76,6.48-7.13,9.73c-0.01-0.63-0.02-1.27-0.04-1.9
		c1.24-3.34,4.05-5.62,5.74-8.65c0.44-0.79,1.22-1.4,1.31-2.38C112.19,52.94,112.45,53.36,112.53,53.97z"/>
	<path class="st5" d="M117.44,47.91c0.18-0.18,0.36-0.36,0.54-0.54c2.7,0.21,3.86,1.35,3.53,3.56c-0.2,1.34-1.25,1.83-2.4,1.92
		c-1.22,0.09-1.92-0.59-2.14-1.85C116.78,49.89,117.33,48.94,117.44,47.91z"/>
	<path class="st5" d="M80.58,72.93c-0.14-2.25,0.7-3,2.32-3.03c1.4-0.02,2.61,0.7,2.51,1.97c-0.11,1.31-0.74,2.92-2.56,3
		C81.2,74.94,80.71,73.75,80.58,72.93z"/>
	<path class="st5" d="M127.56,51.91c-1.12,1.27-2.66,1.51-3.69,0.39c-0.93-1.02-1.04-2.91,0.03-3.91c1.08-1,2.63-0.83,3.69,0.56
		C127.58,49.94,127.57,50.92,127.56,51.91z"/>
	<path class="st5" d="M101.51,63.9c-3.89,0.19-4.2-0.11-3.91-3.87c0.73-0.21,1.78,0.25,2.01-0.99c2.93,0.89,3.24,1.71,1.86,4.89
		C101.47,63.93,101.51,63.9,101.51,63.9z"/>
	<path class="st5" d="M132.48,50.87c-0.5,0.04-1,0.08-1.49,0.12c-0.53-0.35-0.85-1.02-1.58-1.06c-0.04-0.84,0.04-1.72-0.61-2.41
		c0.93-1.79,2.56-2.19,4.03-1.22c1.37,0.9,0.99,2.5,0.16,3.83c-0.28-0.07-0.47-0.04-0.33,0.32
		C132.54,50.56,132.48,50.7,132.48,50.87z"/>
	<path class="st5" d="M115.33,48.1c0.07,0.61,0.15,1.23,0.22,1.84c-0.34,0.69-0.69,1.38-1.03,2.06c-1.4,0.37-2.76,0.42-3.96-0.58
		C110.34,47.9,110.91,47.5,115.33,48.1z"/>
	<path class="st5" d="M97.48,53.73c0.65,0.09,1.3,0.18,1.94,0.26c0.01,1.35,0.59,2.77-0.47,3.99c-1.53-0.08-3.32,0.53-4.11-1.54
		C94.67,54.52,95.57,53.62,97.48,53.73z"/>
	<path class="st3" d="M94.84,56.44c0.79,2.07,2.58,1.45,4.11,1.54c-0.4,0.73,0.02,0.96,0.65,1.06c-0.23,1.23-1.28,0.77-2.01,0.99
		c-0.6-1.37-1.17-2.05-2.59-0.57c-0.82,0.85-1.76,1.65-2.6,2.52c-0.81-0.21-0.91-0.86-0.96-1.55C92.92,59.4,93.56,57.64,94.84,56.44
		z"/>
	<path class="st3" d="M75.64,103.96c0.9-1.37,2.44-1.59,2.59-0.01c0.34,3.68-0.01,7.43-0.09,11.15c0,0.06-0.12,0.17-0.13,0.17
		c-0.17-0.11-0.34-0.23-0.51-0.35c-0.01-3.23-0.1-6.45,0.01-9.67C77.58,103.55,76.91,103.44,75.64,103.96z"/>
	<path class="st5" d="M112.47,120.01c-0.31-0.07-0.62-0.14-0.93-0.21c-0.05-0.45-0.1-0.9-0.15-1.35c0.38-1.23,1.06-2.24,2.1-3.01
		c2.18,1.52,2.18,2.12,0.01,4.5C113.16,119.97,112.81,119.99,112.47,120.01z"/>
	<path class="st5" d="M104.45,64.03c0.01,0.63,0.02,1.27,0.04,1.9c-0.51,0.67-1.01,1.34-1.52,2.01c-0.33,0.04-0.66,0.07-0.99,0.11
		c-0.62-0.21-1.41-0.19-1.52-1.1c-0.16-1.19,1.37-1.8,1.05-3.05c0,0-0.04,0.04-0.04,0.04C102.46,63.96,103.46,63.99,104.45,64.03z"
		/>
	<path class="st3" d="M111.39,118.45c0.05,0.45,0.1,0.9,0.15,1.35c-0.02,0.74-0.12,1.48-0.05,2.2c0.15,1.54-0.55,2.1-2,1.9
		C109.19,121.76,109.7,119.9,111.39,118.45z"/>
	<path class="st3" d="M99.52,53.43c-0.08-2.12,1.71-2.86,2.95-3.99C102.74,51.7,102.09,53.28,99.52,53.43z"/>
	<path class="st5" d="M83.02,78.91c0.02,1.15-0.52,1.55-1.54,1.54c-0.95-0.01-0.99-0.55-1.03-1.29c-0.05-1.07,0.62-1.57,1.43-1.67
		C82.84,77.38,83.07,78.17,83.02,78.91z"/>
	<path class="st3" d="M80.45,118.85c0.27-1.03,1.55-1.65,1.19-2.93c0.78,0.06,1.94-0.19,1.73,1.07
		C83.11,118.47,81.97,119.09,80.45,118.85z"/>
	<path class="st3" d="M128.79,47.52c0.65,0.69,0.57,1.56,0.61,2.41c-1.34-0.01-0.48,2.02-1.84,1.99c0.01-0.99,0.02-1.98,0.03-2.96
		C128.57,48.96,128.33,47.94,128.79,47.52z"/>
	<path class="st2" d="M101.97,68.05c0.33-0.04,0.66-0.07,0.99-0.11c-0.45,1.72-1.9,2.62-2.93,3.93c-0.73-0.79,0.08-1.35-0.03-1.95
		C100.83,69.47,101.44,68.8,101.97,68.05z"/>
	<path class="st3" d="M110.56,51.42c1.2,1,2.55,0.95,3.96,0.58c-0.32,1-1,1.63-1.99,1.96c-0.08-0.6-0.34-1.02-1.04-0.97
		C110.58,52.83,110.4,52.23,110.56,51.42z"/>
	<path class="st3" d="M101.97,68.05c-0.54,0.75-1.15,1.42-1.97,1.87c-0.92-0.87-0.33-2-0.52-3l0,0c0.32,0.01,0.65,0.02,0.97,0.02
		C100.57,67.86,101.35,67.84,101.97,68.05z"/>
	<path class="st3" d="M78.5,98.14c0.96,0.2,0.98,0.97,0.43,1.35c-0.99,0.68-2.08,0.71-2.75-0.6C77,98.79,78.05,99.39,78.5,98.14z"/>
	<path class="st3" d="M99.49,66.92c-0.08,0-0.17,0.01-0.25-0.01c-0.89-0.22-2.06,0.52-2.63-0.73c-0.1-0.23,0.11-0.6,0.18-0.91
		C97.7,65.81,99.09,65.55,99.49,66.92L99.49,66.92z"/>
	<path class="st2" d="M107.29,87.56c-0.14,0.05-0.31,0.18-0.4,0.14c-0.1-0.04-0.19-0.29-0.15-0.38c0.04-0.1,0.25-0.12,0.39-0.17
		C107.19,87.28,107.24,87.42,107.29,87.56z"/>
	<path class="st2" d="M132.65,50.44c-0.13-0.36,0.05-0.39,0.33-0.32C132.91,50.26,132.8,50.37,132.65,50.44z"/>
	<path class="st3" d="M111.51,134.96c-0.01-0.67-0.03-1.34-0.04-2.01c2.93-0.27,3.23-0.68,2.95-3.99c0.16,0.03,0.46,0.06,0.46,0.1
		c0.04,3.39,2.87,6.02,2.58,9.5c-0.06,0.76-0.06,1.74-1.04,0.47c-0.55-0.71-0.77-0.24-1,0.24c-0.43,0.88-1.24,0.63-1.95,0.66
		C115.37,137.01,114.67,135.24,111.51,134.96z"/>
	<path class="st5" d="M110.65,152.74c0.04-1.2-0.68-2.57,0.25-3.55c0.64-0.67,1.55-1.86,2.69-1.06c1.19,0.83,2.11,2.01,1.73,3.69
		c-0.99-0.21-0.94,1.23-1.84,1.16c-0.66-0.01-1.32-0.02-1.98-0.03C111.22,152.88,110.94,152.81,110.65,152.74z"/>
	<path class="st5" d="M124.4,126.85c-1.33-0.09-2.76,0.59-3.91-0.68c-0.86-0.95-0.73-2.09-0.32-2.99c0.58-1.28,1.93-1.33,3.21-1.21
		C124.88,123.35,124.65,125.1,124.4,126.85z"/>
	<path class="st5" d="M120.46,112.99c0.21-3.26,1.7-4.43,3.86-3.04c1.78,1.15,1.64,2.99-0.31,4.08
		C122.5,114.8,121.37,114.27,120.46,112.99z"/>
	<path class="st5" d="M111.51,134.96c3.16,0.28,3.86,2.05,1.97,4.96c-1.31,0.03-2.74,0.17-3.38-1.3
		C109.39,137.03,110.43,135.95,111.51,134.96z"/>
	<path class="st5" d="M126.02,105.67c0.09,1.95-1.13,2.45-2.69,2.33c-1.51-0.12-1.84-1.25-1.87-2.58c-0.03-1.54,0.99-2.39,2.2-2.34
		C124.98,103.13,125.96,104.14,126.02,105.67z"/>
	<path class="st5" d="M114.97,144.9c-1,1.16-2.13,1.99-3.76,1.41c-0.98-0.35-1.4-1.09-1.22-2.12c0.13-0.75-0.45-1.88,0.68-2.11
		c0.94-0.2,2.07-0.77,2.97,0.35c0.34,0.42,0.9,0.66,1.35,0.99C114.99,143.91,114.98,144.41,114.97,144.9z"/>
	<path class="st5" d="M120.48,143.33c1.05,0.22,2.46-0.41,2.98,1.14c0.43,1.31-0.19,2.29-1,3.3c-0.7,0.87-1.35-0.08-1.98,0.2
		C118.29,146.44,118.29,144.74,120.48,143.33z"/>
	<path class="st5" d="M114.43,128.95c0.28,3.31-0.02,3.72-2.95,3.99c-1.79-0.95-1.29-2.59-0.79-3.83c0.5-1.24,1.74-0.83,2.77-0.28
		C113.72,128.98,114.1,128.92,114.43,128.95z"/>
	<path class="st3" d="M110.65,152.74c0.28,0.07,0.57,0.14,0.85,0.21c0.17,0.26,0.34,0.53,0.5,0.79c-1.9,0.3-2.31,1.58-2.43,3.28
		c-0.04,0.59-0.85,1.2-1.43,1.64c-0.56,0.43-1.19,0.16-1.39-0.5C106.32,156.74,108.95,153.12,110.65,152.74z"/>
	<path class="st3" d="M126.28,130.58c-2.07,0.92-4.27-0.37-6.16,0.97c-0.48,0.34-0.61-0.56-0.62-1.03c-0.03-0.8,0.08-1.51,1.13-1.57
		C122.63,128.83,124.58,128.85,126.28,130.58z"/>
	<path class="st3" d="M113.48,152.98c0.9,0.08,0.85-1.37,1.84-1.16c1.44,1.05,2.54,2.2,1.18,4.06c-0.74-0.18-1.91,0.55-2.02-0.96
		C114.15,154.28,113.82,153.63,113.48,152.98z"/>
	<path class="st3" d="M127.85,123.59c0.82,1.71,0.38,3.54,2.32,3.64c0.11,0.01,0.33,0.81,0.27,0.84c-0.55,0.32-1.13,0.62-1.75,0.78
		c-0.5,0.13-1.06-0.05-1.12-0.66C127.44,126.87,127.36,125.53,127.85,123.59z"/>
	<path class="st3" d="M107.55,151.97c-0.31-0.17-0.72-0.26-0.83-0.49c-0.64-1.3,0.88-1.97,1-3.11c0.06-0.52,0.68-1.1,1.39-1.22
		c0.12-0.02,0.3,0.13,0.4,0.24c0.26,0.29,0.21,0.75-0.03,0.87C107.97,149.03,109.13,151.17,107.55,151.97z"/>
	<path class="st3" d="M118.49,132.93c0.96-0.11,1.98,0.29,2.86-0.37c0.34-0.26,0.7-0.55,0.97-0.02c0.13,0.25,0.11,0.7-0.04,0.93
		c-0.6,0.92-1.36,1.58-2.61,1.45C118.27,134.79,118.55,133.78,118.49,132.93L118.49,132.93z"/>
	<path class="st3" d="M108.49,134.66c-0.05,1.07-0.74,1.89-1.99,2.17c-0.43,0.1-0.99-0.4-0.61-0.66c1.16-0.8-0.28-2.93,1.65-3.14
		C108.46,132.93,108.45,133.76,108.49,134.66z"/>
	<path class="st3" d="M124.4,126.85c0.25-1.75,0.49-3.5-1.02-4.88c1.34-0.32,2.71,0.32,2.8,1.37
		C126.28,124.56,126.11,126.26,124.4,126.85z"/>
	<path class="st3" d="M114.97,144.9c0.01-0.49,0.01-0.98,0.02-1.48c2.66,0.8,2.66,0.8,2,3.82
		C116.78,145.54,115.74,145.4,114.97,144.9z"/>
	<path class="st3" d="M125.22,131.73c0.18,1.5,0.77,2.52-0.49,3.1c-0.36,0.17-0.87,0.06-1.04-0.38
		C123.18,133.18,124.28,132.82,125.22,131.73z"/>
	<path class="st3" d="M120.46,112.99c0.91,1.28,2.04,1.8,3.55,1.05c0.35,1.12-0.55,1.79-1.19,1.49
		C121.82,115.05,119.98,114.97,120.46,112.99z"/>
	<path class="st3" d="M118.34,113.6c-0.99-1.42-1.09-2.81,0-4.7C118.34,110.85,118.34,112.22,118.34,113.6z"/>
	<path class="st3" d="M118.43,127.95c-0.02,0.58-0.32,0.9-0.9,0.91c-0.73,0.01-1.03-0.39-0.96-1.08c0.06-0.59,0.46-0.81,1.02-0.79
		C118.18,127.02,118.43,127.38,118.43,127.95z"/>
	<path class="st3" d="M119.42,140.99c-1.48-1.38-1.52-2.74,0.03-4.1c0.07,0.07,0.14,0.14,0.21,0.21c-0.2,1.24-0.29,2.49-0.09,3.74
		L119.42,140.99z"/>
	<path class="st3" d="M109.8,163.67c-0.3-0.83-0.6-1.66-0.9-2.5c0.31-0.06,0.69-0.26,0.9-0.14
		C110.94,161.67,110.44,162.64,109.8,163.67z"/>
	<path class="st3" d="M138.82,75.66c0.84,1.33,0.74,2.12,0.33,3.11C138.14,77.93,138.53,77.07,138.82,75.66z"/>
	<path class="st3" d="M118.49,132.92c-0.32-0.05-0.69-0.04-0.74-0.47c-0.01-0.08,0.19-0.29,0.28-0.27
		C118.44,132.24,118.44,132.61,118.49,132.92C118.49,132.93,118.49,132.92,118.49,132.92z"/>
	<path class="st3" d="M120.46,141.95c-0.6-0.06-0.93-0.39-1.03-0.97c0,0,0.15-0.15,0.15-0.15c0.57,0.02,1.16,0.03,1.15,0.84
		C120.64,141.77,120.55,141.86,120.46,141.95z"/>
	<path class="st3" d="M112.47,120.01c0.34-0.02,0.69-0.04,1.03-0.06c-0.07,0.36-0.08,0.84-0.59,0.75
		C112.73,120.67,112.61,120.25,112.47,120.01z"/>
	<path class="st3" d="M118.26,142.29c-0.06,0.13-0.11,0.26-0.17,0.4c-0.13-0.06-0.34-0.09-0.37-0.18c-0.04-0.1,0.09-0.26,0.15-0.39
		C118,142.18,118.13,142.23,118.26,142.29z"/>
	<path class="st0" d="M118.01,156.41c-0.61,0.59-1.18,0.96-1.35-0.32C117.1,156.2,117.56,156.31,118.01,156.41z"/>
	<path class="st1" d="M131.44,5.92c-0.01,0.81,0.31,1.76-0.89,2.06C130.51,7.14,130.86,6.48,131.44,5.92z"/>
	<path class="st5" d="M120.73,141.68c0.01-0.82-0.58-0.82-1.15-0.84c-0.2-1.25-0.11-2.5,0.09-3.74c0.33-0.04,0.66-0.05,0.97-0.12
		c1.86-0.42,3.33,0.03,3.63,2.09C124.48,140.55,122.65,141.78,120.73,141.68z"/>
</g>
</svg>
