<svg id="Calque_1" data-name="Calque 1" xmlns="http://www.w3.org/2000/svg" viewBox="0 0 194.54 394.95"><defs><style>.cls-1,.cls-2{fill:none;stroke:#f0821f;stroke-linecap:round;stroke-miterlimit:10;stroke-width:3px;}.cls-2{stroke-dasharray:10.11 15.16;}.cls-3{fill:#fff;}.cls-4{fill:#f0821f;}</style></defs><title>tracé parcours court</title><path class="cls-1" d="M149.11,578.9c.12-1.68.22-3.35.32-5" transform="translate(-54.42 -190.85)"/><path class="cls-2" d="M150.23,558.76c.85-19.51.89-35.86.71-48.13-1.48-103.49,2.59-226.48-31.33-273.57-13.06-18.13-64.65-5.72-63.68-15.61,1.87-19.09,60.74-29.51,103.27-29.09,5.82.06,82.91,1.32,88.05,26.14,3.66,17.68-41.43,23.88-59.16,64.66-15.38,35.39-18.07,72.06-15.62,106.2" transform="translate(-54.42 -190.85)"/><path class="cls-1" d="M173.09,396.91c.16,1.67.33,3.32.5,5" transform="translate(-54.42 -190.85)"/><rect class="cls-3" x="143.13" y="572.61" width="11.88" height="11.88" transform="translate(-491.99 500.8) rotate(-86.46)"/><path class="cls-4" d="M155.48,585.8l.84-13.65-13.65-.85L141.82,585Zm-1.07-12-.62,10.06-10.06-.62.62-10.06Z" transform="translate(-54.42 -190.85)"/><polygon class="cls-4" points="120.65 223.01 111.75 206.94 119.12 210.13 125.55 205.3 120.65 223.01"/></svg>