<?xml version="1.0" encoding="utf-8"?>
<!-- Generator: Adobe Illustrator 23.0.6, SVG Export Plug-In . SVG Version: 6.00 Build 0)  -->
<svg version="1.1" id="Calque_1" xmlns="http://www.w3.org/2000/svg" xmlns:xlink="http://www.w3.org/1999/xlink" x="0px" y="0px"
	 viewBox="0 0 122.76 152.59" style="enable-background:new 0 0 122.76 152.59;" xml:space="preserve">
<style type="text/css">
	.st0{fill:#FEFCF0;}
	.st1{fill:#DDDDDC;}
	.st2{fill:#FFFFFF;}
	.st3{fill:#EEEEEE;}
	.st4{fill:#1A1B1B;}
	.st5{fill:#040405;}
</style>
<g>
	<path class="st0" d="M122.59,150.53c0.06-0.04,0.18-0.11,0.17-0.13c-0.04-0.12-0.11-0.22-0.18-0.34
		c-0.01-48.58-0.01-97.16-0.02-145.73c0-4.23-0.04-4.28-4.34-4.28C79.89,0.05,41.56,0.07,3.24,0C0.8,0,0,0.48,0,3.12
		c0.09,48.83,0.08,97.66,0.01,146.48c0,2.48,0.77,2.99,3.1,2.99c29.25-0.08,58.49-0.05,87.74-0.05c9.75,0,19.5-0.02,29.25,0.02
		C121.58,152.57,122.85,152.55,122.59,150.53z"/>
	<path class="st1" d="M122.59,150.53c0.26,2.02-1.01,2.03-2.48,2.03c-9.75-0.03-19.5-0.02-29.25-0.02
		c-29.25,0-58.49-0.03-87.74,0.05c-2.33,0.01-3.11-0.51-3.1-2.99C0.08,100.78,0.09,51.95,0,3.12C0,0.48,0.8,0,3.24,0
		c38.33,0.07,76.66,0.05,114.99,0.05c4.29,0,4.33,0.05,4.34,4.28c0.01,48.58,0.01,97.16,0.02,145.73
		C122.57,150.22,122.57,150.38,122.59,150.53z M4.56,76.18c0,22.74,0,45.48,0,68.22c0,3.64,0,3.64,3.52,3.64
		c35.49,0,70.97,0,106.46,0c3.51,0,3.51,0,3.51-3.65c0-45.4,0-90.8,0-136.19c0-3.64,0-3.64-3.52-3.64c-35.49,0-70.97,0-106.46,0
		c-3.51,0-3.52,0-3.52,3.65C4.56,30.87,4.56,53.52,4.56,76.18z"/>
	<path class="st2" d="M122.59,150.53c-0.01-0.16-0.01-0.31-0.01-0.47c0.06,0.11,0.13,0.22,0.18,0.34
		C122.76,150.42,122.65,150.49,122.59,150.53z"/>
	<path class="st3" d="M4.56,76.18c0-22.66,0-45.31,0-67.97c0-3.65,0-3.65,3.52-3.65c35.49,0,70.97,0,106.46,0
		c3.52,0,3.52,0,3.52,3.64c0,45.4,0,90.8,0,136.19c0,3.65,0,3.65-3.51,3.65c-35.49,0-70.97,0-106.46,0c-3.52,0-3.52,0-3.52-3.64
		C4.56,121.66,4.56,98.92,4.56,76.18z M58.16,64.57c-13.07,0-26.15,0-39.22,0c-0.75,0-1.51-0.04-2.25,0.05
		c-1.34,0.16-2.11,0.98-2.15,2.32c-0.04,1.36,0.73,2.2,2.05,2.42c0.81,0.13,1.66,0.07,2.49,0.07c26.23,0,52.46,0,78.69,0
		c0.75,0,1.51,0.04,2.23-0.12c1.22-0.27,1.83-1.19,1.79-2.38c-0.04-1.19-0.69-2.07-1.92-2.28c-0.73-0.12-1.49-0.07-2.24-0.07
		C84.47,64.56,71.32,64.56,58.16,64.57z M53.83,120.67c0,0.01,0,0.01,0,0.02c-9.33,0-18.66,0-27.99,0c-2.92,0-5.83,0.03-8.75,0
		c-1.69-0.02-3.09,0.41-3.12,2.37c-0.04,2.14,1.46,2.56,3.24,2.49c0.17-0.01,0.33,0,0.5,0c23.82,0,47.64,0,71.46,0
		c0.75,0,1.51,0.03,2.25-0.06c1.26-0.15,1.96-0.99,2.04-2.17c0.09-1.29-0.54-2.27-1.92-2.5c-0.73-0.12-1.49-0.14-2.24-0.14
		C77.48,120.67,65.66,120.67,53.83,120.67z M55.57,107.58c12.33,0,24.66,0,36.99,0c0.75,0,1.52,0.05,2.24-0.1
		c1.12-0.22,1.71-1.03,1.74-2.14c0.03-1.21-0.54-2.09-1.78-2.35c-0.56-0.12-1.16-0.07-1.74-0.07c-24.91,0-49.82,0-74.73-0.01
		c-0.58,0-1.18-0.07-1.75,0.03c-1.2,0.21-1.96,0.93-1.98,2.2c-0.02,1.35,0.64,2.22,2.02,2.38c0.66,0.08,1.33,0.04,2,0.04
		C30.91,107.58,43.24,107.58,55.57,107.58z M47.31,32.42c0-0.01,0-0.01,0-0.02c10.33,0,20.66,0,30.99,0c0.75,0,1.52,0.04,2.24-0.12
		c1.23-0.27,1.81-1.22,1.75-2.39c-0.06-1.15-0.63-2.09-1.93-2.25c-0.66-0.08-1.33-0.06-2-0.06c-20.58,0-41.16,0-61.73,0
		c-0.75,0-1.51-0.04-2.24,0.07c-1.22,0.18-1.94,0.94-2,2.19c-0.06,1.35,0.59,2.27,1.93,2.5c0.89,0.15,1.83,0.1,2.74,0.1
		C27.15,32.42,37.23,32.42,47.31,32.42z M50.32,79.64c7.25,0,14.49,0,21.74,0c3.83,0,7.66,0,11.49,0c1.48,0,2.44-0.69,2.44-2.22
		c-0.01-1.56-0.83-2.48-2.51-2.42c-0.42,0.01-0.83,0.01-1.25,0.01c-17.33,0-34.65,0-51.98,0c-4.41,0-8.83-0.01-13.24-0.01
		c-1.49,0-2.38,0.75-2.44,2.24c-0.06,1.5,0.76,2.32,2.26,2.39c0.58,0.03,1.17,0.01,1.75,0.01C29.17,79.64,39.75,79.64,50.32,79.64z
		 M43.05,22.04c9.25,0,18.49-0.01,27.74,0.01c1.71,0,3.34-0.14,3.41-2.31c0.07-2.33-1.61-2.56-3.43-2.56
		c-18.41,0.01-36.82,0.01-55.23,0c-1.71,0-3.37,0.2-3.42,2.33c-0.06,2.27,1.59,2.54,3.45,2.54C24.72,22.02,33.88,22.04,43.05,22.04z
		 M48.32,111.05c-1.75,0-3.49,0-5.24,0c-8.74,0-17.47,0.01-26.21-0.01c-1.63,0-2.83,0.47-2.86,2.32c-0.03,1.88,1.21,2.37,2.81,2.39
		c0.25,0,0.5-0.01,0.75-0.01c19.8,0,39.61,0,59.41-0.01c0.92,0,1.83,0.03,2.74-0.03c1.48-0.1,2.35-0.92,2.27-2.41
		c-0.07-1.3-0.83-2.15-2.22-2.24c-0.5-0.03-1-0.01-1.5-0.01C68.29,111.05,58.31,111.05,48.32,111.05z M46.06,55.55
		c-9.83,0-19.66,0.01-29.5-0.01c-1.52,0-2.89,0.13-3.21,1.99c-0.29,1.71,0.88,2.69,3.22,2.69c19.75,0.01,39.49,0.01,59.24,0
		c0.58,0,1.19,0.04,1.74-0.11c1.61-0.45,2.21-2.64,1.06-3.86c-0.77-0.82-1.81-0.71-2.81-0.71C65.89,55.55,55.98,55.55,46.06,55.55z
		 M39.07,93.08c-7.16,0-14.32,0-21.49,0c-1.75,0-3.54,0.02-3.56,2.41c-0.03,2.37,1.72,2.49,3.49,2.49c14.24-0.01,28.48,0,42.72,0
		c1.78,0,3.51-0.18,3.45-2.54c-0.05-2.18-1.68-2.36-3.38-2.36C53.23,93.09,46.15,93.08,39.07,93.08z M35.39,43.04
		c6.41,0,12.82-0.02,19.22,0.01c1.79,0.01,3.48-0.11,3.49-2.47c0.01-2.25-1.67-2.37-3.33-2.37c-12.82-0.01-25.63-0.01-38.45-0.01
		c-1.71,0-3.31,0.28-3.26,2.48c0.05,2.17,1.63,2.37,3.35,2.37C22.74,43.03,29.07,43.04,35.39,43.04z"/>
	<path class="st4" d="M58.16,64.57c13.16,0,26.31,0,39.47,0c0.75,0,1.51-0.06,2.24,0.07c1.23,0.21,1.89,1.09,1.92,2.28
		c0.04,1.19-0.57,2.11-1.79,2.38c-0.72,0.16-1.49,0.12-2.23,0.12c-26.23,0-52.46,0-78.69,0c-0.83,0-1.68,0.06-2.49-0.07
		c-1.31-0.21-2.08-1.06-2.05-2.42c0.04-1.34,0.8-2.16,2.15-2.32c0.74-0.09,1.5-0.05,2.25-0.05C32.01,64.57,45.09,64.57,58.16,64.57z
		"/>
	<path class="st4" d="M53.83,120.67c11.83,0,23.65,0,35.48,0.01c0.75,0,1.5,0.01,2.24,0.14c1.38,0.23,2,1.21,1.92,2.5
		c-0.08,1.18-0.79,2.02-2.04,2.17c-0.74,0.09-1.5,0.06-2.25,0.06c-23.82,0-47.64,0-71.46,0c-0.17,0-0.33,0-0.5,0
		c-1.78,0.08-3.28-0.35-3.24-2.49c0.04-1.96,1.43-2.39,3.12-2.37c2.91,0.03,5.83,0,8.75,0c9.33,0,18.66,0,27.99,0
		C53.83,120.68,53.83,120.68,53.83,120.67z"/>
	<path class="st5" d="M55.57,107.58c-12.33,0-24.66,0-36.99,0c-0.67,0-1.34,0.04-2-0.04c-1.38-0.17-2.04-1.04-2.02-2.38
		c0.02-1.27,0.78-1.99,1.98-2.2c0.57-0.1,1.16-0.03,1.75-0.03c24.91,0,49.82,0,74.73,0.01c0.58,0,1.18-0.05,1.74,0.07
		c1.24,0.25,1.82,1.13,1.78,2.35c-0.03,1.11-0.62,1.92-1.74,2.14c-0.73,0.14-1.49,0.1-2.24,0.1
		C80.23,107.58,67.9,107.58,55.57,107.58z"/>
	<path class="st4" d="M47.31,32.42c-10.08,0-20.16,0-30.24,0c-0.92,0-1.85,0.05-2.74-0.1c-1.34-0.23-1.99-1.15-1.93-2.5
		c0.06-1.25,0.78-2.01,2-2.19c0.74-0.11,1.5-0.07,2.24-0.07c20.58,0,41.16,0,61.73,0c0.67,0,1.34-0.02,2,0.06
		c1.3,0.16,1.87,1.1,1.93,2.25c0.06,1.17-0.52,2.13-1.75,2.39c-0.72,0.16-1.49,0.12-2.24,0.12c-10.33,0.01-20.66,0-30.99,0
		C47.31,32.41,47.31,32.41,47.31,32.42z"/>
	<path class="st5" d="M50.32,79.64c-10.58,0-21.16,0-31.74,0c-0.58,0-1.17,0.02-1.75-0.01c-1.51-0.07-2.33-0.9-2.26-2.39
		c0.06-1.49,0.95-2.24,2.44-2.24c4.41,0,8.83,0.01,13.24,0.01c17.33,0,34.65,0,51.98,0c0.42,0,0.83,0.01,1.25-0.01
		c1.67-0.06,2.5,0.86,2.51,2.42c0.01,1.53-0.96,2.22-2.44,2.22c-3.83,0.01-7.66,0-11.49,0C64.82,79.64,57.57,79.64,50.32,79.64z"/>
	<path class="st4" d="M43.05,22.04c-9.16,0-18.33-0.02-27.49,0.01c-1.86,0.01-3.51-0.27-3.45-2.54c0.06-2.13,1.71-2.33,3.42-2.33
		c18.41,0.01,36.82,0.01,55.23,0c1.82,0,3.5,0.23,3.43,2.56c-0.07,2.17-1.7,2.31-3.41,2.31C61.54,22.03,52.29,22.04,43.05,22.04z"/>
	<path class="st5" d="M48.32,111.05c9.99,0,19.97,0,29.96,0c0.5,0,1-0.02,1.5,0.01c1.39,0.09,2.15,0.94,2.22,2.24
		c0.08,1.49-0.79,2.31-2.27,2.41c-0.91,0.06-1.83,0.03-2.74,0.03c-19.8,0-39.61,0.01-59.41,0.01c-0.25,0-0.5,0.02-0.75,0.01
		c-1.6-0.02-2.84-0.51-2.81-2.39c0.03-1.85,1.23-2.32,2.86-2.32c8.74,0.02,17.47,0.01,26.21,0.01
		C44.83,111.05,46.58,111.05,48.32,111.05z"/>
	<path class="st5" d="M46.06,55.55c9.92,0,19.83,0,29.75,0c1,0,2.05-0.11,2.81,0.71c1.14,1.22,0.55,3.41-1.06,3.86
		c-0.55,0.15-1.16,0.11-1.74,0.11c-19.75,0-39.49,0-59.24,0c-2.35,0-3.52-0.98-3.22-2.69c0.32-1.85,1.68-1.99,3.21-1.99
		C26.4,55.56,36.23,55.55,46.06,55.55z"/>
	<path class="st4" d="M39.07,93.08c7.08,0,14.16,0.01,21.24,0c1.7,0,3.32,0.17,3.38,2.36c0.06,2.36-1.67,2.54-3.45,2.54
		c-14.24,0-28.48,0-42.72,0c-1.77,0-3.52-0.12-3.49-2.49c0.03-2.38,1.82-2.41,3.56-2.41C24.75,93.09,31.91,93.08,39.07,93.08z"/>
	<path class="st4" d="M35.39,43.04c-6.32,0-12.65-0.02-18.97,0.01c-1.72,0.01-3.3-0.19-3.35-2.37c-0.05-2.19,1.54-2.48,3.26-2.48
		c12.82,0,25.63,0,38.45,0.01c1.66,0,3.34,0.13,3.33,2.37c-0.01,2.35-1.7,2.47-3.49,2.47C48.21,43.03,41.8,43.04,35.39,43.04z"/>
</g>
</svg>
