<?xml version="1.0" encoding="utf-8"?>
<!-- Generator: Adobe Illustrator 23.0.6, SVG Export Plug-In . SVG Version: 6.00 Build 0)  -->
<svg version="1.1" id="Calque_1" xmlns="http://www.w3.org/2000/svg" xmlns:xlink="http://www.w3.org/1999/xlink" x="0px" y="0px"
	 viewBox="0 0 174.97 232.45" style="enable-background:new 0 0 174.97 232.45;" xml:space="preserve">
<style type="text/css">
	.st0{fill:#A4D5DB;}
	.st1{fill:#CAE7EB;}
	.st2{fill:#89ADBA;}
	.st3{fill:#A6D5DB;}
	.st4{fill:#83C0C4;}
	.st5{fill:#FAFAEF;}
	.st6{fill:#FEFEFE;}
	.st7{fill:#B8D6DE;}
	.st8{fill:#8BADBD;}
	.st9{fill:#C35770;}
	.st10{fill:#BA6E7E;}
	.st11{fill:#A67884;}
	.st12{fill:#D05F7B;}
	.st13{fill:#A2D4DB;}
	.st14{fill:#CF536B;}
</style>
<g>
	<path class="st0" d="M174.5,148.55c-0.01,1.15-0.02,2.29-0.03,3.44c-0.01,0.17-0.03,0.34-0.04,0.5
		c-1.81,18.27-8.4,34.51-20.29,48.6c-10.19,12.08-22.7,20.77-37.49,26.23c-7.04,2.6-14.37,3.93-21.83,4.72
		c-10.21,1.08-20.24-0.01-30.07-2.64c-11.48-3.07-21.98-8.19-31.35-15.63c-9.63-7.65-17.55-16.76-23.23-27.61
		c-4.67-8.92-7.97-18.36-9.36-28.48c-0.95-6.89-0.8-13.75-0.8-20.64c0.51-0.33,0.85-0.76,0.92-1.4c0.29-3.06,1.22-5.98,1.9-8.96
		c1.8-7.91,5.02-15.2,8.93-22.22c1.33-2.39,2.85-4.69,4.44-6.91c5.66-7.89,12.44-14.69,20.33-20.37c8-5.76,16.64-10.21,26.18-12.84
		c4.48-1.23,9.03-2.08,13.59-2.94c3.71-0.7,7.51-0.77,11.14-0.67c7.48,0.21,14.92,1,22.3,3.05c6.1,1.7,12.1,3.67,17.54,6.62
		c12.16,6.58,22.76,15.21,30.7,26.73c3.42,4.95,6.56,10.04,8.97,15.63c3.14,7.28,5.57,14.68,6.56,22.56
		c0.16,1.28-0.09,2.86,1.31,3.77c0.02,2.97,0.03,5.94,0.05,8.92C174.74,148.17,174.62,148.36,174.5,148.55z M134.33,88.57
		c-1.16-0.33-2-1.16-2.91-1.87c-4.22-3.25-8.73-6-13.6-8.17c-10.52-4.69-21.54-6.62-33.04-6.05c-9.53,0.48-18.54,2.91-27.03,7.14
		c-12.49,6.23-22.35,15.35-29.55,27.38c-6.29,10.5-9.53,21.88-10.18,34.01c-0.43,7.94,0.76,15.77,3.07,23.35
		c1.35,4.42,3.14,8.71,5.25,12.87c2.85,5.6,6.84,10.35,10.61,15.27c0.03,3.42,0.52,3.91,4,4c0.75,0.52,1.56,0.98,2.24,1.57
		c8.21,7.17,17.64,11.95,28.19,14.71c12.8,3.34,25.58,3.21,38.08-0.81c23.14-7.43,38.78-22.86,46.66-45.88
		c3.03-8.85,4.15-17.99,3.45-27.44c-0.75-10.15-3.66-19.52-8.16-28.52c-1.86-3.72-4.57-6.9-6.49-10.56c0.59-2.74-1.58-3.82-3.22-5.1
		c-1.7-1.32-3.52-2.69-4.46-4.5C136.42,88.44,135.56,88.47,134.33,88.57z"/>
	<path class="st1" d="M174.81,139.06c-1.4-0.91-1.15-2.49-1.31-3.77c-0.99-7.88-3.43-15.27-6.56-22.56
		c-2.41-5.59-5.55-10.68-8.97-15.63c-7.94-11.51-18.55-20.15-30.7-26.73c-5.45-2.95-11.44-4.92-17.54-6.62
		c-7.37-2.05-14.82-2.84-22.3-3.05c-3.63-0.1-7.43-0.04-11.14,0.67c-4.56,0.87-9.11,1.71-13.59,2.94
		c-9.54,2.63-18.18,7.08-26.18,12.84c-7.89,5.68-14.67,12.48-20.33,20.37c-1.6,2.22-3.12,4.52-4.44,6.91
		c-3.91,7.02-7.13,14.31-8.93,22.22c-0.68,2.98-1.6,5.9-1.9,8.96c-0.06,0.64-0.4,1.07-0.92,1.4c0.15-5.4,1.1-10.7,2.53-15.88
		c3.4-12.32,9.01-23.55,17.11-33.48c4.43-5.42,9.43-10.31,15.02-14.5c3.14-2.36,6.63-4.27,9.77-6.66c4.81-0.81,8.82-3.43,12.96-5.76
		c0.05-0.03,0.04-0.16,0.06-0.24c2.73-0.16,5.21-1.34,7.84-1.9c4.02-0.85,7.92-2.37,12.13-2.14c0.45,0,0.89,0.01,1.34,0.01
		c5.77-0.71,11.53-0.51,17.3-0.03c1.25,0.1,2.57,0.85,3.86,0.07c3.52,0.76,7.02,1.64,10.57,2.24c2.4,0.4,4.47,1.62,6.77,2.26
		c1.05,0.29,2.06,0.56,3.14,0.5c0.05,0.73,0.43,1.19,1.07,1.53c3.26,1.72,6.74,3.03,9.8,5.13c0.73,0.5,1.4,0.24,2.07-0.14
		c2.03,2.86,5.22,4.28,7.88,6.35c5.52,4.29,10.25,9.3,14.76,14.63c6.11,7.22,10.27,15.57,13.68,24.18
		c2.66,6.72,4.22,13.92,4.71,21.22C174.49,135.96,175.3,137.46,174.81,139.06z"/>
	<path class="st2" d="M74.94,51.52C62.6,44.03,58.99,29.7,62.97,18.39C69.51-0.17,92.62-6.07,107.23,7.15
		c12.99,11.76,11.55,31.41-0.9,41.91c-1.9,1.6-4.04,2.9-6.39,3.81c0.01-1.25,0.02-2.5,0.03-3.74c0.97-0.46,2.03-0.78,2.9-1.38
		c9.05-6.28,12.78-18.59,8.79-28.81c-6.61-16.92-27.39-21.24-40.3-8.39c-11.45,11.4-7.98,32.07,6.53,38.91
		c0,1.05,0.01,2.11,0.01,3.16C76.91,52.25,75.92,51.89,74.94,51.52z"/>
	<path class="st3" d="M42.47,62.42c-0.31-0.27-0.6-0.74-0.93-0.77c-5.09-0.45-5.09-5-6.49-8.27c-0.75-1.74,0.49-3.19,2.16-3.97
		c4.05-1.89,8.12-3.76,12.2-5.6c2.06-0.92,3.57,0.01,4.64,1.72c0.83,1.33,1.47,2.77,2.15,4.18c0.76,1.59,1,3.17-0.34,4.62
		c-0.44,0.47-0.4,1.07-0.46,1.64c-1.13-0.73-2.18-0.4-3.28,0.16c-2.81,1.44-5.6,2.91-8.49,4.18C42.52,60.81,42.37,61.45,42.47,62.42
		z"/>
	<path class="st3" d="M123.05,55.55c-1.5-3.22-0.75-8.34,1.74-10.95c1.2-1.26,2.75-1.46,4.36-0.72c3.92,1.8,7.86,3.55,11.75,5.42
		c2.36,1.14,2.93,2.64,2.1,5.11c-0.53,1.57-1.25,3.05-2.01,4.54c-1.02,2.01-2.44,2.84-4.63,2.43c-0.65-1.57-2.38-1.27-3.54-1.84
		C129.68,58.01,126.75,55.78,123.05,55.55z"/>
	<path class="st0" d="M99.98,49.13c-0.01,1.25-0.02,2.5-0.03,3.74c0,1.21-0.01,2.42-0.01,3.64c-1.29,0.79-2.61,0.04-3.86-0.07
		c-5.78-0.48-11.54-0.67-17.3,0.03c0.48-1.46-1.26-2.41-0.88-3.85c0-1.05-0.01-2.11-0.01-3.16c0.04-0.33,0.07-0.66,0.11-0.99
		c7.29-0.73,14.58-0.73,21.87,0C99.9,48.69,99.94,48.91,99.98,49.13z"/>
	<path class="st0" d="M133.36,68.02c-0.67,0.38-1.34,0.64-2.07,0.14c-3.06-2.1-6.54-3.41-9.8-5.13c-0.64-0.34-1.02-0.8-1.07-1.53
		c0,0,0.02-0.01,0.02-0.01c0.15-0.18,0.3-0.35,0.44-0.53c0.15-1.45,0.85-2.69,1.55-3.93c-0.12,1.06,0.57,1.34,1.4,1.7
		c3.78,1.59,7.59,3.11,11.09,5.28C135.25,65.67,133.29,66.45,133.36,68.02z"/>
	<path class="st3" d="M57.46,60.5c-0.02,0.08-0.01,0.21-0.06,0.24c-4.14,2.33-8.15,4.95-12.96,5.76c-0.49-1-0.98-2-1.47-3
		c4.57-0.71,8.03-4.11,12.47-5.17c0.55-0.13,0.44-0.82,0.48-1.31c1.3,0.64,0.86,1.91,1.07,2.94c0.15,0.17,0.29,0.34,0.44,0.51
		C57.43,60.48,57.46,60.5,57.46,60.5z"/>
	<path class="st4" d="M134.93,64.01c-3.51-2.16-7.32-3.68-11.09-5.28c-0.83-0.35-1.52-0.64-1.4-1.7c0.05-0.18,0.11-0.36,0.16-0.54
		c0.14-0.29,0.27-0.59,0.41-0.88c0,0,0.05-0.06,0.05-0.06c3.7,0.23,6.62,2.45,9.78,3.99c1.17,0.57,2.89,0.27,3.54,1.84
		c-0.16,0.21-0.33,0.42-0.49,0.62c-0.55,0.34-0.45,0.91-0.48,1.42C135.24,63.62,135.09,63.81,134.93,64.01z"/>
	<path class="st4" d="M55.92,57.02c-0.04,0.49,0.08,1.17-0.48,1.31c-4.44,1.06-7.9,4.46-12.47,5.17c-0.17-0.36-0.34-0.72-0.5-1.08
		c-0.1-0.97,0.05-1.62,1.17-2.11c2.89-1.26,5.68-2.73,8.49-4.18c1.1-0.56,2.14-0.9,3.28-0.16c0.06,0.15,0.1,0.3,0.12,0.46
		C55.65,56.63,55.79,56.82,55.92,57.02L55.92,57.02z"/>
	<path class="st5" d="M77.89,52.62c-0.38,1.44,1.37,2.39,0.88,3.85c-0.45,0-0.9-0.01-1.34-0.01c-0.17-1.98-2.1-3.08-2.5-4.95
		C75.92,51.89,76.91,52.25,77.89,52.62z"/>
	<path class="st3" d="M135.4,63.43c0.03-0.52-0.07-1.08,0.48-1.42C135.86,62.52,136.02,63.1,135.4,63.43z"/>
	<path class="st3" d="M123,55.61c-0.14,0.29-0.27,0.59-0.41,0.88C122.5,56.09,122.57,55.77,123,55.61z"/>
	<path class="st1" d="M57.43,60.48c-0.15-0.17-0.29-0.34-0.44-0.51C57.14,60.14,57.28,60.31,57.43,60.48z"/>
	<path class="st1" d="M120.88,60.96c-0.15,0.18-0.3,0.35-0.44,0.53C120.59,61.31,120.73,61.14,120.88,60.96z"/>
	<path class="st3" d="M55.92,57.01c-0.14-0.19-0.27-0.38-0.41-0.57C55.65,56.63,55.79,56.82,55.92,57.01z"/>
	<path class="st1" d="M174.5,148.55c0.12-0.19,0.24-0.38,0.36-0.57C174.74,148.17,174.62,148.36,174.5,148.55z"/>
	<path class="st1" d="M174.43,152.49c0.01-0.17,0.03-0.34,0.04-0.5c0.05,0.12,0.12,0.25,0.15,0.38
		C174.62,152.39,174.5,152.44,174.43,152.49z"/>
	<path class="st6" d="M36.94,192.51c-3.77-4.92-7.77-9.67-10.61-15.27c-2.11-4.16-3.9-8.45-5.25-12.87
		c-2.31-7.58-3.49-15.41-3.07-23.35c0.65-12.13,3.89-23.51,10.18-34.01c7.21-12.03,17.06-21.15,29.55-27.38
		c8.49-4.23,17.51-6.66,27.03-7.14c11.5-0.58,22.51,1.36,33.04,6.05c4.87,2.17,9.38,4.92,13.6,8.17c0.92,0.71,1.75,1.54,2.91,1.86
		c1.6,2.78,4.27,4.59,6.45,6.83c1.36,1.4,2.08,3.47,4.12,4.18c1.93,3.66,4.63,6.85,6.49,10.56c4.51,9,7.42,18.37,8.16,28.52
		c0.69,9.46-0.42,18.59-3.45,27.44c-7.88,23.01-23.52,38.45-46.66,45.88c-12.5,4.01-25.28,4.15-38.08,0.81
		c-10.55-2.75-19.98-7.53-28.19-14.71c-0.68-0.6-1.49-1.05-2.24-1.57C39.86,194.92,38.52,193.59,36.94,192.51z M120.98,146.36
		c1.24,0.03,2.47,0.09,3.71,0.09c1.47,0.01,2.64-0.52,2.91-2.1c0.3-1.72-0.4-2.86-2.19-3.21c-9.14-0.34-18.28-0.16-27.43-0.09
		c-1.05-3.93-3.78-6.04-7.58-6.99c0.02-7.74,0.04-15.47,0.05-23.21c0.01-4.08-0.01-8.15-0.01-12.23c0-0.97-0.14-1.9-1.36-2.01
		c-0.98-0.09-1.61,0.32-1.57,1.42c-0.01,11.82-0.02,23.64-0.03,35.46c-0.01,0.18-0.02,0.36-0.02,0.55
		c-3.82,0.98-6.54,3.15-7.68,7.05c-1.15-0.01-2.33-0.17-3.46,0.01c-1.45,0.22-2.33,1.1-2.21,2.74c0.11,1.58,0.92,2.45,2.47,2.56
		c1.07,0.08,2.15,0.04,3.22,0.05c1.1,2.82,2.52,5.34,5.84,6.03c1.26,0.5,1.95,1.28,1.8,2.78c-0.11,1.02,0.16,2.09,1.53,2.06
		c1.38-0.03,1.39-1.12,1.49-2.14c0.07-0.73,0.23-1.45,0.36-2.18c3.58-0.88,6.16-2.86,7.18-6.55c0.31-0.04,0.63-0.07,0.94-0.11
		c0.66-0.01,1.32-0.01,1.99-0.02c0.35,0.01,0.7,0.02,1.06,0.02c0.65,0,1.3-0.01,1.95-0.01c0.33,0,0.67,0,1,0
		C110.27,146.34,115.62,146.35,120.98,146.36z M134.77,188.53c-0.05-0.16-0.06-0.46-0.21-0.61c-2.09-2.13-4.18-4.26-6.33-6.32
		c-0.66-0.63-1.44-0.32-1.99,0.28c-0.56,0.61-0.72,1.32-0.06,2c1.97,2.02,3.94,4.04,5.91,6.05c0.55,0.56,1.18,0.54,1.81,0.13
		C134.41,189.71,134.75,189.26,134.77,188.53z M50.22,106.92c0.83-0.02,1.32-0.35,1.55-0.92c0.31-0.75,0.14-1.5-0.42-2.07
		c-1.73-1.77-3.49-3.53-5.25-5.27c-0.76-0.75-1.66-0.82-2.41-0.04c-0.77,0.79-0.6,1.64,0.16,2.4c1.75,1.75,3.49,3.52,5.27,5.25
		C49.44,106.6,49.94,106.76,50.22,106.92z M44.84,190.35c0.16-0.04,0.48-0.03,0.63-0.19c2.1-2.12,4.21-4.23,6.22-6.43
		c0.56-0.61,0.31-1.4-0.35-1.99c-0.71-0.64-1.33-0.51-1.96,0.11c-1.95,1.92-3.9,3.84-5.84,5.77c-0.55,0.55-0.58,1.17-0.19,1.81
		C43.67,189.94,44.12,190.29,44.84,190.35z M147.14,145.75c0-0.02,0-0.03,0-0.05c1.32,0,2.65,0.07,3.97-0.02
		c0.92-0.06,1.88-0.29,1.78-1.58c-0.08-1.14-0.78-1.56-1.84-1.55c-2.49,0.01-4.97,0.02-7.46,0c-0.96-0.01-1.62,0.34-1.75,1.35
		c-0.15,1.17,0.6,1.72,1.58,1.82C144.65,145.85,145.9,145.75,147.14,145.75z M30.43,142.57c-1.33,0-2.66-0.04-3.98,0.01
		c-0.98,0.04-1.5,0.64-1.5,1.63c0,0.94,0.56,1.31,1.43,1.34c2.56,0.08,5.12,0.21,7.68,0.23c0.96,0.01,1.85-0.38,1.86-1.57
		c0.01-1.13-0.68-1.63-1.76-1.63C32.92,142.56,31.67,142.57,30.43,142.57z M133.02,98.12c-0.16,0.05-0.35,0.05-0.46,0.15
		c-2.32,1.99-4.5,4.13-6.44,6.49c-0.43,0.53-0.25,1.29,0.33,1.78c0.57,0.48,1.29,0.61,1.81,0.1c2.02-1.95,3.99-3.95,5.92-5.98
		c0.48-0.5,0.42-1.25,0.07-1.87C134,98.33,133.56,98.11,133.02,98.12z M90.41,85.43c0-1.41,0.03-2.82-0.01-4.22
		c-0.03-0.96-0.55-1.57-1.56-1.54c-0.89,0.03-1.38,0.6-1.39,1.44c-0.04,2.73-0.04,5.47-0.02,8.2c0.01,0.98,0.56,1.57,1.56,1.53
		c1.03-0.04,1.41-0.73,1.42-1.68C90.42,87.91,90.41,86.67,90.41,85.43z M90.44,202.88c0-1.08,0.02-2.16,0-3.24
		c-0.02-1.01,0.03-2.08-1.44-2.12c-1.64-0.04-1.59,1.13-1.6,2.22c-0.02,2.24-0.01,4.48,0,6.72c0.01,1.03,0.02,2.08,1.51,2.01
		c1.4-0.07,1.49-1.08,1.51-2.12C90.46,205.21,90.44,204.05,90.44,202.88z"/>
	<path class="st7" d="M144.9,99.58c-2.05-0.71-2.77-2.78-4.12-4.18c-2.18-2.24-4.85-4.04-6.45-6.83c1.24-0.1,2.09-0.13,2.89,1.41
		c0.94,1.82,2.76,3.18,4.46,4.5C143.32,95.75,145.49,96.83,144.9,99.58z"/>
	<path class="st7" d="M36.94,192.51c1.58,1.08,2.93,2.41,4,4C37.46,196.42,36.97,195.93,36.94,192.51z"/>
	<path class="st4" d="M79.41,19.99c0.85,0,1.7,0.01,2.54,0.01c-0.01,6.89-0.03,13.78-0.01,20.66c0,0.99-0.39,2.27,1.37,2.35
		c1.89,0.09,1.62-1.21,1.62-2.35c0-6.89-0.01-13.78-0.02-20.66c0.84,0,1.69,0.01,2.53,0.01c-0.01,6.89-0.02,13.77-0.01,20.66
		c0,0.99-0.39,2.27,1.37,2.34c1.89,0.08,1.62-1.21,1.62-2.35c0-6.89-0.01-13.77-0.02-20.66c0.85,0,1.69,0,2.54,0
		c-0.01,6.89-0.02,13.77-0.02,20.66c0,1.14-0.27,2.44,1.62,2.35c1.76-0.08,1.36-1.36,1.37-2.35c0.02-6.89,0-13.77-0.01-20.66
		c0.84,0,1.69,0,2.53,0.01c-0.01,6.96,0,13.91-0.02,20.87c0,1.13-0.09,2.26,1.57,2.14c-0.05,1.82-0.09,3.64-0.14,5.45
		c-7.29-0.73-14.58-0.73-21.87,0c-0.05-1.81-0.11-3.62-0.16-5.43c1.37-0.39,1.63-1.36,1.62-2.67C79.4,33.58,79.42,26.79,79.41,19.99
		z"/>
	<path class="st4" d="M97.97,146.45c-1.02,3.69-3.6,5.67-7.18,6.55c-1.72-0.17-3.45-0.35-5.17-0.52c-3.31-0.68-4.73-3.2-5.84-6.03
		c-0.01-1.79-0.01-3.57-0.02-5.36c1.14-3.9,3.86-6.08,7.68-7.05c0.97,0.73,1.96,0.69,2.95,0.03c3.8,0.95,6.53,3.06,7.58,6.99
		C97.98,142.85,97.98,144.65,97.97,146.45z M88.76,148.55c3.39,0.38,4.92-2.06,5.11-5.01c0.15-2.38-2.58-4.98-4.97-4.97
		c-2.69,0.01-4.96,2.39-4.96,5.18C83.94,146.55,85.93,148.52,88.76,148.55z"/>
	<path class="st8" d="M90.4,134.07c-0.99,0.66-1.97,0.7-2.95-0.03c0.01-0.18,0.02-0.36,0.02-0.55c0.65-0.59,0.46-1.39,0.46-2.11
		c0.01-10.41,0.01-20.81,0-31.22c0-0.73,0.2-1.52-0.43-2.13c-0.04-1.1,0.59-1.52,1.57-1.42c1.21,0.11,1.35,1.04,1.36,2.01
		c0.01,4.08,0.02,8.15,0.01,12.23C90.43,118.59,90.41,126.33,90.4,134.07z"/>
	<path class="st9" d="M104.91,146.34c-0.33,0-0.67,0-1,0c-0.65-0.48-1.3-0.48-1.95,0.01c-0.35-0.01-0.7-0.02-1.06-0.02
		c-0.56-0.5-1.25-0.27-1.89-0.33c-0.02-0.41-0.06-0.83-0.07-1.24c-0.06-3.22-0.06-3.24,3.15-3.25c7.61-0.01,15.23,0.01,22.84,0.01
		c0.18,0.32,0.35,0.64,0.53,0.96c-6.72,0-13.45,0-20.17,0c0,0.34-0.01,0.69-0.01,1.03c2.42,0,4.84-0.08,7.26,0.02
		c4.47,0.18,8.97-0.56,13.4,0.5c0.08,1.19-0.56,1.54-1.64,1.5c-1.13-0.04-2.26,0-3.39,0.01c-4.64-0.01-9.28-0.03-13.92-0.01
		C106.23,145.52,105.27,145.21,104.91,146.34z"/>
	<path class="st8" d="M134.77,188.53c-0.02,0.73-0.36,1.18-0.87,1.52c-0.63,0.41-1.26,0.43-1.81-0.13
		c-1.98-2.01-3.95-4.03-5.91-6.05c-0.66-0.68-0.5-1.39,0.06-2c0.55-0.6,1.33-0.91,1.99-0.28c2.15,2.07,4.24,4.2,6.33,6.32
		C134.71,188.07,134.72,188.37,134.77,188.53z"/>
	<path class="st8" d="M50.22,106.92c-0.28-0.16-0.78-0.32-1.11-0.64c-1.78-1.73-3.51-3.5-5.27-5.25c-0.76-0.76-0.93-1.6-0.16-2.4
		c0.76-0.78,1.65-0.71,2.41,0.04c1.77,1.74,3.52,3.49,5.25,5.27c0.56,0.57,0.73,1.32,0.42,2.07
		C51.54,106.57,51.05,106.9,50.22,106.92z"/>
	<path class="st8" d="M44.84,190.35c-0.71-0.06-1.17-0.4-1.49-0.92c-0.39-0.64-0.36-1.27,0.19-1.81c1.94-1.92,3.89-3.84,5.84-5.77
		c0.62-0.62,1.25-0.75,1.96-0.11c0.65,0.59,0.9,1.38,0.35,1.99c-2.01,2.2-4.12,4.31-6.22,6.43C45.32,190.31,45,190.3,44.84,190.35z"
		/>
	<path class="st8" d="M147.14,145.75c-1.24,0-2.49,0.09-3.72-0.03c-0.98-0.1-1.73-0.65-1.58-1.82c0.13-1.01,0.78-1.36,1.75-1.35
		c2.49,0.02,4.97,0.01,7.46,0c1.06,0,1.76,0.42,1.84,1.55c0.1,1.29-0.86,1.52-1.78,1.58c-1.32,0.09-2.65,0.02-3.97,0.02
		C147.14,145.72,147.14,145.74,147.14,145.75z"/>
	<path class="st8" d="M30.43,142.57c1.24,0,2.49-0.01,3.73,0c1.08,0.01,1.76,0.51,1.76,1.63c-0.01,1.19-0.9,1.57-1.86,1.57
		c-2.56-0.02-5.12-0.15-7.68-0.23c-0.87-0.03-1.43-0.4-1.43-1.34c0-0.99,0.53-1.58,1.5-1.63C27.77,142.53,29.1,142.57,30.43,142.57z
		"/>
	<path class="st2" d="M133.02,98.12c0.54-0.01,0.98,0.21,1.24,0.67c0.35,0.62,0.41,1.36-0.07,1.87c-1.93,2.03-3.91,4.03-5.92,5.98
		c-0.53,0.51-1.25,0.38-1.81-0.1c-0.59-0.49-0.77-1.25-0.33-1.78c1.94-2.36,4.12-4.5,6.44-6.49
		C132.67,98.17,132.86,98.17,133.02,98.12z"/>
	<path class="st8" d="M90.41,85.43c0,1.24,0,2.49,0,3.73c-0.01,0.95-0.39,1.64-1.42,1.68c-1,0.04-1.55-0.54-1.56-1.53
		c-0.02-2.73-0.02-5.47,0.02-8.2c0.01-0.84,0.51-1.42,1.39-1.44c1.01-0.03,1.53,0.58,1.56,1.54C90.44,82.61,90.41,84.02,90.41,85.43
		z"/>
	<path class="st8" d="M90.44,202.88c0,1.16,0.02,2.32-0.01,3.49c-0.02,1.04-0.11,2.05-1.51,2.12c-1.49,0.07-1.51-0.98-1.51-2.01
		c-0.01-2.24-0.02-4.48,0-6.72c0.01-1.09-0.04-2.27,1.6-2.22c1.48,0.04,1.42,1.11,1.44,2.12C90.46,200.73,90.44,201.81,90.44,202.88
		z"/>
	<path class="st10" d="M79.77,141.09c0.01,1.79,0.01,3.57,0.02,5.36c-1.08-0.01-2.15,0.03-3.22-0.05c-1.55-0.12-2.35-0.98-2.47-2.56
		c-0.12-1.65,0.76-2.52,2.21-2.74C77.44,140.92,78.62,141.08,79.77,141.09z M78.44,141.74c-0.74,0.6-0.4,1.34-0.59,1.94
		c-0.1,0.3-0.32,0.57-0.46,0.86c-0.48,1.01,0.28,1,0.83,0.85c1.01-0.28,0.63-1.22,0.68-1.9C78.94,142.94,79.09,142.33,78.44,141.74z
		"/>
	<path class="st11" d="M124.94,141.52c-7.61-0.01-15.23-0.02-22.84-0.01c-3.21,0-3.22,0.03-3.15,3.25c0.01,0.41,0.04,0.83,0.06,1.24
		c-0.05,0.11-0.08,0.23-0.09,0.35c-0.31,0.04-0.63,0.07-0.94,0.11c0-1.8,0-3.6,0.01-5.39c9.14-0.06,18.29-0.25,27.43,0.09
		C125.25,141.27,125.09,141.39,124.94,141.52z"/>
	<path class="st2" d="M87.5,98.03c0.62,0.61,0.43,1.4,0.43,2.13c0.01,10.41,0.01,20.81,0,31.22c0,0.73,0.2,1.52-0.46,2.11
		C87.48,121.67,87.49,109.85,87.5,98.03z"/>
	<path class="st12" d="M104.91,146.34c0.36-1.13,1.32-0.81,2.09-0.81c4.64-0.01,9.28,0,13.92,0.01c0.02,0.28,0.04,0.55,0.06,0.83
		C115.62,146.35,110.27,146.34,104.91,146.34z"/>
	<path class="st2" d="M85.63,152.47c1.72,0.17,3.45,0.35,5.17,0.52c-0.12,0.72-0.29,1.45-0.36,2.18c-0.09,1.02-0.1,2.11-1.49,2.14
		c-1.38,0.03-1.64-1.05-1.53-2.06C87.58,153.76,86.89,152.97,85.63,152.47z"/>
	<path class="st10" d="M120.98,146.36c-0.02-0.28-0.04-0.55-0.06-0.83c1.13-0.01,2.26-0.05,3.39-0.01c1.08,0.04,1.72-0.32,1.64-1.5
		c0,0,0-0.01,0-0.01c0.15-0.17,0.31-0.34,0.46-0.51c-0.32-0.34-0.63-0.68-0.95-1.02c-0.18-0.32-0.35-0.64-0.53-0.96
		c0.16-0.12,0.31-0.25,0.47-0.37c1.79,0.34,2.49,1.49,2.19,3.21c-0.27,1.59-1.44,2.11-2.91,2.1
		C123.45,146.45,122.21,146.4,120.98,146.36z"/>
	<path class="st12" d="M98.92,146.34c0.01-0.12,0.04-0.24,0.09-0.35c0.64,0.06,1.33-0.17,1.89,0.33
		C100.24,146.33,99.58,146.33,98.92,146.34z"/>
	<path class="st12" d="M101.96,146.35c0.65-0.49,1.3-0.49,1.95-0.01C103.26,146.34,102.61,146.34,101.96,146.35z"/>
	<path class="st3" d="M73.96,42.9c-2.72-1.02-3.61-3.08-3.54-5.84c0.09-3.8,0.08-7.6,0-11.4c-0.05-2.7,0.97-4.62,3.52-5.63
		C73.94,27.65,73.95,35.28,73.96,42.9z"/>
	<path class="st3" d="M104.04,20.4c2.5,0.25,3.14,2.32,3.23,4.13c0.22,4.72,0.09,9.46-0.02,14.19c-0.05,2.15-1.37,3.46-3.35,4.15
		C103.95,35.38,103.99,27.89,104.04,20.4z"/>
	<path class="st13" d="M84.92,20c0.01,6.89,0.02,13.78,0.02,20.66c0,1.14,0.27,2.44-1.62,2.35c-1.76-0.08-1.37-1.35-1.37-2.35
		c-0.02-6.89,0-13.78,0.01-20.66C82.94,20,83.93,20,84.92,20z"/>
	<path class="st13" d="M90.42,20.01c0.01,6.89,0.02,13.77,0.02,20.66c0,1.14,0.27,2.43-1.62,2.35c-1.76-0.08-1.37-1.35-1.37-2.34
		c-0.02-6.89,0-13.77,0.01-20.66C88.44,20.01,89.43,20.01,90.42,20.01z"/>
	<path class="st13" d="M95.92,20c0.01,6.89,0.02,13.77,0.01,20.66c0,0.99,0.4,2.27-1.37,2.35c-1.89,0.09-1.62-1.21-1.62-2.35
		c0-6.89,0.01-13.77,0.02-20.66C93.95,20,94.93,20,95.92,20z"/>
	<path class="st13" d="M100,43.02c-1.66,0.12-1.57-1.01-1.57-2.14c0.02-6.96,0.02-13.91,0.02-20.87c0.99,0,1.98-0.01,2.96-0.01
		c0.01,7.65,0.01,15.29,0.02,22.94C100.96,42.96,100.48,42.99,100,43.02z"/>
	<path class="st13" d="M79.41,19.99c0.01,6.79-0.01,13.59,0.05,20.38c0.01,1.31-0.25,2.28-1.62,2.67c-0.47-0.04-0.94-0.09-1.4-0.13
		c0-7.63,0.01-15.27,0.01-22.9C77.43,20.01,78.42,20,79.41,19.99z"/>
	<path class="st4" d="M76.45,20.01c0,7.63-0.01,15.27-0.01,22.9c-0.83,0.2-1.65,0.25-2.48-0.01c-0.01-7.63-0.02-15.25-0.02-22.88
		C74.77,19.81,75.61,19.41,76.45,20.01z"/>
	<path class="st4" d="M101.44,42.93c-0.01-7.65-0.01-15.29-0.02-22.94c0.91-0.09,1.84-0.34,2.62,0.4
		c-0.05,7.49-0.09,14.98-0.14,22.47C103.09,43.18,102.27,43.11,101.44,42.93z"/>
	<path class="st1" d="M88.76,148.55c-2.84-0.02-4.82-2-4.83-4.8c-0.01-2.8,2.27-5.17,4.96-5.18c2.39-0.01,5.13,2.59,4.97,4.97
		C93.68,146.48,92.16,148.93,88.76,148.55z"/>
	<path class="st14" d="M125.47,142.47c0.32,0.34,0.63,0.68,0.95,1.02c-0.15,0.17-0.31,0.34-0.46,0.51c0,0,0,0.01,0,0.01
		c-4.43-1.06-8.93-0.31-13.4-0.5c-2.42-0.1-4.84-0.02-7.26-0.02c0-0.34,0.01-0.69,0.01-1.03
		C112.02,142.47,118.74,142.47,125.47,142.47z"/>
	<path class="st12" d="M78.44,141.74c0.65,0.59,0.5,1.2,0.46,1.75c-0.04,0.69,0.33,1.62-0.68,1.9c-0.55,0.15-1.31,0.16-0.83-0.85
		c0.14-0.29,0.36-0.55,0.46-0.86C78.04,143.08,77.7,142.34,78.44,141.74z"/>
	<path class="st9" d="M125.95,144.01c0.15-0.17,0.31-0.34,0.46-0.51C126.26,143.67,126.11,143.84,125.95,144.01z"/>
</g>
</svg>
