<?xml version="1.0" encoding="utf-8"?>
<!-- Generator: Adobe Illustrator 23.0.6, SVG Export Plug-In . SVG Version: 6.00 Build 0)  -->
<svg version="1.1" id="Calque_1" xmlns="http://www.w3.org/2000/svg" xmlns:xlink="http://www.w3.org/1999/xlink" x="0px" y="0px"
	 viewBox="0 0 187.11 186.74" style="enable-background:new 0 0 187.11 186.74;" xml:space="preserve">
<style type="text/css">
	.st0{fill:#FEFCEF;}
	.st1{fill:#E42F34;}
	.st2{fill:#FEFEFE;}
</style>
<g>
	<path class="st0" d="M187.11,93.45C187.55,41.99,145.21-0.04,93.58,0C41.96,0.04,1.31,41.5,0.03,90.83
		c-1.4,54.08,43.07,96.15,93.76,95.91C144.98,186.5,187.55,144.83,187.11,93.45z"/>
	<path class="st1" d="M187.11,93.45c0.44,51.38-42.13,93.05-93.31,93.29c-50.7,0.24-95.17-41.82-93.76-95.91
		C1.31,41.5,41.96,0.04,93.58,0C145.21-0.04,187.55,41.99,187.11,93.45z M117.71,83.02c-1.04-0.9-2.25-1.52-3.49-2.08
		C102.3,74.04,90.38,67.15,78.2,60.1c0,22.34,0,44.24,0,66.53c8.36-4.85,16.39-9.51,24.43-14.18c1.08-0.44,2.15-0.92,2.95-1.83
		c1.82-0.98,3.67-1.92,5.47-2.95c8.21-4.71,16.4-9.44,24.96-14.36c-3.15-1.72-5.98-3.26-8.81-4.8c-1.37-1.21-3-1.97-4.62-2.77
		C120.79,85.13,119.26,84.06,117.71,83.02z"/>
	<path class="st2" d="M102.63,112.46c-8.04,4.66-16.07,9.33-24.43,14.18c0-22.29,0-44.19,0-66.53
		c12.17,7.04,24.09,13.94,36.01,20.83c0.53,1.75,1.83,2.23,3.49,2.09c1.55,1.03,3.08,2.11,4.86,2.72c-0.15,0.59-1.48,1.53-0.31,1.65
		c1.73,0.18,3.09,1.78,4.94,1.12c2.83,1.54,5.66,3.09,8.81,4.8c-8.55,4.92-16.75,9.65-24.96,14.36c-1.8,1.03-3.64,1.97-5.46,2.95
		c-0.94-0.46-1.91-0.89-2.83-1.39c-0.37-0.2-0.7-0.57-1-0.05c-0.2,0.35-0.22,0.99,0.17,1.12
		C103.19,110.74,102.88,111.58,102.63,112.46z"/>
	<path class="st0" d="M102.63,112.46c0.25-0.87,0.56-1.72-0.72-2.15c-0.39-0.13-0.37-0.77-0.17-1.12c0.3-0.52,0.64-0.15,1,0.05
		c0.92,0.5,1.88,0.93,2.83,1.39C104.78,111.53,103.72,112.01,102.63,112.46z"/>
	<path class="st0" d="M127.19,88.51c-1.85,0.66-3.21-0.94-4.94-1.12c-1.16-0.12,0.16-1.07,0.31-1.65
		C124.19,86.54,125.83,87.3,127.19,88.51z"/>
	<path class="st0" d="M117.71,83.02c-1.66,0.14-2.96-0.33-3.49-2.09C115.46,81.5,116.67,82.12,117.71,83.02z"/>
</g>
</svg>
